<?xml version="1.0" standalone="no"?>
<!DOCTYPE svg PUBLIC "-//W3C//DTD SVG 1.1//EN" "http://www.w3.org/Graphics/SVG/1.1/DTD/svg11.dtd" >
<svg xmlns="http://www.w3.org/2000/svg">
<metadata></metadata>
<defs>
<font id="mistralregular" horiz-adv-x="1024" >
<font-face units-per-em="2048" ascent="1638" descent="-410" />
<missing-glyph horiz-adv-x="512" />
<glyph horiz-adv-x="2048" />
<glyph horiz-adv-x="2048" />
<glyph unicode="&#xd;" horiz-adv-x="512" />
<glyph unicode=" "  horiz-adv-x="512" />
<glyph unicode="&#x09;" horiz-adv-x="512" />
<glyph unicode="&#xa0;" horiz-adv-x="512" />
<glyph unicode="!" horiz-adv-x="616" d="M150 70q0 40 44.5 79t86.5 39q31 0 49 -7.5t22 -20.5l-10 -77q-3 -14 -4 -28.5t-4 -28.5q-5 -13 -17 -19t-33 -6q-16 0 -44.5 -7.5t-43.5 -7.5q-23 0 -34.5 20.5t-11.5 63.5zM216 301l10 41q-4 36 -8 70q0 23 1.5 44t3.5 41q6 23 12 37q3 10 5 21t2 18q-1 26 -1 49 q0 -5 0.5 6t1.5 35q2 9 2 17.5v18.5q11 31 15.5 59t0.5 54q11 33 17 58t6 42q0 9 -2.5 23.5t-3.5 69.5q-6 -2 -13 -2l-17 11l-3 14q0 23 14.5 67t12.5 65l-1 53q-2 14 1.5 31.5t11.5 35.5q8 22 18 35.5t22 17.5q5 3 11.5 5.5t12.5 4.5q19 15 36 28.5t31 27.5q25 17 45.5 27 t36.5 10q13 0 18.5 -12.5t5.5 -37.5q0 -15 -3.5 -39.5t-11.5 -56.5q-8 -33 -13 -57t-6 -39q-1 -22 -9 -79.5t-24 -147.5q-11 -60 -27 -152.5t-37 -214.5q0 -11 -2.5 -26t-5.5 -37q-2 -6 -5 -13.5t-8 -15.5q-2 -7 -7 -43.5t-11 -103.5q-3 -19 -52.5 -62.5t-66.5 -43.5 q-11 1 -14 6q0 5 -1 19t-1 21z" />
<glyph unicode="&#x22;" horiz-adv-x="960" d="M256 778q6 20 10 44l-5 69q-3 36 3.5 75t21.5 84q-2 24 -5 48q0 26 1.5 46t3.5 32q8 26 15 53q4 14 6 27.5t1 26.5q64 53 105.5 81t61.5 28q12 0 17.5 -5.5t5.5 -18.5q0 -12 -7 -45t-21 -87q-17 -60 -26.5 -97.5t-12.5 -54.5q2 -8 1 -20.5t-2 -29.5q-5 -9 -10 -21 t-10 -28l-9 -67q-14 -95 -15.5 -97t-60.5 -56q-17 -16 -30.5 -25.5t-20.5 -9.5q-5 0 -15 6q-1 22 -3 42zM600 778q4 20 10 44l-6 69q-1 17 0.5 37t7.5 43q8 33 4.5 51.5t-1.5 25.5q3 7 11 26t8 24q0 26 -3.5 46t-0.5 32q9 26 14 53q5 16 14 33.5t8 30.5q64 53 98.5 76 t54.5 23q12 0 17.5 -5.5t5.5 -18.5q0 -12 -6 -48t-22 -90q-16 -60 -26 -94.5t-15 -51.5q2 -8 -8 -18.5t-11 -27.5q-4 -9 0.5 -23t-1.5 -30l-10 -67q-14 -95 -76 -153q-17 -16 -30 -25.5t-21 -9.5l-13 6q-3 22 -3 42z" />
<glyph unicode="#" horiz-adv-x="929" d="M9 444q12 31 24 56q3 4 5 12t5 16q9 25 26.5 40.5t45.5 24.5q25 6 50 11t50 12q17 46 24 76.5t7 47.5q0 10 -3.5 15t-10.5 5q-11 0 -58 -11t-64 -11q-10 0 -14 4t-4 13q0 7 8.5 23.5t24.5 40.5q5 19 8 27q9 19 17.5 30.5t18.5 17.5q17 4 34.5 8.5t34.5 6.5q10 3 23.5 6 t29.5 6q11 29 22 66.5t24 85.5q0 18 1 28t3 15q6 8 8.5 21.5t2.5 31.5q0 45 16 78t44 51q22 12 50.5 28.5t67.5 38.5q8 -2 12.5 -7.5t4.5 -16.5q-6 -38 -11 -74q-6 -42 -30.5 -130.5t-62.5 -221.5q43 9 80 10.5t70 -1.5q1 5 12 40.5t31 101.5q3 15 5.5 34.5t8.5 43.5 q2 7 3.5 23.5t2.5 42.5q1 25 14 45.5t37 37.5q23 15 47 27.5t45 25.5q16 9 32 17q10 0 14 -7t4 -21q0 -10 -6.5 -27.5t-6.5 -24.5q-1 -36 -22.5 -122.5t-61.5 -223.5q17 1 42 3t58 5q7 2 23.5 6t25.5 4q6 0 8 -4t2 -13q0 -6 -5 -13t-14 -16q-43 -47 -90 -70t-99 -23 q-7 -33 -21.5 -81t-35.5 -109q74 10 116.5 16.5t53.5 6.5q6 0 9 -5t3 -12q0 -6 -7.5 -15.5t-18.5 -23.5q-30 -36 -79.5 -56.5t-116.5 -28.5q-30 -110 -48 -171t-21 -75q-17 -70 -28 -133t-15 -119q-13 -9 -24 -9q-10 6 -17 12q-13 8 -29 19q-3 4 -3.5 12.5t-0.5 22.5 q0 48 0.5 76.5t4.5 35.5q2 6 5.5 15t4.5 21q3 11 14 79t32 194q-164 -20 -183.5 -38.5t-62.5 -188.5q-22 -83 -32 -139t-10 -80q0 -9 1 -16t-1 -19q-11 -6 -20 -6q-7 0 -12.5 3t-8.5 9q-13 3 -21 11t-11 20q-1 28 -1 51q0 32 4 61.5t13 54.5q1 24 5.5 57.5t10.5 78.5 q3 17 8.5 42.5t12.5 60.5q-37 -10 -73.5 -14.5t-75.5 -4.5q-7 0 -11 3t-4 10zM337 603q32 11 76.5 14t102.5 -1q10 23 21.5 68t23.5 111q-77 -9 -120 -13t-49 -4q-10 -29 -24 -72.5t-31 -102.5z" />
<glyph unicode="$" horiz-adv-x="732" d="M4 36q0 28 67.5 74t202.5 108q11 5 19 21.5t9 45.5q2 20 1 41t-1 41q3 67 6 133q-2 6 -2 13q-12 17 -37.5 40.5t-59.5 58.5q-31 30 -55.5 55.5t-40.5 50.5q-27 42 -43 67.5t-18 32.5q-6 11 -8 37.5t-2 68.5q0 18 13.5 51t41.5 79q36 60 87.5 112.5t116.5 98.5 q16 10 25 27.5t13 42.5q6 40 13 86l-10 23q0 21 5 48q4 5 14.5 8.5t29.5 6.5q10 -3 23 -4t31 1q12 -13 16 -22q2 -5 2 -24.5v-52.5q0 -9 -3 -9t-9 -24q2 -6 4 -7.5t8 -1.5q116 53 163 53q24 0 37 -22.5t13 -68.5q0 -23 -10.5 -44t-32.5 -41q-19 -17 -38 -31.5t-39 -29.5 q-15 -13 -40 -31t-59 -38q-14 -9 -23 -38t-9 -78q0 -16 -0.5 -38t0.5 -49v-53.5v-34.5q0 -23 -3.5 -70t-3.5 -70q6 -12 9 -16q37 -36 63.5 -66t40.5 -50q29 -39 44 -74t18 -68q-2 -4 -3 -9.5t-1 -14.5q2 -6 12.5 -14.5t27.5 -21.5q3 -8 3 -23q0 -7 -1 -12t-4 -9l-74 -50 q-12 -13 -29.5 -31t-42.5 -41q-18 -17 -48.5 -41.5t-70.5 -54.5q-21 -11 -27 -95.5t-18 -89.5q-25 2 -38 6t-13 13q0 16 1.5 41t6.5 58l-5 5q-14 -7 -30.5 -14.5t-32.5 -16.5q-31 -16 -58.5 -24t-50.5 -8q-45 0 -69 19.5t-24 58.5zM225 947q8 -20 17 -40t20 -42 q13 -24 25 -41.5t24 -25.5q8 4 8 10l-10 33q0 23 1 57t2 83q2 46 3.5 81t1.5 59l-3 13q-25 -15 -42 -36t-26 -47q-11 -54 -21 -104zM361 251q0 -5 8 -8q13 8 25.5 16.5t23.5 16.5q16 12 23 22t7 21q0 29 -14 56t-44 52q-5 -3 -7 -16t-2 -36q0 -41 -3 -65.5t-6 -31.5 q-5 -9 -8 -15.5t-3 -11.5z" />
<glyph unicode="%" horiz-adv-x="1218" d="M26.5 776q-0.5 10 0.5 15l6 40q-1 34 -6 67q0 7 28 109.5t38 108.5q7 14 15.5 38.5t18.5 57.5q5 17 10 31t9 24q9 19 16.5 37t16.5 37q6 7 24.5 14.5t51.5 19.5l37 -23q20 16 38 25t34 9q20 -4 30 -8l18 5q22 0 39 -25.5t32 -77.5q14 -41 19.5 -75.5t5.5 -61.5 q0 -36 -7.5 -84t-20.5 -111q-15 -67 -29 -110t-30 -63q-13 -15 -29.5 -40t-36.5 -58q-8 -20 -16 -34t-15 -24q-13 -19 -25.5 -28.5t-24.5 -11.5q-16 -3 -31 -8t-28 -12q-37 7 -66 11q-13 3 -31 13.5t-41 29.5q-23 20 -33.5 36.5t-7.5 29.5q1 16 4 26q-4 27 -8 45 q-5 16 -5.5 26zM156 778q0 -40 16.5 -59.5t49.5 -19.5q6 0 14.5 4t22.5 15q19 12 37 27q35 57 54 93t25 47q12 30 17.5 71t5.5 91q0 83 -21.5 125t-65.5 42q-5 0 -15 -4t-27 -13q-47 -23 -73 -61t-28 -92v-24q4 -29 10 -55l-19 -50q1 -24 6 -47q0 -16 -4.5 -46t-4.5 -44z M172 -16q0 17 13 54.5t38 94.5q6 20 19.5 50t35.5 69q10 14 19 29t15 31l78 185q8 14 21 38t27 56q3 6 18 32t45 70q5 7 13.5 25t19.5 44q19 30 37.5 63.5t37.5 71.5q46 97 86 186q5 13 13 26.5t15 27.5q7 19 18.5 44.5t27.5 60.5q9 25 16 51t16 52q12 37 26.5 56.5 t34.5 23.5q10 1 24.5 6t32.5 14q19 10 33.5 15t24.5 5q5 0 7.5 -3.5t2.5 -10.5q0 -16 -6 -39t-17 -53q-17 -41 -26 -65t-11 -28q-28 -96 -60.5 -169.5t-71.5 -126.5q-10 -15 -23 -38t-26 -51q-14 -35 -25 -57t-19 -33q-29 -46 -66 -117t-87 -168q-15 -22 -35 -55.5 t-46 -79.5q-5 -14 -11.5 -28.5t-13.5 -30.5q-48 -63 -81.5 -127.5t-52.5 -130.5q-3 -8 -6.5 -23t-10.5 -32q-3 -9 -8.5 -24t-14.5 -35q-28 -20 -45.5 -30t-22.5 -10q-13 0 -21 20.5t-8 63.5zM669 223l7 41q-6 60 -6 67q13 59 26 109q16 51 34 109h5q5 15 14 39t19 56t17 55 t13 36q13 25 28.5 41t32.5 22q6 3 15.5 4t22.5 6l37 -23q20 17 38.5 25.5t32.5 8.5q5 0 12 -2t17 -6l20 7q22 0 39 -26.5t31 -78.5q13 -40 19.5 -75t6.5 -62q0 -35 -8 -83t-21 -112q-14 -69 -28.5 -111t-28.5 -61q-13 -17 -29.5 -41.5t-37.5 -57.5q-9 -18 -17 -32.5 t-15 -25.5q-13 -19 -25 -28.5t-25 -10.5q-16 -4 -31 -9t-28 -13q-37 8 -65 12q-13 3 -31 13.5t-40 29.5q-24 20 -34.5 36.5t-8.5 29.5q2 15 3 25q0 5 -1.5 16.5t-5.5 29.5q-3 18 -4 40zM798 211q0 -41 16.5 -60t49.5 -19q5 0 14 5t23 13q18 13 37 28q34 57 53.5 92t25.5 48 q11 30 17.5 71t6.5 91q0 83 -22 125t-68 42q-20 -5 -33 -13q-50 -22 -77.5 -61.5t-31.5 -95.5q-1 -13 -1 -29l11 -50q-10 -13 -14 -22t-4 -15q0 -10 2.5 -30t2.5 -30q0 -15 -4 -45t-4 -45z" />
<glyph unicode="&#x26;" horiz-adv-x="1224" d="M90 987q7 106 12 166.5t8 76.5q19 73 59 109.5t100 36.5q5 0 30 -5t70 -12l135 -103q22 -23 48.5 -61t60.5 -89q1 -9 7.5 -23.5t19.5 -37.5q15 -22 37 -45q16 0 113 135t109 137q23 3 41 5t31 3q17 -4 26.5 -9.5t9.5 -13.5q0 -15 -8 -36.5t-27 -48.5q-22 -48 -59 -114 t-90 -151q-5 -25 -18.5 -58.5t-35.5 -79.5q-19 -31 -29.5 -53.5t-10.5 -35.5q0 -8 4.5 -29t2.5 -29q-1 -32 -6 -63q3 -21 6 -39q-7 -36 -14 -67q0 -22 19 -32t58 -10q14 0 42 5t43 5q28 -6 34 -6q32 0 110 39t85 39q8 0 12 -6t4 -17q0 -13 -4.5 -24.5t-13.5 -17.5 q-10 -7 -19 -13.5t-19 -12.5q-17 -18 -29 -37q-16 -23 -31.5 -37t-31.5 -22q-43 -12 -82 -22q-21 -10 -38 -18q-12 -4 -22 -7t-18 -3q-68 6 -135 10q-7 2 -14 -1.5t-15 -12.5q-10 -10 -25 -23q-28 -57 -45 -90t-26 -42q-21 -27 -56 -40t-84 -13q-20 0 -30.5 16t-10.5 49 q0 7 2 15t5 18q4 10 10 30q0 14 0.5 39t22.5 80q8 26 12.5 46.5t2.5 36.5l-11 21q-118 96 -197 225.5t-121 293.5q-7 34 -16 73zM215 1107q0 -29 13.5 -87.5t13.5 -87.5q-3 -18 -6 -30q23 -71 62.5 -137t95.5 -126q36 -40 59.5 -60t33.5 -20q7 0 15.5 9t17.5 26 q7 15 14 27.5t13 27.5q3 13 7.5 26.5t12.5 29.5q12 20 19 34t8 21l-11 6q-6 0 -14.5 -5t-15.5 -15q-10 -13 -18 -20.5t-12 -9.5l-7 7q4 26 7 49q1 6 36 55t35 70q-5 18 -13 34q-4 7 -5.5 25.5t-4.5 46.5q0 5 -6 13.5t-19 20.5l-52 92q-40 73 -86 109.5t-96 36.5 q-26 0 -46 -15t-33 -46q-10 -22 -14 -48.5t-4 -58.5z" />
<glyph unicode="'" horiz-adv-x="616" d="M256 778q6 20 10 44l-5 69q-3 36 3.5 75t21.5 84q-2 24 -5 48q0 26 1.5 46t3.5 32q8 26 15 53q4 14 6 27.5t1 26.5q64 53 105.5 81t61.5 28q12 0 17.5 -5.5t5.5 -18.5q0 -12 -7 -45t-21 -87q-17 -60 -26.5 -97.5t-12.5 -54.5q2 -8 1 -20.5t-2 -29.5q-5 -9 -10 -21 t-10 -28l-9 -67q-14 -95 -15.5 -97t-60.5 -56q-17 -16 -30.5 -25.5t-20.5 -9.5q-5 0 -15 6q-1 22 -3 42z" />
<glyph unicode="(" horiz-adv-x="537" d="M116 471q0 42 0.5 86t6.5 89q6 41 18 84t22 86q7 29 14.5 59t17.5 60q11 32 25.5 65t27.5 66q67 163 128.5 245t116.5 82q10 0 13.5 -4t3.5 -13q-14 -52 -29 -91q-3 -9 -4.5 -20t-4.5 -22q-6 -17 -16.5 -35.5t-17.5 -39.5q-27 -71 -55.5 -158.5t-53.5 -178.5 q-29 -103 -49.5 -205t-20.5 -183q0 -90 58 -218t94 -208q4 -9 13.5 -16t12.5 -14q5 -14 -2 -41q0 -22 -10.5 -32.5t-32.5 -10.5q-21 0 -41.5 6t-38.5 17q-8 4 -19 7.5t-18 9.5q-6 6 -9.5 16.5t-9.5 16.5q-22 27 -42.5 66t-37.5 87q-12 36 -19 75.5t-14 75.5 q-10 48 -18.5 95.5t-8.5 95.5z" />
<glyph unicode=")" horiz-adv-x="570" d="M63 -86q0 6 14.5 36t39.5 86q31 60 46 92t16 37q43 110 71 185t41 115q28 92 42.5 170t14.5 143q0 18 -4.5 62t-14.5 110q-14 93 -22 143.5t-11 57.5q-12 43 -42.5 83.5t-77.5 75.5q-1 6 -3 12q0 39 23 57.5t69 18.5q36 -9 66 -17q11 -10 22 -21t21 -19 q28 -31 73.5 -203.5t45.5 -242.5q0 -155 -38 -312.5t-113 -317.5q-15 -33 -39 -83t-52 -116q-36 -82 -77.5 -122.5t-91.5 -40.5q-9 0 -14 2.5t-5 8.5z" />
<glyph unicode="*" horiz-adv-x="661" d="M109 1275q11 27 19.5 40.5t17.5 13.5q6 0 92.5 -87.5t105.5 -87.5q7 0 10 3.5t4 11.5v25q-1 12 -3 23q0 16 2 44.5t2 43.5t-4 43t-4 43q3 8 6 13q27 8 50 17q23 0 33.5 -13t10.5 -37q0 -35 -10 -96t-11 -89q-6 -14 -9 -20q3 -5 6 -5.5t8 -0.5t22 13t46 40q18 17 37 33.5 t36 33.5q5 6 11.5 15.5t11.5 24.5q5 6 18 12q27 0 41 -13.5t14 -39.5q0 -34 -208 -186q0 -5 14.5 -12.5t42.5 -20.5l45 -20q10 -3 23.5 -11t32.5 -15q17 -4 35.5 -7.5t18.5 -22.5q0 -24 -16 -35.5t-46 -11.5q-21 0 -87.5 44t-85.5 44q-6 0 -8.5 -4t-2.5 -11q0 -40 2.5 -81 t7.5 -83q1 -5 14 -38l-3 -12q-4 -5 -15 -8t-28 -3q-24 0 -37.5 5t-13.5 16q4 12 5 20l-11 28q3 38 4.5 74t1.5 64q0 9 -3 13.5t-10 4.5q-38 -23 -70 -45q-36 -23 -62 -35t-44 -16q-28 13 -42 23.5t-14 19.5q0 11 102.5 62t102.5 68q0 9 -31 33t-94 64q-14 9 -30 17.5 t-30 15.5q-7 6 -12 20.5t-11 37.5z" />
<glyph unicode="+" d="M44 566q6 43 8 66.5t2 29.5q0 14 10 20.5t29 7.5q16 -1 30 -3t27 -2q26 0 40 4l101 -17q11 4 24 7t27 4h24h31q20 -1 33.5 -1h19.5q1 10 3 25t5 36l-1 7q1 5 3.5 11.5t3.5 14.5l-7 25q3 10 8 51.5t10 114.5q0 15 1 31.5t2 32.5q3 25 11.5 36t21.5 11q42 0 45.5 1.5 t14.5 0.5q26 -2 38.5 -8t12.5 -18q0 -7 -1.5 -16.5t-4.5 -22.5q-2 -15 -4 -25t-2 -15q-4 -40 -9 -98.5t-10 -136.5q-2 -10 -4.5 -24t-5.5 -31q8 -3 19.5 -2.5t29.5 2.5l13 -9l12 9q12 -3 18 -3l6 -6l20 9l26 -12q48 6 82 9t52 3q6 0 17.5 -2.5t30.5 -6.5q18 6 45 11 q15 0 22.5 -7.5t7.5 -23.5q-2 -12 -5 -22q0 -12 -1.5 -26t-3.5 -28q-2 -17 -10 -25.5t-21 -8.5q-14 0 -39.5 4t-36.5 4q-16 -4 -33 -8l-79 8l-31 -11l-33 11q-13 -4 -21 -6t-13 -2q-12 0 -35.5 4t-35.5 4q-11 -1 -18 -4q0 -12 -2.5 -40.5t-7.5 -74.5q-5 -43 -6 -66.5 t-1 -29.5l8 -53q-3 -18 -5.5 -36t-7.5 -35q-7 -33 -12.5 -49t-10.5 -16l-40 10q-18 -4 -36 -5.5t-34 -1.5l-10 16q6 32 8 59.5t2 50.5q0 9 5 32t15 63q-6 34 -11 69q10 55 20 113q-29 1 -70 -0.5t-95 -2.5q-37 -7 -66.5 -9.5t-46.5 -2.5q-7 0 -116 20z" />
<glyph unicode="," horiz-adv-x="453" d="M37 -261q0 18 45 142.5t45 192.5q0 12 -4 31.5t-4 30.5q0 47 17 71.5t50 24.5t56 -11.5t37 -37.5q6 -10 14 -36.5t18 -69.5q0 -11 -6 -25.5t-16 -30.5q-10 -20 -16.5 -32.5t-8.5 -20.5q-36 -124 -75 -185.5t-77 -60.5l-49 2q-11 1 -18.5 4.5t-7.5 10.5z" />
<glyph unicode="-" horiz-adv-x="515" d="M-13 361q0 6 10 17.5t29 28.5q4 8 10.5 20.5t15.5 29.5q7 1 17.5 4.5l25.5 8.5q28 -7 47 -15q34 6 69 13h186q27 0 39 -14t12 -42q0 -40 -16.5 -60t-47.5 -20q-10 0 -31 3t-31 3h-57q-36 -7 -72 -13q-87 14 -97 14q-13 0 -34.5 -3.5t-34.5 -3.5q-18 0 -29 7.5t-11 21.5z " />
<glyph unicode="." horiz-adv-x="453" d="M110 132q5 16 9 31l8 30q5 19 16.5 27.5t26.5 8.5q26 0 48.5 -14t40.5 -43q17 -26 24.5 -52.5t7.5 -53.5q0 -14 -7.5 -27t-22.5 -25q-5 -15 -12.5 -22.5t-19.5 -7.5q-41 0 -70 29t-46 86l7 7z" />
<glyph unicode="/" horiz-adv-x="777" d="M54 46q0 8 2.5 21t7.5 28q8 18 10.5 30t4.5 17q3 8 19.5 46t49.5 103q25 56 64.5 141t92.5 198q29 53 71 134t97 188q2 9 8 22t13 30q9 11 18 29t21 43q18 57 36 116q14 48 34 104t43 120q7 20 15.5 31.5t15.5 16.5q12 1 22 3t20 5q23 10 43.5 16.5t38.5 6.5 q15 0 23 -3.5t10 -10.5q-31 -123 -68 -227.5t-81 -187.5q-15 -33 -35 -76t-47 -98q-72 -129 -140 -253q-55 -98 -100.5 -180t-84.5 -150q-9 -23 -23 -55.5t-33 -77.5q-9 -20 -18 -38.5t-18 -38.5q-7 -16 -10 -35.5t-3 -43.5q0 -33 -29 -53.5t-61 -20.5q-7 0 -11.5 1t-7.5 7 q-4 55 -7 69t-3 23z" />
<glyph unicode="0" horiz-adv-x="921" d="M69 454q3 26 5 44q2 9 2.5 32.5t0.5 62.5q0 72 13 148.5t37 155.5q6 18 14.5 47.5t18.5 69.5q10 20 21.5 53.5t24.5 78.5q0 10 6.5 27t16.5 43q9 20 17.5 40.5t19.5 41.5q12 21 29 32.5t42 11.5q14 0 20.5 -5t6.5 -14q-6 -34 -13 -64l3 -6q8 7 22 18.5t29 27.5 q43 50 91 75t103 25q20 0 48.5 -15.5t62.5 -42.5q52 -43 84 -97.5t44 -122.5q4 -28 7.5 -92.5t3.5 -166.5q0 -47 -15 -135t-46 -216q-6 -13 -13 -30.5t-16 -43.5q-1 -16 -9 -35.5t-18 -42.5q-33 -74 -58 -122.5t-42 -71.5q-32 -50 -70.5 -89t-83.5 -63q-25 -14 -43 -21.5 t-28 -7.5q-5 0 -16 1t-29 1q-14 1 -24 0.5t-21 -0.5q-6 0 -15.5 2.5t-22.5 10.5q-46 22 -77.5 48.5t-51.5 52.5q-14 22 -27.5 60.5t-27.5 91.5q-13 50 -17 92.5t1 76.5q-5 12 -7.5 19.5t-2.5 13.5zM252 553q6 -25 12 -49q1 -6 1.5 -18.5t0.5 -30.5q0 -40 6.5 -83t21.5 -88 q17 -61 40.5 -90t50.5 -29q48 0 94.5 40.5t91.5 123.5q18 32 45.5 92t65.5 150q8 23 22 105.5t14 114.5q0 181 -59 271.5t-173 90.5q-22 0 -50.5 -13t-63.5 -39q-37 -25 -55.5 -47.5t-18.5 -42.5q4 -20 7 -34q0 -7 -8 -37.5t-21 -83.5q-10 -38 -14 -68t-3 -53q2 -53 5 -105 q0 -13 -6 -38.5t-6 -38.5z" />
<glyph unicode="1" horiz-adv-x="792" d="M42 649q0 14 15 43.5t45 70.5q25 38 48 63t40 39q21 33 50 73t72 87q55 59 88.5 97.5t46.5 57.5q10 9 24.5 24.5t32.5 35.5q17 17 31 26.5t28 9.5q18 -4 34 -9q43 -10 65.5 -34t22.5 -61q0 -36 -4 -70.5t-12 -68.5q-3 -12 -4.5 -33.5t-1.5 -49.5q0 -8 -0.5 -16.5 t-2.5 -18.5q-3 -11 -4 -19.5t-1 -13.5v-33q0 -13 -3 -30.5t-8 -37.5q-4 -29 -7.5 -46t-4.5 -23q-5 -17 -10.5 -40t-14.5 -56l12 -36q-2 -11 -11 -59t-24 -133q-11 -61 -22 -106.5t-24 -72.5q-7 -19 -13.5 -54t-13.5 -88q-10 -23 -23 -53.5t-28 -69.5q-12 -14 -26 -30.5 t-32 -35.5q-18 -27 -36.5 -40t-36.5 -13q-14 0 -21 6t-7 19q0 11 2.5 27.5t10.5 39.5q10 31 21 66q12 47 19.5 85t13.5 65q1 16 3.5 39t5.5 54q1 7 7.5 26t6.5 30q0 27 10.5 95t32.5 177q1 7 2.5 18t6.5 27q-6 13 -10 23q2 12 4.5 31t2.5 43q0 34 11.5 100t11.5 98 q0 21 -4 32.5t-12 11.5l-12 -4q-60 -58 -97 -90.5t-53 -38.5q-17 -26 -43.5 -56.5t-63.5 -65.5q-29 -28 -57.5 -56t-57.5 -56l-14 5q-3 10 -5 28.5t-2 44.5z" />
<glyph unicode="2" horiz-adv-x="816" d="M13 33q3 26 41.5 85.5t114.5 152.5q126 154 195.5 241t82.5 104q73 99 110 170.5t37 114.5q0 24 -7.5 42t-22.5 29q-7 6 -25 14.5t-46 18.5q-49 19 -80.5 28.5t-45.5 9.5q-99 0 -155 -34.5t-67 -101.5q-3 -15 -21 -35.5t-29 -20.5q-16 0 -45 65t-23 84l9 33q-4 8 -10 27 q0 6 17 66.5t57 79.5q27 11 46 21t26 18q6 1 24.5 4.5t49.5 9.5q22 4 40.5 6t34.5 2q11 0 37 -2t66 -6q37 -4 76 -7q13 -2 33 -9t47 -20q23 -11 43.5 -23.5t42.5 -23.5q19 -10 32.5 -31t24.5 -49q15 -36 21 -58.5t6 -32.5v-18t-1 -23q0 -17 -1.5 -27t-1.5 -15 q-1 -40 -42.5 -123.5t-122.5 -211.5q-8 -11 -21.5 -27t-31.5 -39q-22 -34 -56.5 -84t-81.5 -115q-69 -84 -103.5 -135t-34.5 -67q0 -15 38 -24t111 -10q-47 1 -0.5 1h186.5q16 -4 30 -5q38 10 75.5 15.5t75.5 5.5q18 0 28 -8.5t10 -25.5q0 -16 -8.5 -32t-25.5 -30 q-14 -11 -29 -22.5t-31 -24.5q-16 -7 -39.5 -13t-55.5 -10q-28 -3 -50.5 -9.5t-36.5 -14.5q-12 -3 -19 -5q-30 -3 -53 -3t-71 -10t-70 -10q-138 0 -209.5 20.5t-78.5 61.5q-2 6 -5.5 22.5t-10.5 43.5z" />
<glyph unicode="3" horiz-adv-x="791" d="M-32 -100q0 23 34.5 43l103.5 60q59 34 146 90t201 133q30 29 60 56q11 13 17.5 21.5t6.5 15.5q0 12 -25.5 27t-78.5 34q-32 10 -63 19t-62 21q-16 7 -24 11q-19 6 -38.5 11.5t-39.5 12.5q-14 8 -21 23.5t-7 41.5l-5 24q0 17 16.5 45t48.5 67q70 83 134.5 175.5 t121.5 192.5q9 13 16 33q0 14 -18 22t-55 8q-45 0 -110 -13.5t-152 -39.5q-27 -10 -50 -19q-16 -5 -27.5 -8.5t-20.5 -3.5q-18 0 -26.5 9t-8.5 28q0 10 5 32t16 57q14 45 35.5 75.5t51.5 47.5q18 10 54.5 18.5t89.5 14.5q20 8 47.5 14.5t63.5 8.5q29 1 57.5 1t57.5 3 q34 1 67 -7.5t65 -28.5q35 -23 52.5 -51t17.5 -59q0 -32 -9.5 -59t-27.5 -51q-155 -210 -234 -323.5t-79 -133.5q0 -12 24 -25.5t69 -30.5q63 -22 107 -41t68 -37q49 -31 72 -69.5t23 -86.5q-12 -111 -188 -246q-10 -7 -26.5 -20.5t-39.5 -28.5q-99 -58 -192 -111 q-14 -3 -35 -8t-45 -12q-20 -9 -32 -14t-18 -5q-23 0 -39.5 2t-27.5 7q-33 -6 -62 -12q-31 0 -46.5 9.5t-15.5 29.5z" />
<glyph unicode="4" horiz-adv-x="805" d="M24 371q3 21 4 49t1 64q0 146 23.5 273.5t69.5 237.5q8 19 11.5 33.5t3.5 24.5q-8 17 -17 24l-3 7q2 22 25 91.5t31 77.5q65 55 113.5 82.5t81.5 27.5q20 0 30 -12t10 -38l-61 -167q-23 -62 -53 -158t-69 -223q-3 -16 -8.5 -39.5t-15.5 -53.5q-23 -72 -34.5 -129 t-11.5 -98q0 -30 17 -50t51 -30q32 -4 60.5 -10.5t58.5 -10.5q10 3 31.5 5t54.5 2q23 3 40 6q7 1 10 7.5t3 19.5q3 40 7.5 76.5t9.5 65.5q2 33 6 80t12 112q10 58 15.5 97t5.5 59q0 27 28 60t54 33q13 0 31.5 -5t41.5 -15q27 -15 40.5 -27.5t13.5 -25.5q0 -10 -4 -29 t-13 -47q-6 -17 -16.5 -70t-27.5 -138q-19 -89 -27.5 -139t-8.5 -60q0 -14 5.5 -20.5t17.5 -6.5q24 0 72 23.5t64 23.5q14 0 21 -11.5t7 -34.5q0 -8 -0.5 -16t-1.5 -14q-15 -10 -34 -24t-47 -33q-24 -16 -50 -29.5t-51 -29.5q-15 -11 -27.5 -34t-21.5 -56l-7 -28t-2 -19v-23 q-4 -39 -14 -98.5t-26 -139.5l10 -30q-3 -14 -43 -48t-54 -34t-23 15t-9 47q0 49 9.5 141t9.5 140q0 11 5.5 35.5t5.5 35.5q0 13 -7 20t-23 7q-25 0 -84.5 -10.5t-86.5 -10.5q-114 0 -172.5 39.5t-59.5 117.5q0 12 -2.5 28.5t-5.5 36.5z" />
<glyph unicode="5" horiz-adv-x="820" d="M1 7q0 7 1.5 14.5t4.5 14.5q40 6 84.5 13t94.5 15q26 6 84 23.5t150 45.5q20 7 40.5 13.5t42.5 13.5q28 10 43 24.5t15 30.5q0 18 -7 33.5t-23 25.5q-10 5 -22 16.5t-28 26.5q-23 18 -56 43t-74 55q-57 43 -94.5 72.5t-57.5 46.5q-36 32 -69.5 67t-65.5 75 q-12 17 -19.5 45t-7.5 64q3 50 5 86t7 58q5 41 19.5 74.5t34.5 60.5q12 22 22 40q24 49 38.5 76t18.5 34q16 19 43 28.5t66 9.5q28 0 85.5 2.5t84.5 2.5q37 5 75 10q11 -1 20 -2q8 0 32 -1t65 -1q19 -1 30 -3q10 -1 17 -2t12 -1l60 10q16 -7 24.5 -17.5t8.5 -24.5 q0 -8 -7 -23t-20 -36q-19 -27 -40 -60q-12 -9 -32.5 -19t-48.5 -20q-25 -6 -64.5 -12.5t-94.5 -13.5q-78 -7 -133.5 -19t-86.5 -35q-42 -30 -62.5 -81t-20.5 -125q0 -32 19 -64t57 -62q31 -23 63.5 -44.5t63.5 -44.5q37 -26 91.5 -64.5t127.5 -89.5q65 -44 97 -97.5 t32 -119.5t-46.5 -121t-139.5 -98q-76 -35 -151 -53.5t-151 -18.5q-12 0 -27 3.5t-33 10.5q-30 5 -59.5 8.5t-58.5 7.5q-38 7 -58.5 25t-20.5 48z" />
<glyph unicode="6" horiz-adv-x="800" d="M7 451q0 153 37.5 269t111.5 198l18.5 18.5t26.5 27.5q7 8 14.5 22.5t20.5 33.5q53 68 117 131t138 119q39 30 80.5 61t87.5 62q8 2 14.5 6.5t11.5 11.5q10 3 20 5.5t20 5.5q38 -14 57 -25t19 -19q-16 -22 -32 -37q-39 -38 -75.5 -74.5t-71.5 -72.5q-15 -20 -40 -49 t-61 -67l-13 -34q-5 -6 -14.5 -12.5t-22.5 -16.5q-11 -12 -23.5 -27.5t-26.5 -32.5q-33 -41 -71 -99t-75 -137l27 9q17 -9 35 -24t37 -35q18 -12 46 -29t61 -41q42 -40 70.5 -71t44.5 -48q27 -33 51.5 -66.5t44.5 -71.5q26 -46 38 -98t12 -111q0 -113 -74 -169t-220 -56 q-79 0 -147 34t-122 102l-87 108q-6 13 -10 26q-28 60 -56 128q-9 31 -14 66.5t-5 78.5zM150 361q0 -50 12.5 -91t36.5 -69q19 -22 54 -46.5t86 -48.5q32 -14 61.5 -23t53.5 -9q52 0 78.5 21t26.5 61q0 23 -7.5 48t-21.5 52q-10 30 -34.5 77t-60.5 110q-78 106 -159 216 l-7 30l-7 6q-11 0 -28.5 -34.5t-40.5 -106.5q-23 -68 -33 -116t-10 -77z" />
<glyph unicode="7" horiz-adv-x="713" d="M-102 1348q0 28 10 42.5t29 14.5q11 -4 27 -7q26 -7 60.5 -14.5t77.5 -15.5q13 -2 31.5 -6t39.5 -13q26 -10 44 -15t28 -8q16 -3 33.5 -10t39.5 -18q27 -13 45 -21t27 -11q35 -13 88 -50t60 -40q15 -16 30 -31.5t29 -33.5q13 -15 22.5 -35t14.5 -39q10 -33 14 -53t4 -29 q0 -46 -9 -98t-27 -111q-17 -51 -33 -101.5t-33 -100.5q-7 -13 -15.5 -32t-18.5 -44q-18 -53 -33 -94.5t-26 -71.5q-20 -46 -34.5 -87.5t-24.5 -78.5q-13 -30 -29.5 -78t-34.5 -111q-3 -16 -15.5 -22.5t-24.5 -13.5q-16 -17 -33.5 -33.5t-41.5 -19.5q-18 12 -27 21t-9 15 q0 11 3.5 40.5t14.5 72.5q10 47 17 76t11 42q4 28 12 64.5t23 81.5q24 70 47 144q1 9 3.5 22.5t4.5 32.5q12 28 27 74.5t31 108.5l15 77q5 15 15.5 47t29.5 81q16 40 23.5 73t7.5 57q0 20 -5.5 32.5t-15.5 17.5q-12 7 -29 16.5t-40 19.5q-9 2 -21 4t-28 5q-45 13 -98 25.5 t-115 25.5q-21 3 -52 6.5t-70 10.5q-23 5 -34.5 16.5t-11.5 29.5q-25 53 -37.5 90.5t-12.5 60.5z" />
<glyph unicode="8" horiz-adv-x="908" d="M119 182q0 80 229 367q-30 32 -60 57q-37 31 -63.5 57.5t-46.5 48.5q-30 34 -44.5 67t-14.5 62q0 31 10 70t30 84q24 53 48.5 79.5t48.5 26.5q10 0 18 -5.5t14 -17.5l-27 -81q3 -49 10.5 -85.5t19.5 -62.5q8 -15 29.5 -47.5t56.5 -79.5q10 -15 26.5 -30t36.5 -30l8 4 q9 4 18 12t20 18q7 11 17 29t24 43q107 141 161.5 246t54.5 169q0 36 -32 55t-95 19q-56 0 -104 -8.5t-91 -23.5q-47 -22 -97 -43t-101 -42q-22 0 -34.5 10.5t-12.5 33.5q0 10 9.5 27.5t29.5 40.5q31 41 58.5 70t45.5 44q33 27 69 43t73 20q4 2 11.5 2.5t15.5 2.5l16 15 q4 2 12 3q5 0 12.5 -2t18.5 -6q9 1 21.5 5.5t28.5 8.5q66 -19 112 -42t66 -51q30 -39 48.5 -64.5t27.5 -38.5q17 -29 24 -59.5t7 -59.5v-16.5t-1 -16.5q-6 -54 -14 -110t-26 -112q-12 -29 -46.5 -81t-94.5 -127q-56 -70 -83.5 -110t-29.5 -47q2 -5 6 -11t10 -12 q52 -60 78 -117.5t26 -108.5q0 -39 -10.5 -72.5t-33.5 -62.5q-14 -19 -41.5 -43t-64.5 -54q-50 -41 -96 -60t-87 -19q-36 3 -72 5q-46 5 -76.5 12t-46.5 19q-16 11 -31 38t-28 69q0 -6 -0.5 13.5t-0.5 62.5zM278 136q0 -9 6.5 -19.5t20.5 -23.5q19 -6 34.5 -8.5t29.5 -2.5 q8 0 23 3.5t38 10.5q68 20 102 63t34 109q0 34 -31 82t-61 62q-9 0 -26.5 -18.5t-45.5 -56.5q-35 -48 -73 -98q-27 -28 -39 -54t-12 -49z" />
<glyph unicode="9" horiz-adv-x="864" d="M9 692q0 7 2 17t8 26l-3 34q21 60 71 146t128 201q7 8 17.5 22.5t25.5 33.5q11 11 29 26t38 38q29 31 47 50t25 26q21 20 41 35.5t39 27.5q9 6 21 12t28 15q40 24 83 47q41 -10 69 -17t40 -13q31 -15 45.5 -36.5t14.5 -49.5q0 -15 -14.5 -26.5t-45.5 -18.5 q-19 -3 -47.5 -20.5t-66.5 -45.5q-68 -53 -131 -109t-121 -116q-78 -88 -122 -158.5t-51 -125.5l3 -7l7 -1q30 11 59.5 26t59.5 37q27 20 55 39t55 39q53 36 114 93.5t130 136.5q28 34 52.5 51t41.5 17q30 0 46 -13.5t16 -40.5q0 -33 -8 -79t-24 -104q-11 -48 -28.5 -118.5 t-37.5 -166.5q-10 -19 -21.5 -48.5t-25.5 -69.5q-4 -21 -13.5 -60.5t-25.5 -96.5q-8 -13 -18 -41t-22 -73q-1 -15 -8 -31.5t-19 -33.5q-13 -23 -21 -38t-10 -24q-32 -76 -65 -150q-8 -22 -19.5 -34t-26.5 -15q-13 -2 -30.5 -6t-42.5 -10q-8 3 -11.5 7.5t-3.5 14.5t11 32 t33 56q0 5 4.5 23t11.5 48q18 65 34 122t30 100q10 33 26.5 105t38.5 184q1 14 7.5 35t15.5 45q4 37 8 72q4 17 10 42t10 59l-4 5q-9 -7 -22 -18t-28 -25q-30 -26 -84.5 -68.5t-133.5 -99.5q-41 -30 -80.5 -42t-74.5 -12q-71 0 -106 28.5t-35 87.5z" />
<glyph unicode=":" horiz-adv-x="453" d="M110 132q5 16 9 31l8 30q5 19 16.5 27.5t26.5 8.5q26 0 48.5 -14t40.5 -43q17 -26 24.5 -52.5t7.5 -53.5q0 -14 -7.5 -27t-22.5 -25q-5 -15 -12.5 -22.5t-19.5 -7.5q-41 0 -70 29t-46 86l7 7zM170 544q3 16 7.5 31.5t8.5 31.5q4 19 15.5 27.5t27.5 8.5q26 0 49 -14.5 t40 -44.5q17 -25 25 -52.5t8 -53.5q0 -15 -8 -27.5t-24 -23.5q-4 -16 -11 -23t-19 -7q-43 0 -71.5 28.5t-45.5 87.5l7 7z" />
<glyph unicode=";" horiz-adv-x="453" d="M37 -261q0 13 11.5 42t31.5 73q20 47 32.5 76.5t12.5 42.5q1 8 1.5 22.5t5.5 33.5q4 30 6 35t2 10q0 12 -10.5 32.5t-10.5 29.5q0 47 17 71.5t50 24.5t56 -11.5t37 -37.5q6 -10 14 -36.5t18 -69.5q0 -11 -6 -25.5t-16 -30.5q-10 -20 -16.5 -32.5t-8.5 -20.5 q-36 -124 -75 -185.5t-77 -60.5l-49 2q-11 1 -18.5 4.5t-7.5 10.5zM182 538q3 16 6.5 32.5t9.5 33.5q5 19 16 29t27 10q27 0 49 -14.5t41 -44.5q16 -25 23.5 -51.5t7.5 -54.5q0 -15 -7 -28t-21 -23q-6 -16 -14 -23t-18 -7q-50 0 -79.5 35t-40.5 106z" />
<glyph unicode="&#x3c;" d="M83 578q-1 18 3 27t14 11.5t17 10.5q3 4 15 6.5t27 14.5q8 7 16.5 22t20.5 24q14 11 29.5 26t34.5 30q18 14 32.5 20t37.5 23q38 28 89 71.5t99 79.5q197 150 304 220.5t125 64.5q10 -3 14 -26t4 -64q0 -62 -7 -95t-18 -40q-15 -10 -65 -18t-80 -29q-45 -32 -109.5 -74 t-142.5 -96q-18 -12 -33.5 -31t-35.5 -34q-23 -17 -51.5 -30t-54.5 -31q-18 -13 -38.5 -27t-40.5 -28q20 -15 45 -34t54 -40q35 -24 80.5 -51t94.5 -60q40 -26 84.5 -58t93.5 -63q23 -15 50.5 -28.5t54.5 -28.5q22 -12 43.5 -28t44.5 -29q16 -10 23.5 -20t7.5 -23 q0 -10 -5 -20.5t-12 -23.5q-11 -23 -26 -29.5t-30 2.5q-106 63 -219.5 127t-233.5 127q-9 5 -9 8.5t-10 9.5q-15 9 -42.5 20t-43.5 18q-25 12 -46 25t-42 22t-42 17t-35 15q-36 19 -73 49q-6 8 -9.5 18t-2.5 23q0 9 -1 27z" />
<glyph unicode="=" d="M43 447q6 30 29 63.5t37 33.5h133.5t131.5 -1q145 -3 284 -12.5t270 -20.5q12 -2 21 -17.5t16 -45.5q5 -17 4 -30t-4 -22q-4 -13 -14.5 -17t-25.5 -3q-72 8 -155 14.5t-178 10.5q-20 0 -42 4t-44 5q-27 1 -54 0.5t-54 -0.5q-33 0 -67.5 -1t-70.5 -1q-48 0 -101 2t-106 2 q-1 9 -5 17.5t-5 18.5zM62 685q0 10 1 22.5t7 30.5q12 37 22 56t18 19q24 0 47.5 1t46.5 1q44 0 86.5 1.5t83.5 1.5q8 0 18 2.5t18 2.5q6 0 13 -3t13 -3q159 3 296 9t243 12q7 0 11.5 -5t4.5 -14q0 -23 -29.5 -77.5t-47.5 -54.5q-285 9 -495 3.5t-343 -27.5q-6 -1 -10 4 t-4 18z" />
<glyph unicode="&#x3e;" d="M84 152q2 59 7.5 93t17.5 41q14 10 64 19t80 29q81 53 207 141t300 210q-80 64 -241.5 168.5t-403.5 250.5q-13 9 -22 19.5t-9 23.5q0 10 4 21.5t12 23.5q15 21 28.5 28t27.5 -1q12 -7 29 -5.5t29 -5.5q7 -4 9.5 -15t9.5 -14q111 -67 233.5 -137t248.5 -135 q116 -62 237 -126q9 -10 12 -21t1 -21q-3 -23 -10.5 -41.5t-22.5 -34.5q-18 -20 -119 -100t-283 -219q-196 -149 -303 -220t-125 -62q-10 4 -14.5 26t-3.5 64z" />
<glyph unicode="?" horiz-adv-x="811" d="M123 49q0 28 83 98.5t119 70.5q27 0 53 -16.5t26 -35.5q0 -33 -16.5 -62.5t-50.5 -56.5q-38 -28 -81 -42.5t-94 -14.5q-19 0 -29 14.5t-10 44.5zM135 1196q0 46 20 89t44 54q6 3 14 5t19 2q97 0 264 -101t199 -192q7 -22 10.5 -47t3.5 -49q0 -60 -23 -135.5t-70 -165.5 q-39 -73 -74.5 -147.5t-74.5 -147.5q-9 -23 -32.5 -34.5t-59.5 -11.5q-17 0 -27 5t-16 17q40 107 86 207q49 108 72.5 189.5t23.5 137.5q0 43 -19.5 81.5t-60.5 75.5q-23 20 -60 46t-92 56q3 -19 15 -48t12 -38q0 -11 -5 -16t-18 -5q-28 0 -61 25t-69 76q-8 13 -14.5 31 t-6.5 41z" />
<glyph unicode="@" horiz-adv-x="1484" d="M73 655q0 157 49.5 287.5t148.5 233.5q101 104 229.5 157t284.5 53q114 0 219.5 -33.5t198.5 -100.5q105 -76 157 -168.5t52 -202.5q0 -73 -34.5 -148.5t-101.5 -156.5q-69 -83 -138.5 -125.5t-139.5 -42.5q-53 0 -90 48t-59 144q7 0 -149 -136t-222 -136q-43 0 -63.5 23 t-20.5 70q0 7 -2.5 21t0.5 44q0 3 3.5 13.5t-1.5 10.5l6 21q2 19 5.5 20.5t5.5 18.5q0 4 3.5 15t6.5 20q0 3 9.5 16.5t23.5 35.5q5 8 12 23.5t25 37.5q26 31 67.5 69.5t97.5 86.5q17 13 43 33.5t60 49.5q19 15 39 32.5t48 34.5q41 24 63 39t28 21q28 4 44 6.5l16 2.5 q26 0 38.5 -11.5t12.5 -36.5t-20 -49t-61 -44q-3 -10 -8 -19t-12 -15q-28 -21 -63.5 -54t-80.5 -78q-32 -31 -77.5 -84t-103.5 -126q-10 -15 -16 -21l-6 -6q0 -6 3.5 -8.5t8.5 -2.5t30 19t70 55q38 32 63.5 52.5t33.5 30.5q19 18 35.5 36.5t33.5 37.5q21 20 44 30t48 10 q18 0 29.5 -11.5t14.5 -32.5v-19.5v-50.5q0 -68 21 -101t63 -33q36 0 67.5 25.5t59.5 73.5l28 52t27 51q12 26 17.5 56t5.5 65q0 76 -33 144.5t-98 131.5q-65 60 -135 92.5t-146 37.5q-45 3 -72 5.5t-34 2.5q-99 0 -191.5 -31.5t-178.5 -96.5q-91 -67 -144 -147.5 t-66 -174.5l-13 -80q-4 -33 -7 -48t-3 -18q0 -10 4 -49t15 -107q11 -88 55.5 -169.5t123.5 -155.5q80 -76 163.5 -114t171.5 -38q98 0 166.5 10.5t103.5 32.5q29 15 68.5 41t90.5 63q12 10 21 16t15 6q33 0 49 -11.5t16 -36.5q0 -8 -3 -16t-9 -12q-7 -6 -13.5 -11t-13.5 -9 q-50 -46 -86.5 -74.5t-59.5 -43.5q-40 -23 -86 -34t-96 -11q-29 0 -86 0.5t-87 0.5q-69 0 -140 22t-145 67l-68 40q-57 34 -106.5 94.5t-90.5 147.5q-40 82 -61 157.5t-21 146.5z" />
<glyph unicode="A" horiz-adv-x="903" d="M-79 -73q0 26 6 59.5t19 73.5q14 53 24 86t11 49q3 7 9 25t14 44q9 25 17 57l-5 8l-32 -5q-11 1 -16 9t-5 21q0 7 2 15.5t6 20.5q-3 11 -3.5 18t-0.5 12q0 33 8 56.5t24 39.5q4 4 20.5 12t43.5 19q19 9 30.5 21.5t12.5 30.5q3 14 12 32t21 39q4 6 24 69t56 185 q10 37 20 64t17 46q32 85 52.5 111.5t30.5 43.5v5l-31 49l39 45l50 10q15 2 27.5 28t43.5 57q7 2 22.5 12.5t39.5 29.5q21 17 36 25t23 8q27 0 39 -11t12 -29q0 -22 -23 -64t-23 -64q0 -10 4.5 -16.5t10.5 -8.5l120 -65q10 -4 18 -31.5t13 -75.5q6 -40 9.5 -66.5t3.5 -42.5 q-7 -43 -14 -87q10 -56 22 -118q-6 -59 -13 -120q0 -6 2.5 -10.5t7.5 -5.5q17 -1 25.5 -9t8.5 -22q0 -18 -5.5 -28.5t-15.5 -16.5q-13 -8 -20.5 -14t-10.5 -10l13 -62l-18 -142q0 -18 -3 -46t-9 -65q-10 -27 -15 -45t-5 -24q5 -17 9 -36q-6 -27 -12.5 -54t-12.5 -53 q-11 -35 -29 -51.5t-42 -16.5q-13 0 -19.5 11.5t-6.5 34.5q0 10 3.5 29t3.5 29q0 7 -2 19t-2 21q0 28 5.5 89.5t5.5 92.5q-5 17 -10 35q3 19 4 38.5t-1 36.5l15 27l-13 93l-7 3q-6 0 -17.5 -4.5t-28.5 -14.5q-12 -4 -37.5 -8.5t-67.5 -5.5q-18 -9 -34 -16q-23 -5 -58 -17.5 t-81 -30.5q-27 -13 -49.5 -20.5t-37.5 -7.5q-12 0 -20 -9t-13 -26q-3 -16 -14.5 -44t-30.5 -70q-4 -11 -11 -34t-16 -57q-6 -13 -14 -32.5t-18 -45.5q0 -12 -2.5 -29.5t-7.5 -40.5q-5 -14 -13.5 -35.5t-21.5 -47.5q-8 -16 -23 -23.5t-39 -7.5q-17 0 -26.5 11.5t-9.5 35.5z M255 584q0 -7 3.5 -10.5t10.5 -3.5q10 0 32.5 2t32.5 2q23 0 68 11t68 11q14 -3 28 -5q25 5 49 11.5t49 11.5q10 2 15 7.5t5 14.5q-2 30 -2 41q0 19 2.5 42.5t7.5 48.5l-12 45l4 41q-4 22 -6.5 41.5t-0.5 32.5q-2 4 -7 13t-11 19q-10 17 -20.5 32.5t-20.5 31.5 q-14 19 -30 28t-33 9q-20 0 -41 -32t-39 -97q-3 -8 -16.5 -33t-38.5 -65q-4 -38 -27 -94.5t-64 -132.5q-5 -7 -5.5 -12t-0.5 -11z" />
<glyph unicode="B" horiz-adv-x="936" d="M1 -19q0 9 6.5 14.5t19.5 13.5q9 8 25.5 21.5t42.5 32.5q20 13 29 25t9 25q0 47 -0.5 60t-0.5 20q0 96 5 150t13 67l-2 30l-6 7q0 11 0.5 19.5t0.5 14.5q0 55 -48.5 70t-48.5 61q0 14 28 34.5t82 49.5q7 49 15 107t19 128q-4 13 -6 21.5t-2 15.5q0 35 8 64t22 55 q9 14 23 30.5t34 36.5q16 15 24 26.5t8 18.5q0 8 -6.5 13t-18.5 5q-37 0 -109 -23.5t-108 -23.5q-12 0 -17.5 3t-5.5 10q0 20 2 35t5 21q17 13 26.5 25t9.5 24q0 5 10.5 13t33.5 14q92 26 140.5 40t55.5 16q56 14 107 20.5t95 6.5q5 0 20 -2.5t20 -0.5q20 3 42 7 q6 0 35 -5.5t81 -15.5q11 2 24 5q29 0 48.5 -9t30.5 -25q14 -3 27 -3q26 0 47.5 -14.5t37.5 -41.5q14 -26 22 -51.5t8 -52.5q0 -53 -22.5 -100.5t-67.5 -88.5q-5 -3 -48.5 -35.5t-126.5 -90.5q-9 -6 -21 -17t-29 -23q-82 -49 -158 -94q-64 -35 -97 -59t-33 -34 q0 -20 17 -35.5t52 -27.5q51 -18 115 -41t137 -55q7 -2 17.5 -8t23.5 -13q86 -32 127.5 -78.5t41.5 -107.5q0 -89 -160.5 -169t-480.5 -152q-5 -14 -11.5 -28t-11.5 -27q-7 -11 -20 -17.5t-30 -6.5q-19 0 -30 13.5t-15 42.5q-8 7 -13 6l-57 -15q-11 6 -20.5 10.5t-19.5 9.5 q-10 6 -16 14.5t-6 18.5zM262 120l2 -10l8 -4q40 11 89 23q34 0 40.5 6.5t161.5 75.5q66 28 99 52.5t33 42.5q0 11 -9 21t-27 21q-47 30 -104 54.5t-125 44.5q-9 3 -20.5 6.5t-25.5 7.5q-22 10 -33.5 16t-16.5 6q-16 0 -27.5 -27.5t-18.5 -81.5q-4 -50 -8 -100.5t-8 -100.5 q-6 -25 -10 -53zM352 818q0 -15 6 -21t17 -6q10 0 47.5 22t103.5 66q73 48 111.5 73.5t44.5 28.5q13 16 25.5 31.5t24.5 30.5q17 21 25 37.5t8 29.5q0 24 -15 43t-45 33q-10 4 -35.5 12t-65.5 16q-33 9 -52 14t-24 5q-38 0 -61.5 -5.5t-33.5 -17.5q-8 -8 -16.5 -31 t-18.5 -63q-4 -22 -5.5 -49t-0.5 -59q-11 -26 -23 -44l5 -26q-12 -50 -17 -80t-5 -40z" />
<glyph unicode="C" horiz-adv-x="973" d="M27 486q0 8 5 49t14 114q7 14 15 34t15 45l-3 22q0 8 3.5 18.5t9.5 23.5q23 49 46 99t46 97q20 36 51.5 74t72.5 79q9 10 22 26t31 35q17 10 41.5 30.5t58.5 52.5q10 4 24 11l34 17q5 3 12.5 10t17.5 15q11 10 80 30t90 20q46 0 78 -6.5t51 -20.5l32 -6q40 -9 59 -61 t19 -150q0 -46 -1 -73.5t-3 -37.5q-6 -30 -13.5 -75.5t-19.5 -105.5q-1 -16 -13.5 -52.5t-32.5 -90.5q-21 -59 -36 -89.5t-25 -33.5q-40 -10 -86 -22q-22 0 -31 3.5t-9 11.5q0 7 3.5 22t3.5 21q-3 38 -6 77q0 14 8 55t24 105q17 70 30 110.5t21 50.5q29 27 42.5 51.5 t13.5 44.5q0 28 -13.5 49t-40.5 32q-26 6 -52.5 11.5t-52.5 13.5q-21 -8 -37.5 -12t-28.5 -7q-67 -11 -128.5 -62t-117.5 -141q-46 -78 -74 -156.5t-38 -157.5q-4 -24 -10 -59.5t-17 -83.5q9 -30 16 -55l-10 -91q0 -5 9 -20.5t28 -45.5q11 -17 20 -40t14 -52q2 -7 7.5 -15 t12.5 -13q15 -13 29 -23q43 -46 91.5 -69.5t103.5 -23.5q5 0 37.5 5t89.5 16q10 7 26.5 14t39.5 15q20 20 40 28.5t37 8.5q5 7 12.5 17t19.5 22q30 12 55 31.5t48 45.5q40 -87 40 -92q-30 -23 -74.5 -53t-104.5 -66q-54 -31 -95.5 -53.5t-69.5 -33.5q-41 -19 -87 -27.5 t-94 -8.5q-15 0 -33.5 4.5t-39.5 10.5q-26 7 -44 12t-30 6l-12 12l-29 4q-19 1 -45.5 19t-57.5 50q-30 30 -48.5 57t-26.5 49l-27 86q-14 44 -21 71t-6 35l11 45q-8 23 -12.5 38t-4.5 23z" />
<glyph unicode="D" horiz-adv-x="990" d="M60 1382q0 9 4.5 14t12.5 5q28 -5 49 -9q10 3 20 6.5t20 7.5q24 0 43 -3.5t29 -7.5q14 -7 29 -15t29 -14q12 2 32 5q6 0 11 -2q12 -8 29 -14.5t39 -11.5q24 -4 41 -8.5t27 -9.5q106 -55 185.5 -103.5t131.5 -94.5q82 -71 121 -152t39 -169q0 -140 -83 -297t-247 -330 q14 6 37 13t53 17q63 14 130 30q42 12 71 26t47 33q22 -49 38 -92q-20 -20 -53 -36.5t-77 -29.5q-12 -3 -28.5 -8t-37.5 -10q-29 -2 -69.5 -6t-95.5 -11q-78 -61 -138.5 -96t-101.5 -45l-15 -13q-34 -15 -82.5 -24.5t-114.5 -16.5q-12 3 -24.5 14.5t-28.5 32.5 q10 11 25 28.5t33 41.5q15 22 35.5 35.5t52.5 19.5q33 7 73 20q10 8 24.5 16.5t32.5 20.5q23 11 48 31t55 49q40 39 64 62.5t29 29.5q8 14 17 25.5t22 21.5q14 24 35 60.5t50 84.5q5 5 12.5 14.5t17.5 20.5q20 23 29 70t9 114q0 46 -23.5 96t-72.5 106q-41 46 -87 82.5 t-93 59.5q-36 18 -67.5 35.5t-57.5 31.5q-14 -50 -35.5 -138t-48.5 -214q-30 -142 -45 -229t-15 -117q-6 -25 -10 -50l-40 -197q-35 -68 -60 -101t-39 -33q-7 0 -13 11.5t-12 36.5l12 57q-3 6 -6 17q6 65 11 131.5t11 132.5q5 74 15 139t22 120l-12 51q7 19 12.5 47t9.5 64 q4 46 7 74.5t7 39.5q4 13 8.5 33t10.5 48q3 11 35 42.5t41 47.5q21 3 31 8.5t10 14.5q0 7 -11.5 12t-34.5 8q-11 0 -25.5 2.5t-29.5 8.5l-82 40q-26 12 -39.5 24t-13.5 25q6 20 10 40q-7 20 -11.5 33t-4.5 20z" />
<glyph unicode="E" horiz-adv-x="868" d="M60 110q0 15 1.5 50t4.5 91q0 5 6.5 21t6.5 23q-5 10 -6 16t-1 11q2 39 8.5 96t16.5 135q12 47 20 106q-2 44 -4 90q37 166 76 334q6 30 22.5 57t39.5 52q10 7 13 11q5 9 13 22.5t19 30.5q6 4 19.5 12t36.5 22q10 8 23 19t30 26q38 23 70.5 48.5t81.5 31.5q23 1 46 2.5 t44 3.5q20 4 35 5q10 2 17.5 4t13.5 2t16.5 -1.5t28.5 -4.5q14 -1 24 -1t19 1q40 -12 59 -35t19 -55q0 -69 -13.5 -102.5t-42.5 -33.5q-22 0 -50 22.5t-151 22.5q-51 -10 -101 -20q-5 -8 -11.5 -12t-11.5 -6l-35 13q-16 -6 -36 -33t-42 -74q-5 -10 -7.5 -25t-2.5 -35 q-18 -72 -36 -139q-17 -72 -27.5 -109t-12.5 -45q-3 -10 -5 -19t-2 -18q0 -13 5 -20t15 -7q9 0 43.5 33t51.5 37q21 6 42.5 13t44.5 17q9 3 47.5 8t107.5 12l28 -8l53 10l28 -13q10 -10 18.5 -24.5t15.5 -31.5q0 -60 -13 -91t-39 -31l-55 22q-68 -7 -134.5 -13.5 t-135.5 -12.5q-84 -17 -129 -55t-50 -100q-1 -13 -7 -40t-14 -67l7 -30q-9 -43 -14 -81t-5 -68q0 -10 3 -14.5t7 -2.5q48 4 77 6t41 1q26 -2 53 -4l63 5q10 2 43.5 16t60.5 14q29 0 58.5 6t56.5 16t53.5 20.5t53.5 20.5q10 3 26.5 11t38.5 21l38 -92q-11 -10 -26.5 -21.5 t-36.5 -24.5q-21 -7 -50.5 -20t-67.5 -30q-29 -18 -47.5 -27t-25.5 -9q-13 0 -47.5 -11t-90.5 -33q-30 -11 -63.5 -22.5t-69.5 -20.5l-62 13l-38 -17q-19 0 -38.5 0.5t-37.5 2.5q-29 1 -43.5 8t-14.5 20l6 38l-6 7q-34 0 -45.5 9t-11.5 42z" />
<glyph unicode="F" horiz-adv-x="861" d="M21 533q9 16 18.5 31t17.5 30q9 13 22 23t27 20q11 6 18.5 32t11.5 76q4 57 9 93t10 49q4 12 10 31q0 6 -3 19t-3 18q7 46 14 89q12 62 50 124t102 130q66 65 191 94q14 -3 25 -6l33 12q5 0 12.5 -3t19.5 -9q23 7 40 10t27 3q62 0 92.5 -16.5t30.5 -50.5q0 -19 -2.5 -43 t-8.5 -52q-7 -37 -16 -55.5t-20 -20.5q-26 12 -53 22.5t-56 22.5l-36 -14q-17 2 -37 5q-17 0 -38.5 -3.5t-44.5 -9.5q-63 -15 -73 -41.5t-34 -71.5q-8 -10 -25.5 -81t-46.5 -202q-1 -6 -7.5 -21t-6.5 -25q0 -14 5 -21.5t13 -8.5q15 7 40.5 15.5t61.5 18.5q32 4 64.5 10.5 t67.5 16.5h25h35q34 6 69 12q58 0 87 -16.5t29 -46.5q0 -6 -1.5 -30.5t-4.5 -65.5q-13 -23 -27 -47q-9 0 -46 7.5t-105 22.5q-24 -6 -52 -9.5t-58 -3.5q-19 0 -54.5 -6t-54.5 -7q-13 -10 -26.5 -14.5t-26.5 -4.5q-7 0 -31 3q-13 0 -25 -23.5t-21 -72.5l-10 -43l7 -31 l-19 -119q0 -7 1.5 -16.5t1.5 -19.5q-13 -80 -18.5 -156.5t-5.5 -152.5q0 -16 -7 -34t-22 -36h-10h-13q-24 0 -40.5 14t-22.5 44q-2 9 -3 33.5t-1 65.5q0 17 -3 53t-3 53q0 6 2.5 21t3.5 41q2 24 4 58q-2 32 -7 63q7 53 16 108q1 8 -1.5 29t-2.5 28t3.5 20.5t3.5 21.5 q0 10 -3.5 16t-10.5 6q-5 -2 -11.5 -4.5t-13.5 -5.5q-6 -1 -15 -4t-22 -7l-9 6z" />
<glyph unicode="G" horiz-adv-x="1018" d="M27 318q9 24 11 52t-2 60l20 150q24 188 94.5 334t183.5 255q38 38 64 61t33 32q22 17 48.5 34t57.5 34q16 9 36.5 18.5t48.5 19.5l93 11l31 -8l14 5q23 -7 47 -15.5t47 -17.5q8 -4 24.5 -22t42.5 -51q29 -35 34.5 -46.5t21.5 -56.5q11 -17 28.5 -61.5t17.5 -64.5 q0 -36 -54 -87.5t-85 -51.5q-20 0 -29.5 12.5t-9.5 36.5q-9 40 -14 69q-28 109 -74.5 164t-113.5 55q-34 0 -66.5 -11.5t-59.5 -34.5q-14 -11 -37 -37t-55 -65q-4 -7 -11 -16t-17 -24q-9 -17 -23.5 -40.5t-35.5 -53.5q-9 -26 -18 -48t-22 -41q-3 -4 -6 -15.5t-7 -30.5 q-7 -23 -15.5 -50t-18.5 -59q-16 -109 -23 -172.5t-7 -82.5q0 -43 7.5 -86t23.5 -86q12 -31 23 -53t21 -32q15 -15 38 -23t51 -8q40 0 76 14t67 39q9 8 36 36.5t73 77.5q10 8 24.5 22.5t31.5 32.5q19 26 35.5 52t33.5 50q21 27 46.5 40t55.5 13q41 0 61 -18t20 -54 q0 -12 -7 -33.5t-9 -33.5q-2 -18 -6 -44.5t-9 -62.5q-2 -45 -9.5 -80t-20.5 -61q-16 -34 -27.5 -109t-28.5 -110q-6 -10 -11 -31.5t-11 -54.5q-4 -21 -9.5 -36t-15.5 -24q-8 -6 -22 -13t-39 -15q-4 -23 -14 -34.5t-27 -11.5q-14 0 -21.5 12t-7.5 39q0 10 3.5 31.5t12.5 54.5 q4 16 7 43t4 66q2 20 10.5 63t24.5 106l-13 65q4 12 7 27q0 7 -3.5 10.5t-10.5 3.5q-35 -24 -58 -46q-51 -44 -86 -72t-54 -41q-40 -26 -81 -43t-84 -23l-44 9q-20 -3 -34 -6q-22 0 -47 11t-54 32q-25 20 -46.5 48t-37.5 67q-6 12 -15 48t-24 92z" />
<glyph unicode="H" horiz-adv-x="1042" d="M52 550q0 11 5.5 25t16.5 28q13 16 20.5 26.5t8.5 17.5q6 16 11.5 42t12.5 60q6 23 11 65t7 101q5 112 21 170t13 69l-6 25q2 21 6 54t11 76q9 6 20 17.5t23 28.5q69 26 75 26q36 0 54 -19t18 -54q0 -10 -5.5 -28t-13.5 -45q-9 -23 -19.5 -85t-23.5 -159 q-9 -70 -19.5 -131.5t-24.5 -114.5q-2 -7 -3 -17q0 -15 5 -21.5t15 -6.5q37 3 67 6q10 0 69 22h77q16 0 46.5 3.5t45.5 3.5q14 0 42.5 -6.5t44.5 -6.5q12 0 31 4t46 14q13 0 22 3t9 9q5 13 11.5 32t13.5 44q2 23 5.5 55t9.5 75q14 80 20.5 131t6.5 72q0 8 -2 15t-7 11 q-8 9 -18 22q7 20 15 31q23 35 39 58.5t26 33.5q16 17 38.5 33.5t53.5 32.5q17 0 24 -18.5t7 -53.5q0 -23 -8 -82.5t-23 -155.5l12 -65q-8 -23 -16 -54t-14 -68q-8 -42 -14.5 -71t-12.5 -47q-8 -31 -14.5 -57.5t-9.5 -52.5q-7 -63 -18.5 -119.5t-30.5 -108.5 q-13 -38 -39.5 -145t-67.5 -281q-18 -78 -40 -117t-48 -39q-13 0 -19 6t-8 21q-1 5 -0.5 11t0.5 35q-1 11 -6 22l20 78q-1 13 -5 28q0 35 17.5 141.5t50.5 285.5q12 59 23 129q0 12 -2 17t-8 5q-11 -5 -23 -10l-25 12q-6 -2 -24.5 -18.5t-27.5 -16.5q-19 0 -55.5 6.5 t-54.5 6.5q-22 0 -47 -11.5t-52 -34.5q-47 -7 -83.5 -22.5t-64.5 -39.5q-14 -11 -30 -24q-8 -7 -11.5 -49.5t-3.5 -116.5q0 -68 7 -100t21 -32q9 0 16 4.5t17 14.5q6 7 14 14.5t13 15.5l8 1q7 1 10.5 -4t3.5 -15q-10 -22 -19.5 -40t-16.5 -30q-31 -47 -61 -93 q-18 -24 -43 -37t-58 -13q-27 0 -40.5 73t-13.5 218q0 56 -7 97.5t-23 71.5q-15 26 -21 46t-6 34z" />
<glyph unicode="I" horiz-adv-x="433" d="M100 169v53q0 56 4.5 94.5t10.5 60.5q-2 17 -5 35q0 21 5 70t15 128q9 76 15.5 117.5t9.5 50.5q-2 17 -4.5 37t-8.5 44l-22 16l-5 12q2 28 3.5 56.5t6.5 57.5q2 36 9.5 63t15.5 47q3 5 6.5 14t9.5 19l18 72t19 70q15 34 43 55t68 27q28 15 48 22.5t32 7.5q14 0 22 -11 t8 -31q0 -8 -8 -55.5t-25 -131.5q-3 -28 -10 -66.5t-19 -91.5q-15 -59 -29.5 -129.5t-26.5 -155.5q-5 -36 -11 -71t-11 -71q-6 -41 -10.5 -77.5t-4.5 -65.5q0 -11 1.5 -21t1.5 -19q2 -11 -0.5 -29t-5.5 -43q-4 -24 -7 -43.5t-3 -29.5q0 -51 2.5 -82.5t5.5 -41.5 q7 -27 14 -58q0 -17 -45 -50.5t-65 -33.5q-12 0 -21.5 8.5t-19.5 25.5q-7 16 -11 29t-4 24q0 6 4 19t4 19q-8 30 -18 50q-2 -10 -2 4z" />
<glyph unicode="J" horiz-adv-x="618" d="M-72 484q0 65 10 97.5t30 32.5q35 0 60.5 -10t43.5 -28q10 -12 21.5 -37t26.5 -64q20 -45 29.5 -73t9.5 -37q0 -18 -24.5 -32.5t-24.5 -26.5q9 -17 15.5 -35t13.5 -33q11 -27 22.5 -39.5t23.5 -12.5q16 0 36.5 45t44.5 136q19 67 33.5 122t21.5 101q7 19 15 45.5t18 63.5 q3 8 3.5 19.5t3.5 27.5q8 50 17.5 101.5t18.5 102.5q10 60 14 111.5t4 94.5q0 36 -49 43t-49 23q0 14 17 32.5t50 40.5q10 17 29.5 27.5t44.5 18.5q13 15 33 35q6 6 16.5 12.5t23.5 12.5q20 8 35 15q23 0 35 -35t12 -105q0 -107 -13.5 -194.5t-40.5 -154.5q-3 -8 -6.5 -18 t-8.5 -22q-3 -18 -8.5 -42t-12.5 -56q-2 -11 -2.5 -25.5t-4.5 -35.5q-2 -13 -12 -44.5t-30 -80.5l4 -22q-8 -28 -21.5 -69t-32.5 -94q-6 -26 -18 -62.5t-29 -84.5q-3 -26 -6 -45q-2 -8 -13 -43t-36 -97q-7 -17 -25.5 -31.5t-50.5 -27.5q-27 -11 -51.5 -17t-46.5 -6 q-33 0 -57 14.5t-35 41.5q-39 96 -57.5 153.5t-17.5 75.5q-5 9 -14.5 32t-19.5 63q-10 36 -14.5 61t-4.5 39z" />
<glyph unicode="K" horiz-adv-x="920" d="M63 96q0 10 5 32t5 34q0 8 -3 25.5t-3 25.5t4.5 50t14.5 121q9 81 16 128t10 57q3 7 8 17t7 24l-15 57q8 46 19.5 135.5t27.5 225.5q9 80 14 124t6 50q14 41 43 68.5t74 41.5q6 4 14.5 11t20.5 16q13 2 33 -36t20 -56q0 -8 -2 -21.5t-8 -31.5q-7 -22 -11 -36t-5 -19 q-16 -55 -36 -138t-44 -196q-2 -9 -4.5 -22.5t-8.5 -32.5q-4 -17 -7 -31t-3 -24q0 -13 10 -29q30 11 96 82t170 199q106 130 159 211.5t53 114.5q0 12 -15.5 30.5t-15.5 31.5q0 26 24 43.5t73 26.5q10 1 31 17.5t36 16.5q15 -3 28 -4q17 9 33 19q15 -15 21.5 -33.5 t6.5 -42.5q0 -48 -11.5 -84.5t-35.5 -58.5q-7 -6 -15 -14t-16 -18q-16 -34 -44 -75t-67 -90q-86 -106 -158 -186t-130 -134q-24 -23 -36 -39.5t-12 -28.5q17 -33 30 -61q24 -58 50.5 -113t52.5 -111q44 -84 81.5 -125.5t68.5 -41.5q5 0 30 11.5t66 32.5q9 13 38.5 31.5 t30.5 24.5q41 -87 41 -92q-20 -21 -54 -47t-83 -59q-52 -36 -87.5 -52t-54.5 -16q-41 0 -73.5 21t-55.5 66q-3 6 -6.5 13.5t-8.5 15.5q-25 24 -48 48q-11 12 -42 57.5t-78 124.5q-21 37 -45 75t-50 77q-7 -10 -15.5 -46.5t-16.5 -99.5q0 -10 -6.5 -33t-6.5 -34 q0 -5 2.5 -16.5t2.5 -16.5q0 -32 -9 -97t-9 -97q0 -26 -8.5 -38t-28.5 -12q-21 2 -33 6q-15 -4 -28 -6q-11 0 -17.5 13.5t-6.5 42.5z" />
<glyph unicode="L" horiz-adv-x="642" d="M63 165q0 44 25 140t25 128q0 7 -2 19.5t-2 20.5q0 28 19.5 127.5t19.5 138.5q0 19 -14.5 27.5t-14.5 25.5q0 24 4 54t14 66q8 29 15 58.5t14 57.5q7 33 14.5 67t12.5 66q6 22 19 54t31 73q9 20 16 37.5l15 37.5q8 16 23 28.5t37 22.5q18 7 32 10.5t19 3.5 q27 0 39.5 -18.5t12.5 -56.5q0 -12 -1.5 -27.5t-7.5 -35.5q-4 -21 -7.5 -36t-5.5 -24q-1 -24 -3 -44t-5 -37q-6 -12 -16 -29q-7 -47 -11.5 -78.5t-4.5 -44.5q0 -42 -21.5 -105.5t-21.5 -96.5q0 -14 -5 -36.5t-15 -53.5q-11 -42 -17.5 -65t-8.5 -28q-2 -15 -4.5 -35t-7.5 -47 q-23 -109 -34.5 -180.5t-11.5 -107.5q0 -33 7 -51t21 -18q63 0 127.5 14t134.5 41q8 1 15.5 4t15.5 6q12 14 18 26q13 8 23 16.5t17 17.5q40 -87 40 -92q-13 -18 -24 -38t-24 -41q-12 -18 -31 -31t-44 -22q-36 -14 -68 -27.5t-58 -26.5q-29 -14 -62.5 -18.5t-64.5 -8.5 q-22 -6 -43.5 -7.5t-39.5 -1.5q-15 0 -25 1.5t-17 5.5q-9 6 -17.5 12t-16.5 11q-17 10 -26 15q-12 7 -17.5 40t-5.5 96z" />
<glyph unicode="M" horiz-adv-x="1216" d="M60 112q6 31 12 60q4 60 7 113q1 11 7.5 37t6.5 39q0 7 -3 20.5t-3 20.5q0 55 17.5 163t17.5 164q-3 23 -7 46q5 36 16 90t25 126q-3 20 -7 42q0 -9 3 14t8 79q8 11 11.5 19.5t6.5 15.5q-9 11 -13.5 18.5t-4.5 12.5q8 61 15 116q1 15 17.5 34t45.5 41q23 19 45 32t42 21 q27 9 32 15t11 6q16 0 24.5 -16t8.5 -48q0 -17 -8.5 -47t-8.5 -44q0 -6 1.5 -46t4.5 -115q1 -54 15.5 -115t37.5 -127q31 -86 67 -128.5t79 -42.5q34 0 90 44t132 132q58 68 103.5 127t73.5 108q26 44 61 79t80 64q14 8 23 13t14 5q18 0 27.5 -27t9.5 -80q-6 -49 -10 -97 q-9 -75 -26.5 -156t-45.5 -168q-14 -44 -24 -77t-14 -56q-2 -13 -5.5 -32.5t-7.5 -45.5q-10 -25 -22 -50q-10 -20 -16.5 -48t-11.5 -65q0 -7 -1 -18t-2 -23q-23 -102 -47 -198q-2 -9 -9 -23q-13 -4 -29.5 -17t-34.5 -36q-18 -20 -30 -29.5t-18 -9.5q-8 0 -13 5t-5 17 q1 8 3 13q14 34 24.5 98t19.5 158q1 20 16 108t44 244q4 25 10.5 61.5t16.5 83.5q7 24 11.5 41.5t4.5 25.5q0 10 -3.5 14.5t-10.5 4.5q-6 0 -22 -15.5t-40 -46.5q-14 -17 -28.5 -36t-30.5 -37q-27 -28 -50 -53l-74 -74q-10 -6 -24.5 -15t-34.5 -21q-19 -30 -60.5 -51.5 t-76.5 -21.5q-42 0 -80.5 26.5t-74.5 81.5q-16 27 -31.5 54t-33.5 54l-5 -1q-5 -6 -18.5 -81t-34.5 -220q-23 -149 -35 -234t-12 -110q-2 -34 -12.5 -52.5t-32.5 -21.5q-11 -1 -31 -5.5t-48 -11.5q-5 1 -9 3.5t-4 7.5l6 37z" />
<glyph unicode="N" horiz-adv-x="1071" d="M6 -30q0 14 5 44t15 76q11 52 17.5 81.5t8.5 37.5q4 24 9 63t11 90q2 13 6.5 32.5t11.5 45.5q5 20 20 108.5t39 246.5q26 155 50 312l-16 65q6 20 12 40.5t11 40.5q6 14 20.5 21.5t38.5 7.5q9 0 27.5 4t26.5 4q9 0 24 -14t21 -16q7 5 17.5 17t25.5 32q13 16 25 26t26 14 q16 -8 28 -13q7 -4 9.5 -9t2.5 -14q0 -5 -5 -21.5t-15 -44.5q-11 -30 -17 -50t-8 -31q-15 -23 -23.5 -41.5t-8.5 -34.5q0 -20 12 -59.5t35 -98.5q32 -80 65 -167q30 -96 63 -185.5t69 -171.5q37 -86 61 -128t36 -42q10 0 14.5 11.5t4.5 36.5q0 10 2.5 26t8.5 35q9 27 17 61 q10 52 18.5 91t14.5 67q4 18 9 76t10 157q0 10 3.5 28t6.5 41q4 23 6 39.5t2 29.5q0 23 -5 68.5t-5 68.5q15 63 28 123q11 52 21 86.5t17 52.5q16 36 39 62.5t51 43.5h8q10 0 13.5 -4t3.5 -13q-5 -21 -9 -32q3 -18 6 -38q-3 -25 -7 -42q-2 -11 -4 -33.5t-2 -54.5 q0 -12 -3 -51.5t-11 -105.5q-6 -94 -14.5 -187t-17.5 -186q-8 -112 -23 -204.5t-36 -165.5q-5 -44 -18.5 -98t-34.5 -117l-31 -50q-3 -4 -63 -25.5t-67 -21.5q-15 0 -45 39.5t-71 120.5q-39 73 -62 120.5t-29 71.5q-2 9 -6 23t-9 32q-20 44 -50.5 109t-70.5 154 q-7 22 -17.5 42.5t-25.5 43.5l-7 -3q-7 -20 -14 -50t-16 -72q-10 -27 -21 -48q-15 -58 -34 -126t-41 -146q-6 -26 -12 -54t-14 -58l-18 -33q-4 -30 -9 -59q-7 -23 -17.5 -55.5t-25.5 -77.5q-3 -23 -14.5 -34.5t-31.5 -12.5q-2 -4 -8 -8.5t-20 -8.5h-3q-8 1 -12 11 q-5 12 -5 36z" />
<glyph unicode="O" horiz-adv-x="1086" d="M33 587q0 12 5.5 36t5.5 37t7.5 31t22.5 41q21 30 31.5 47t11.5 22q5 11 13.5 29t19.5 41q10 11 23 47.5t30 96.5q8 16 17 38.5t22 53.5q4 23 15 54t28 69q21 36 44 71t66 52q17 -11 26 -22t9 -21q0 -25 -22.5 -66.5t-22.5 -56.5q0 -8 9 -15q8 4 29 24t55 54 q28 26 50.5 42.5t42.5 20.5q13 5 33 9t45 13q13 7 21 14q7 6 22 12l15 -3q9 -9 50 -18.5t52 -9.5q9 -5 21 -16t31 -24q40 -24 74.5 -70.5t62.5 -115.5q26 -63 39.5 -120t13.5 -110q0 -167 -42 -290t-127 -202l-19.5 -19.5t-28.5 -27.5v-11q-2 -10 -11.5 -21.5t-26.5 -26.5 q-37 -34 -75 -68.5t-78 -67.5q-50 -43 -95 -68t-87 -35q-18 -16 -44.5 -24.5t-64.5 -8.5q-56 0 -91 7.5t-50 21.5q-9 9 -21 18t-28 23q-17 13 -32 47.5t-27 89.5q-8 41 -12.5 79.5t-4.5 71.5q0 10 5 33t4 35q0 23 -2 40q0 18 11 57t11 62q0 5 -6 15q-16 -18 -23 -33 q-6 -10 -14 -15t-15 -5q-11 0 -17.5 9t-6.5 27zM264 411q0 -127 39 -189.5t118 -62.5q37 0 83 19.5t100 59.5q46 34 81 68.5t58 70.5q10 14 31.5 59t59.5 123q25 57 39 115.5t14 120.5q-6 30 -13 59l7 43q-10 12 -17 22q-3 8 -5 13q-31 108 -84 162.5t-131 54.5 q-24 0 -49 -6t-51 -17l-97 -43q-10 -5 -22.5 -16t-27.5 -30l-46 -57q-22 -26 -39 -95t-30 -180q-10 -85 -14 -158.5t-4 -135.5z" />
<glyph unicode="P" horiz-adv-x="906" d="M9 289q0 12 48.5 35.5t48.5 62.5q0 11 -4.5 32t-4.5 31q9 58 20 117q2 6 5 36t8 86q3 17 9 43t13 60l-7 36l58 318q-4 14 -18.5 37.5t-36.5 59.5q-23 33 -34 51.5t-11 25.5q0 28 64.5 92.5t94.5 64.5q22 -9 32 -18h30q27 -14 55.5 -26t55.5 -25q81 -37 101 -59.5 t64 -50.5q6 -8 24 -26.5t49 -46.5q4 -3 10 -11t13 -17q43 -51 72.5 -94t44.5 -80q19 -45 28.5 -96t9.5 -111q0 -111 -30 -187t-93 -113q-6 -5 -17 -11.5t-22 -14.5l-13 -13q-17 -19 -56.5 -40.5t-103.5 -46.5q-85 -33 -179 -72q-26 -13 -44.5 -21t-28.5 -8q-29 0 -35 -4 t-11 -80q-3 -49 -6 -96q0 -17 10.5 -39.5t32.5 -48.5q-9 -20 -20.5 -39t-28.5 -41q-18 -27 -37 -40.5t-36 -13.5q-33 0 -48.5 35t-15.5 105q0 22 7 55.5t21 82.5l-5 58q-13 6 -25.5 13t-24.5 15q-18 8 -25.5 18t-7.5 20zM255 418q0 -11 4.5 -16t12.5 -5q10 0 36 9t67 31 q26 14 52 26t53 25q11 6 25.5 15.5t31.5 22.5q24 18 38 29.5t18 14.5q43 30 65 75t22 107q0 37 -8.5 75t-25.5 78l-2 24q-2 5 -7 11.5t-11 14.5q-6 6 -13 16t-13 26q-16 31 -58 77t-112 106q-8 7 -18 16.5t-22 20.5q-19 9 -45 20.5t-60 27.5q-6 0 -8.5 -3t-2.5 -9 q118 -123 118 -182q0 -18 -38.5 -155.5t-52.5 -166.5l8 -42q-27 -101 -40.5 -173.5t-13.5 -115.5z" />
<glyph unicode="Q" horiz-adv-x="1037" d="M-7 337q0 7 4 19.5t6 18.5l-4 10q4 35 9 68.5t9 67.5q10 48 26 72t39 24q10 0 17 -2.5t11 -10.5l2 -4q-2 -6 -4.5 -15t-5.5 -22q4 -14 6 -37t2 -55q0 -6 4.5 -21t11.5 -38q24 -70 38 -110.5t19 -50.5q26 -49 58.5 -72.5t70.5 -23.5q23 0 34 2.5t11 10.5 q-114 156 -169.5 275.5t-55.5 205.5q1 34 1 64q0 10 -4 27.5t-4 25.5q5 53 12 98q18 114 76 213.5t159 185.5q43 37 78.5 63t62.5 39q40 21 80.5 32t83.5 11q81 0 142.5 -27.5t107.5 -82.5q43 -52 63.5 -117t20.5 -147q0 -19 -1.5 -43t-4.5 -53q-4 -39 -6 -62.5t-4 -33.5 q-1 -19 -6 -44t-14 -53q-10 -33 -16.5 -57.5t-7.5 -38.5q-1 -10 -8.5 -28t-20.5 -41q-10 -17 -20 -35t-20 -35q-8 -19 -22.5 -47t-36.5 -62q-32 -39 -78 -98.5t-109 -137.5q-2 -9 11 -23.5t39 -35.5q7 -6 18.5 -18t24.5 -29q16 -22 46 -45t74 -47q13 -13 34 -29.5t48 -37.5 q29 -19 43 -33.5t14 -22.5l-1 -10q-17 -10 -30 -26.5t-49 -30.5q-9 0 -22.5 1t-31.5 6q-33 23 -59.5 28.5t-39.5 17.5q-15 7 -35 20t-47 31q-30 24 -75 62t-104 93q-11 11 -33 23q-8 0 -29 -22.5t-168 -35.5q-16 6 -39 12t-53 11q-9 8 -19.5 18t-25.5 21q-7 3 -14.5 8.5 t-20.5 14.5q-29 16 -51 67.5t-40 135.5q-4 23 -8 48zM281 858q0 -57 6.5 -106.5t20.5 -91.5q26 -77 38.5 -118t14.5 -48q11 -14 19 -21q41 -65 83 -126q33 -51 55.5 -76.5t34.5 -25.5q34 0 78.5 51.5t100.5 154.5q51 95 80.5 166.5t35.5 120.5q11 83 21 171q-5 18 -10 33 q-3 10 -5 24t-6 34q-22 106 -82 159.5t-157 53.5q-65 0 -122 -28.5t-107 -86.5q-49 -55 -74 -114.5t-25 -125.5z" />
<glyph unicode="R" horiz-adv-x="946" d="M46 498q0 22 6.5 38.5t19.5 26.5q33 21 61 40q7 4 9.5 13.5t2.5 26.5v21.5v21.5q3 89 5 185v22t-2 39q-2 18 -1 33.5t1 28.5q-6 20 -10.5 34.5t-4.5 27.5q0 12 2 37.5t2 36.5q0 14 -2.5 39t-2.5 38q0 36 16.5 69t50.5 65q33 28 67.5 42.5t70.5 14.5q17 0 50.5 -2.5 t52.5 -2.5q13 0 71 -22q23 -2 41 -5.5t29 -7.5q25 -12 39 -18.5t20 -7.5q17 -6 29.5 -10t20.5 -10q13 -6 30.5 -14t39.5 -18q36 -18 67.5 -42t59.5 -52q32 -36 48 -70.5t16 -68.5q0 -10 -1.5 -28.5t-5.5 -41.5q-3 -29 -30 -62.5t-78 -73.5q-45 -35 -84 -58.5t-72 -33.5 q-13 -9 -20 -17q-10 -10 -42 -28t-87 -45q-100 -49 -142 -64.5t-42 -33.5q0 -20 28.5 -53.5t85.5 -82.5q37 -31 76.5 -60.5t78.5 -59.5q17 -14 44 -36.5l63 -52.5q26 -20 54.5 -40t61.5 -40q22 -17 49 -37t62 -43q20 -12 31 -43.5t13 -81.5l-9 -26l-10 -5q-10 0 -26.5 8.5 t-41.5 24.5q-5 3 -45.5 22t-116.5 54q-42 18 -77 40.5t-64 47.5q-17 15 -43.5 33t-62.5 39q-37 21 -64 40t-43 32q-54 44 -88 67t-47 23q-10 -14 -11 -29q-12 -47 -25.5 -118.5t-29.5 -166.5q0 -17 -6 -25.5t-18 -8.5q-39 0 -59 19t-20 57q0 51 6.5 107t21.5 118 q5 27 7.5 48.5t2.5 39.5q0 46 -39.5 79t-39.5 47zM223 1110q0 -34 5 -51.5t14 -15.5q19 14 36 27.5t44 13.5q12 0 29.5 -26.5t17.5 -39.5q0 -7 -5 -32t-16 -68q-23 -97 -26 -121.5t-13 -76.5q-4 -13 -8 -34q0 -9 3.5 -13t9.5 -4q199 100 206 104q8 2 17 5.5t17 7.5l15 19 q58 37 120 79q39 30 58 59t19 58q0 37 -43 73t-129 69q-73 29 -133 42.5t-109 13.5q-64 0 -96.5 -22.5t-32.5 -66.5z" />
<glyph unicode="S" horiz-adv-x="708" d="M6 16q0 30 29 58t85 53q112 52 221 105q16 0 23 -6.5t7 -16.5q0 -27 -38.5 -45.5t-38.5 -26.5q7 -10 12 -10q13 0 57.5 39t43.5 49l-5 23l2 4q26 23 38.5 41t12.5 29q0 25 -25 67t-75 101q-38 46 -76 82.5t-73 64.5q-14 12 -24 23.5t-16 21.5q-11 20 -17.5 33t-11.5 17 q-5 6 -13.5 14.5t-20.5 19.5q-21 22 -32.5 61t-11.5 97q0 38 10.5 73.5t30.5 63.5q3 6 6 14t7 18q23 47 78 101.5t144 115.5q12 6 29 16t38 26q12 10 26.5 18t34.5 15q27 11 61 24q50 26 83 38t50 12q33 0 49.5 -20t16.5 -58q0 -42 -6.5 -68.5t-17.5 -35.5 q-118 -94 -190 -141.5t-101 -47.5q-14 0 -22 8t-8 24q0 27 45 59.5t44 49.5l-9 6q-5 0 -11.5 -3t-13.5 -8q-88 -71 -132.5 -127.5t-44.5 -98.5q0 -33 11.5 -67t33.5 -70q16 -25 46.5 -63.5t77.5 -92.5q65 -75 100 -116t39 -43q20 -26 34 -52t19 -50q5 -19 7 -47t2 -68 q0 -23 7 -26.5t23 -3.5q6 0 9.5 2.5t7.5 6.5l40 -92q-14 -11 -61.5 -19t-123.5 -14q-88 -86 -175.5 -143t-173.5 -84q-20 -6 -46 -13q-16 0 -35 6.5t-42 18.5q-24 15 -37 29t-13 29z" />
<glyph unicode="T" horiz-adv-x="569" d="M-87 1180q0 6 5 21t16 39q2 35 5 58t7 35q8 22 24.5 37t39.5 23q46 15 86 20q22 3 43 3q16 0 31 -2q41 12 89.5 18t107.5 6q11 0 32.5 -3.5t34.5 -3.5q19 -3 29 -6q11 -3 30 -7l28 8q9 -1 19.5 -7.5t25.5 -14.5q8 5 23 12q15 0 24.5 -11.5t12.5 -32.5v-31.5t-2 -32.5 q-1 -8 1 -25t2 -26q0 -11 -5 -16t-13 -5q-38 0 -75 6.5t-74 19.5q-32 -6 -56 -9q-19 -2 -28 -6t-9 -10q4 -7 11 -15t17 -15q7 -5 16 -21.5t19 -44.5q4 -11 5.5 -21t1.5 -19q0 -21 -4 -52.5t-9 -51.5q-9 -39 -14 -64.5t-8 -38.5q-2 -10 -3 -24t-2 -32q-1 -15 -8 -37.5 t-14 -51.5q0 -13 -3 -30t-8 -39q-3 -13 -9.5 -29.5t-12.5 -38.5q2 -15 3 -31q-4 -28 -8 -58q-6 -43 -12 -87t-11 -85q-6 -12 -13 -27q0 -7 2.5 -21.5t2.5 -23.5q0 -11 -4 -32.5t-4 -31.5q0 -19 -1 -59t-1 -60q5 -17 9 -33q-3 -14 -6.5 -22.5t-9.5 -13.5q-18 -11 -33 -18 q-10 -10 -16.5 -16t-11.5 -6q-22 0 -31 6t-9 16q2 33 7 64q-2 4 -4.5 12t-7.5 20q-5 78 -13 160q3 59 3 119q0 28 2.5 70.5t9.5 98.5t10 98t3 69q0 12 2.5 30.5t5.5 45.5q3 23 6 41.5t3 33.5q0 8 -1 17t-2 16q10 25 15 40.5t5 20.5q-4 13 -9 26q6 14 13 50.5t15 95.5v29 t1 41l-6 18q-4 2 -14.5 5t-26.5 5l-13 -9q-13 -3 -26.5 -6t-28.5 -7q-104 -29 -206 -57q-8 0 -13 6.5t-5 17.5z" />
<glyph unicode="U" horiz-adv-x="1032" d="M106 908q0 62 7 160t20 230q6 48 21.5 73t41.5 25q9 0 17.5 -12t18.5 -36q23 -22 46 -40q18 -16 27 -39.5t9 -55.5q0 -29 -12.5 -82.5t-12.5 -80.5q0 -52 -3.5 -87.5t-10.5 -54.5l-11 -32q4 -30 8 -67q-3 -57 -4 -119q0 -61 10 -125.5t27 -129.5q24 -88 58.5 -132.5 t77.5 -44.5q22 0 40.5 10.5t35.5 32.5q13 18 25 37t24 37q13 16 28 40.5t33 58.5q17 60 38 121t42 123q5 20 13 51.5t16 72.5q19 50 37.5 139t41.5 216q8 20 19.5 51t26.5 72q4 15 15 47t31 81q8 24 29 36.5t52 12.5q19 0 27.5 -24.5t8.5 -74.5q0 -95 -23.5 -232.5 t-73.5 -314.5q-3 -16 -9.5 -40.5t-15.5 -55.5q-1 -19 -4.5 -43.5t-9.5 -56.5q-16 -56 -26.5 -120t-16.5 -133q0 -10 -3.5 -30t-9.5 -48t-8 -50t-2 -41q3 -27 6 -51q13 -14 19.5 -23.5t6.5 -15.5q-6 -18 -20.5 -39t-37.5 -45q-24 -27 -47 -41t-42 -14q-18 0 -35 22.5 t-17 42.5v8q4 10 7 23q0 5 -2.5 10.5t-4.5 14.5l6 15t8 23q-2 5 -4.5 12t-7.5 17q2 6 4 14.5t6 21.5q0 8 -2 20q1 7 3 20.5t5 33.5q4 17 6.5 28.5t2.5 17.5q0 7 -2.5 13t-6.5 8q-6 -2 -16.5 -15t-23.5 -36q-16 -27 -27.5 -43.5t-15.5 -22.5l-4 -14q-27 -37 -48 -61.5 t-32 -34.5q-19 -17 -45.5 -31t-63.5 -24q-19 -4 -35 -10q-38 0 -67 10t-44 28q-61 71 -91 159t-30 196q0 21 -10 66t-10 68q0 13 2.5 40.5t2.5 40.5q0 37 -4.5 111.5t-4.5 111.5z" />
<glyph unicode="V" horiz-adv-x="861" d="M69 1239q11 60 19 96t12 46q15 35 42.5 56.5t68.5 29.5q14 10 24.5 16t19.5 6q11 0 20.5 -10.5t15.5 -30.5q5 -17 6.5 -33t0.5 -29q-4 -37 -8 -85t-6 -107q-2 -7 -9 -22.5t-7 -24.5q0 -10 7 -32t7 -32q0 -6 -2 -22t-6 -61q4 -23 10 -48q0 -11 -3 -36t-3 -37q0 -7 2 -10.5 t8 -27.5q1 -22 4.5 -50.5t8.5 -67.5l12.5 -85t14.5 -118l1 -33q0 -7 4 -16.5t12 -19.5q6 -27 13 -58t14 -64q2 -11 7 -17t11 -6q22 22 35 45q9 11 23.5 40.5t34.5 79.5q5 13 15 31t23 41q13 20 36 73t56 140q27 72 45.5 122t26.5 77l5 19q-4 17 -8 30q5 29 11 56.5t10 56.5 q10 43 24.5 69t31.5 33l64 27q11 4 31 10q11 0 16 -10t5 -29q0 -7 -5 -40t-14 -93q-2 -14 -3.5 -29t-4.5 -30q0 -10 -7 -23.5t-18 -31.5q1 -3 1 -8q0 -24 -22 -89q-26 -77 -83 -208q-47 -109 -83 -191t-63 -135q-14 -28 -32 -60.5t-37 -67.5q9 -21 17 -38q-1 -14 -4 -20 q-14 -16 -35 -41t-49 -56q-19 -9 -41 -20q-15 -20 -25 -35q-19 -11 -35.5 -16.5t-30.5 -5.5q-25 0 -46.5 24t-21.5 49q0 17 23 42t26 33l-3 10l-10 13q-4 25 -11 45.5t-17 39.5q-18 30 -32 73.5t-26 99.5q-5 26 -7.5 41.5t-2.5 20.5q-4 7 -9 20t-11 30q-5 33 -12.5 83 t-15.5 117q0 8 -2.5 19t-7.5 27q-6 15 -8 26t-2 20q1 29 1 57q-6 22 -4 26l8 39q-10 14 -16.5 34t-6.5 47q0 10 3 19t7 17q-5 16 -8 32.5t-3 35.5q-10 15 -14 29q-3 9 -3 17q0 5 1 9l6 40q-4 15 -7 25z" />
<glyph unicode="W" horiz-adv-x="1225" d="M82 911q0 113 13.5 236t40.5 259q7 35 25 53t45 18q22 0 37.5 -6.5t25.5 -16.5q9 -9 17.5 -23.5t21.5 -35.5q16 -29 23 -44.5t7 -20.5q-7 -58 -13 -111q-4 -56 -13 -115q-4 -14 -7 -31q4 -25 6.5 -53t3.5 -56q2 -22 2 -49.5t-2 -62.5q-1 -44 -2 -71.5t-1 -37.5 q0 -7 1 -16t4 -20q2 -14 7 -35v-63q1 -38 24 -176t30 -148q7 4 12 6l78 140q6 17 15.5 43.5t22.5 61.5q45 88 85.5 229.5t75.5 335.5q12 56 31.5 89t43.5 40l89 32q23 -9 33 -24.5t10 -40.5q0 -31 -11 -100.5t-34 -174.5q-1 -23 -5.5 -57t-10.5 -80q-8 -36 -12.5 -57 t-4.5 -26q0 -26 1 -59.5t2 -75.5q2 -51 2 -85v-48q1 -67 4.5 -101.5t9.5 -34.5q10 0 31.5 43t52.5 130q25 66 45.5 125t36.5 111q10 11 16 31t8 51q16 43 31 90.5t32 98.5q10 30 21.5 75t27.5 107l-13 42q3 12 9 30t11 43q27 43 48.5 65t34.5 22q10 0 14 -10.5t4 -33.5 q0 -61 -2.5 -94.5t-6.5 -43.5q-7 -14 -12 -26.5t-8 -20.5l13 -49q-6 -14 -14 -50.5t-18 -95.5q-10 -56 -18 -89t-15 -44q-3 -19 -13 -46t-24 -64q-6 -13 -13 -40.5t-17 -65.5q-7 -23 -18 -54.5t-25 -76.5q-10 -13 -19.5 -35t-17.5 -55q-5 -16 -18.5 -46.5t-33.5 -78.5 q-21 -50 -36 -77t-21 -30l-24 -14q-8 -10 -20 -13.5t-31 -2.5q-18 -11 -31.5 -17t-21.5 -6q-38 0 -61 30t-33 92q-3 43 -6.5 86.5t-7.5 88.5q-2 22 -7.5 58.5t-17.5 87.5q-21 -40 -43.5 -82.5t-46.5 -89.5q1 -9 -14 -44t-42 -97q-28 -65 -60 -131q-23 -39 -49.5 -58.5 t-59.5 -19.5q-16 0 -31 25t-30 76q-9 31 -17.5 62.5t-17.5 64.5q5 14 7 23q-7 14 -14.5 38t-16.5 58q-3 21 -8 54t-11 78q-1 14 -2 28.5t-2 28.5q-1 11 -5.5 24t-13.5 30q-2 6 -3.5 29.5t-3.5 65.5q-1 34 -6 56.5t-15 29.5l-27 20q-6 14 -9.5 43.5t-3.5 72.5z" />
<glyph unicode="X" horiz-adv-x="828" d="M-77 60q0 17 0.5 51t0.5 49q0 36 23 84t67 108q36 43 71 85.5t68 83.5q103 134 155.5 211t52.5 97q0 13 -16.5 54t-48.5 108q-24 52 -41 86t-26 50q-4 3 -10 11t-14 18q-7 14 -18.5 35.5t-27.5 50.5q-9 11 -16 22t-16 22q-11 16 -16.5 28t-5.5 21q0 17 10 26.5t30 9.5 q14 0 42.5 -12.5t45.5 -12.5q62 -61 105 -117.5t69 -105.5q3 -7 8 -18t12 -22q27 -45 61 -86q9 7 18.5 19t19.5 29q12 15 26.5 37t34.5 55q7 20 18.5 41t26.5 42q7 16 18.5 38t26.5 52q6 6 14 15.5t19 22.5q15 23 30 46.5t29 47.5q27 40 43 61.5t22 21.5q12 0 18.5 -7.5 t6.5 -23.5q0 -30 -1.5 -53t-3.5 -40q-5 -9 -11.5 -26t-13.5 -42q-28 -50 -59.5 -105.5t-66.5 -117.5q-24 -44 -52.5 -92t-66.5 -100q-17 -24 -25 -41.5t-8 -25.5q0 -5 65.5 -173t65.5 -205q11 -12 17.5 -30t7.5 -42q3 -29 7 -47.5t8 -25.5q13 -30 18.5 -51t5.5 -31 q0 -14 -0.5 -34t-5.5 -44q-8 -19 -16 -39t-17 -36q-11 -20 -23 -35.5t-27 -27.5q-23 -17 -40 -25.5t-27 -8.5q-13 0 -19.5 14t-11.5 26q-10 10 -19 20t-19 21q-7 9 -10.5 22.5t-3.5 32.5q0 16 7 46.5t20 73.5q-3 22 -8.5 56t-15.5 79q-4 23 -13.5 57t-22.5 79 q-7 15 -15.5 39t-18.5 55q-5 19 -16 38q-19 -21 -29 -41q-5 -11 -23 -35.5t-50 -61.5q-7 -9 -22.5 -34t-38.5 -66q-29 -43 -55 -78q-18 -25 -28 -46.5t-15 -37.5q3 -4 6.5 -6.5t8.5 -3.5q5 4 15 10t22 14h8q13 3 19.5 -5.5t8.5 -25.5q-2 -6 -7.5 -17.5t-15.5 -31.5 q-10 -19 -122 -109t-126 -90q-29 0 -43 17t-14 53z" />
<glyph unicode="Y" horiz-adv-x="755" d="M42 1253q0 37 11 57t33 25q7 0 15.5 0.5t18.5 0.5q12 0 73 32q28 0 45 -14.5t23 -41.5q3 -14 4 -39.5t1 -60.5q0 -19 -3.5 -55t-3.5 -53q0 -6 1.5 -13.5t3.5 -20.5q1 -33 7.5 -80.5t16.5 -108.5q6 -36 18 -89.5t28 -124.5q8 -10 16.5 -23.5t16.5 -30.5l7 -4 q6 0 29.5 45.5t64.5 136.5q6 12 14 31.5t19 45.5q5 6 11 16t14 24q5 17 15 43.5t25 62.5q13 23 29.5 56.5t36.5 79.5q1 6 37.5 65.5t105.5 170.5q8 13 17 20.5t17 7.5q22 0 32 -14t10 -41q0 -51 -4.5 -95t-15.5 -78q-15 -43 -28.5 -84.5t-27.5 -84.5q-15 -17 -20 -26 q-2 -21 -5 -41q-1 -8 -7.5 -15t-16.5 -16q-3 -10 -8 -23.5t-12 -31.5q-26 -51 -69.5 -121.5t-105.5 -162.5q-1 -16 -1 -30l-56 -120q-29 -65 -50.5 -124.5t-32.5 -113.5q-6 -30 -9.5 -49.5t-3.5 -27.5q0 -10 12 -30.5t12 -25.5q0 -22 -58 -57q-57 -34 -72 -34h-1 q-15 3 -31.5 5.5t-30.5 5.5q-21 5 -32 13.5t-11 21.5q0 10 7 39q9 44 22.5 80.5t33.5 67.5l3 4q-3 4 -4.5 10t-4.5 13q5 18 14 44t24 60q10 16 20 42.5t18 60.5q-35 29 -58 61t-32 67q-8 17 -21 43.5t-28 63.5l-74 255q-3 30 -8.5 71.5t-17.5 94.5l9 23l-17 22 q0 8 -1.5 22.5t-4.5 35.5q-3 20 -3.5 34.5t-0.5 24.5z" />
<glyph unicode="Z" horiz-adv-x="863" d="M-54 80q0 49 17.5 93.5t53.5 84.5q10 16 26.5 36t38.5 45q15 12 39 37.5t58 70.5q23 28 47.5 59t47.5 61q11 14 27.5 37t37.5 53q13 12 29.5 30t36.5 43q28 36 59.5 82.5t66.5 102.5q56 86 83.5 140.5t27.5 77.5q0 13 -16 26.5t-49 27.5q-28 12 -49.5 18.5t-36.5 7.5 l-76 3q-13 4 -27 8.5t-31 8.5l-49 -16q-19 6 -34.5 9t-30.5 3q-60 -4 -111 -10l-27 10q-5 4 -7.5 15.5t-7.5 30.5q7 13 18 33.5t24 46.5q4 14 5 21q12 35 40.5 53.5t77.5 18.5q24 0 43.5 -2t35.5 -4l14 -11q20 5 33 9.5t20 4.5q57 -11 119 -23q17 -1 42 -4.5t57 -9.5 q14 -9 35.5 -19t50.5 -23q38 -14 67 -38.5t46 -54.5q16 -26 23 -49.5t7 -44.5q0 -33 -8 -61t-24 -51l-13 -39q-2 -8 -9.5 -22t-18.5 -28q-17 -23 -37 -47q-5 -12 -18 -27.5t-33 -32.5q-4 -2 -9.5 -9t-10.5 -17q-11 -23 -34 -54t-57 -72q-45 -52 -70.5 -83.5t-35.5 -44.5 q-12 -10 -24 -21t-26 -26l-13 -30q-5 -13 -35 -51.5t-84 -103.5q-53 -60 -78 -98t-25 -52q0 -7 8 -10l39 7q14 -3 27 -5q25 4 50 5l35 -10q28 9 49.5 12.5t36.5 3.5q51 0 95 7t81 22q20 2 50 8.5t69 16.5q11 5 23 9t25 10q16 3 30.5 6t24.5 7q6 -13 13.5 -30t17.5 -39 q5 -7 7 -12.5t2 -10.5q-60 -28 -126 -51t-139 -43q-19 -5 -45.5 -10.5t-60.5 -14.5q-27 -10 -66.5 -23.5t-91.5 -27.5q-33 -9 -66.5 -17t-66.5 -15q-41 -10 -75.5 -15t-58.5 -5q-63 0 -94.5 24t-31.5 72z" />
<glyph unicode="[" horiz-adv-x="726" d="M185 33v34.5v40.5q2 54 10 124.5t16 149.5q7 65 14.5 135t17.5 138q7 48 18 90.5t18 87.5q14 85 27.5 164t25.5 144q7 34 10 65t9 55q9 38 21 62t18 29q24 20 65.5 37t97.5 35q51 15 95 21.5t81 6.5q27 0 39.5 -10t12.5 -31q0 -35 -23 -52.5t-68 -23.5q-63 -7 -106.5 -18 t-65.5 -29q-4 -3 -15 0t-14 -6q-2 -4 1.5 -19.5t2.5 -20.5q-21 -56 -46.5 -177t-52.5 -307q-10 -74 -17.5 -142t-14.5 -128q-15 -128 -26 -225.5t-11 -163.5q0 -26 7 -52q20 -14 46.5 -21t58.5 -7q40 0 99.5 12.5t67.5 12.5q9 0 10.5 -2.5t-0.5 -8.5q-27 -82 -63.5 -101 t-169.5 -22q-67 -2 -113.5 8t-71.5 33q5 24 4 39q0 9 -7.5 19.5t-7.5 23.5z" />
<glyph unicode="\" horiz-adv-x="777" d="M-54 1477q0 10 6 15t16 5q19 0 42 -6.5t49 -19.5q21 -4 41 -8.5t32 -47.5q7 -24 17 -51.5t23 -58.5q7 -19 20 -55t27 -89q13 -45 27.5 -81t27.5 -60q5 -10 13 -27.5t18 -40.5q26 -45 61.5 -112t81.5 -157q12 -28 30.5 -69t42.5 -94q12 -27 31 -66t47 -87 q4 -13 12.5 -31.5t20.5 -44.5q12 -23 29.5 -60.5t37.5 -88.5q0 -6 4 -16.5t10 -28.5q5 -14 7.5 -32.5t2.5 -10.5q0 10 -2.5 -15t-8.5 -86q-2 -5 -6 -6t-10 -1q-46 0 -69 20.5t-23 63.5q0 12 -12 48.5t-38 96.5q-5 17 -14.5 42.5t-23.5 58.5q-13 25 -69 126t-156 278 q-9 19 -22.5 47t-32.5 65q-17 29 -46.5 85.5t-70.5 139.5q-16 26 -36 64.5t-46 91.5q-10 19 -22 49.5t-28 72.5q-4 23 -11.5 57t-18.5 79q-6 23 -11 46z" />
<glyph unicode="]" horiz-adv-x="726" d="M-29 -53q0 33 22.5 51.5t68.5 24.5q127 14 175 50t121 527q34 229 50.5 394t16.5 265q0 23 -0.5 36t-4.5 15l8 18l-33 -3q-17 8 -36.5 11t-43.5 3q-40 0 -99.5 -13t-67.5 -13q-6 0 -9 3t-2 9q26 81 63.5 101t170.5 22q67 1 113 -9.5t72 -32.5q22 -20 23 -34q0 -9 -6 -21 t-6 -26q0 -221 -83 -754.5t-122 -564.5q-24 -20 -65 -39t-98 -33q-51 -13 -95.5 -21t-80.5 -8q-24 0 -38 11t-14 31z" />
<glyph unicode="^" d="M-78.5 476q-5.5 11 2.5 24q106 149 210.5 308t209.5 326q39 64 75 115t56 86q4 8 1 15.5t0 13.5q13 21 40 40q8 5 21.5 9.5t32.5 4.5q26 0 41 -4.5t19 -8.5q17 -14 75 -96.5t159 -235.5q108 -166 162.5 -264.5t54.5 -128.5l-1 -10q-9 -21 -44 -33.5t-96 -16.5 q-76 -6 -84 9t-8 47v49q0 13 -4.5 25t-9.5 22q-71 123 -134 235.5t-120 215.5q-81 -96 -212 -272.5t-306 -428.5q-6 -10 -11 -24t-12 -24q-14 -22 -40 -26t-55 9q-17 8 -22.5 19z" />
<glyph unicode="_" d="M27 -281q0 25 34 63t54 36q57 -3 155 -4.5t240 -2.5q160 -1 266 1t161 6q30 3 43.5 -12t13.5 -38q0 -30 -14.5 -45t-42.5 -15q-48 0 -188 0.5t-374 5.5q-132 2 -211.5 -0.5t-107.5 -5.5q-14 -2 -21.5 -0.5t-7.5 11.5z" />
<glyph unicode="`" d="M350 1068q0 6 6.5 12.5t8.5 12.5q3 7 12.5 15.5t13.5 15.5q7 12 15.5 16t17.5 4q6 0 15 0.5t13 -1.5q8 -5 9.5 -16t3.5 -23q16 0 22 -2q9 -15 12 -19q6 -9 12 -23t15 -28q9 -13 25.5 -25.5t31.5 -28.5q12 -12 22.5 -28t24.5 -29q16 -14 29.5 -25t21.5 -22 q8 -12 11.5 -24.5t3.5 -21.5q0 -15 -5 -22t-15 -7q-23 1 -35 9q-6 3 -12.5 12t-15.5 15q-12 9 -28.5 15t-31.5 15q-15 8 -29.5 20t-27.5 19q-13 6 -19 12t-20 12q-6 3 -14 3t-13 3q-10 5 -17.5 14t-13.5 15q-9 8 -17 17t-12 18t-6.5 19.5t-2.5 19.5q0 6 -5.5 14.5t-5.5 16.5 z" />
<glyph unicode="a" horiz-adv-x="769" d="M-42 86q0 27 11.5 51.5t34.5 47.5q2 13 2 21q0 5 -2.5 10.5t-6.5 12.5l-13.5 31.5t-16.5 37.5q4 4 11.5 15.5t17.5 28.5l91 60q5 5 12 13.5t16 24.5q7 13 18.5 22t26.5 16q8 10 23 25t38 35q11 6 28 17.5t37 30.5q91 86 159.5 129t115.5 43q26 0 38.5 -11t12.5 -31 q0 -21 -7.5 -37t-23.5 -27q-25 -18 -54 -40q-16 -21 -39 -44.5t-54 -46.5q-10 -13 -17 -23q-5 -5 -19 -18t-37 -30q-10 -22 -43.5 -57t-89.5 -84q-7 -7 -25 -32t-47 -66l7 -9q22 7 46 24t53 45q34 31 55.5 50.5t30.5 25.5l14 8t16 10q46 55 86 81.5t74 26.5q21 0 32 -16.5 t13 -49.5q-2 -50 -2 -96q-1 -32 17.5 -57.5t48.5 -25.5q9 0 17.5 5t17.5 13q7 9 13.5 17t13.5 16q4 2 11.5 7t14.5 12q14 -30 23.5 -52.5t14.5 -39.5q-23 -21 -45.5 -43.5t-47.5 -42.5q-30 -23 -58 -34.5t-56 -11.5q-65 0 -100 37t-41 112q0 9 -2.5 18.5t-10.5 19.5 q-5 -5 -11 -10.5t-14 -14.5l-32.5 -25t-45.5 -36q-35 -36 -59 -59t-34 -33q-20 -17 -46.5 -34t-59.5 -35q-21 -11 -36 -17.5t-22 -6.5q-48 0 -71 23.5t-23 72.5z" />
<glyph unicode="b" horiz-adv-x="598" d="M-36 298q12 14 29 34t43 48q10 28 18.5 69.5t14.5 97.5q7 57 15.5 99.5t15.5 68.5q45 141 70 218.5t29 91.5q33 91 69.5 162.5t73.5 124.5q9 10 19 21.5t23 24.5q37 17 69 33q18 8 36.5 13t36.5 5q28 0 43 -26.5t15 -79.5q0 -33 -9 -73.5t-25 -88.5q-24 -68 -37 -108.5 t-16 -50.5q-4 -21 -19 -53t-40 -78q-31 -59 -48.5 -91t-20.5 -38l-14.5 -14.5l-15.5 -15.5v-23q-5 -12 -10 -17q-17 -33 -45.5 -82t-70.5 -112q-24 -33 -36 -58t-12 -43v-88q5 -26 11 -51.5t12 -49.5q5 -32 19 -48.5t32 -16.5q40 0 66.5 19.5t39.5 59.5q-27 11 -41.5 25.5 t-14.5 30.5q5 10 8.5 22t7.5 25q1 7 3.5 14t3.5 18q46 84 84 126.5t68 42.5q7 0 23 -2.5t24 -2.5q6 0 19 3.5t19 3.5q17 0 24 -11.5t7 -31.5q0 -43 -25 -93t-25 -57q0 -6 8 -13q6 2 12.5 6t12.5 10q4 -13 12.5 -30t18.5 -39q5 -7 7 -12.5t2 -10.5q-42 -43 -74 -66t-54 -25 q-7 0 -17 0.5t-24 1.5q-14 -17 -33.5 -39t-43.5 -52q-10 -7 -25 -18.5t-34 -28.5q-29 -29 -57.5 -42.5t-57.5 -13.5q-13 0 -25.5 3.5t-28.5 13.5q-12 6 -25.5 16.5t-29.5 24.5q-20 61 -29 113t-9 99q0 8 -1.5 13.5t-4.5 9.5l-9 3l-7 -3l-10 -10q-8 22 -18 45t-22 47z M219 642l2 -9q8 4 26.5 39t48.5 101q28 58 41.5 91t16.5 44q8 27 19 63t25 80q10 17 17 29q6 8 9 16t3 15q0 5 -1.5 8.5t-5.5 6.5h-1q-6 0 -13 -14q-8 -14 -15 -41q-4 -20 -18 -47t-36 -64q-19 -32 -37 -71.5t-36 -85.5q-23 -54 -34 -95t-11 -66z" />
<glyph unicode="c" horiz-adv-x="631" d="M-36 298l9 8q1 11 14 26t37 35q15 11 31.5 21t31.5 22q63 54 122 104q34 30 68 51.5t64 34.5q21 27 78.5 55t93.5 28q14 0 22.5 -8t10.5 -20v-55q0 -29 -16.5 -51.5t-49.5 -41.5q-22 -10 -44 -22t-44 -22q-8 -10 -42.5 -37.5t-93.5 -73.5q-27 -21 -45 -37.5t-25 -26.5 q-10 -19 -15.5 -42t-5.5 -53q0 -23 7 -39.5t21 -26.5q10 -7 27.5 -14t43.5 -14q15 6 39.5 11.5t54.5 14.5q34 20 69.5 42t70.5 45q5 3 12.5 6.5t15.5 10.5q10 13 27.5 30t42.5 39q40 -87 40 -92q-37 -30 -75 -61.5t-87 -51.5q-16 -13 -27 -24q-50 -50 -116.5 -75.5 t-151.5 -25.5q-19 0 -34 3t-25 8q-30 20 -51 35q-22 16 -37 30.5t-22 27.5q-9 14 -12.5 34t-3.5 49q0 8 5 26t5 25q-7 22 -17 45t-23 47z" />
<glyph unicode="d" horiz-adv-x="836" d="M-36 298l6 7l3 10q18 22 31 34.5t20 19.5q5 5 22 13t46 20l13 8q7 11 25 32t43 48q5 6 15 13t21 18q24 23 48 47.5t45 48.5q9 9 37 32.5t76 65.5q7 5 25 14.5t47 22.5q13 6 19.5 19.5t6.5 34.5q8 13 15.5 31.5t14.5 43.5q10 31 15.5 50.5t8.5 26.5q17 45 46 105.5 t69 138.5q20 41 47 91q17 25 38 37.5t44 12.5q18 0 26.5 -14t8.5 -41q0 -43 -6 -82t-22 -73q-3 -7 -5 -21t-4 -34q-1 -14 -7.5 -27t-16.5 -24q0 -7 -2 -16.5t-4 -22.5l-14 -18q-2 -6 -2 -14.5v-17.5q0 -6 -7 -23.5t-21 -49.5q-16 -34 -25.5 -54t-10.5 -25q-4 -5 -10.5 -16 t-15.5 -25l3 -22l-64 -230q0 -38 1 -65t6 -43q5 -17 16.5 -41.5t29.5 -52.5q11 -19 26 -27.5t32 -8.5q19 0 38.5 10.5t39.5 32.5q12 -26 22.5 -49t17.5 -43q-5 -3 -21.5 -20.5t-43.5 -49.5q-16 -19 -39.5 -27.5t-57.5 -8.5q-75 0 -122 39t-66 117l-7 28t-6 22q-7 19 -24 41 q-7 -10 -11 -15q-12 -8 -26.5 -23t-29.5 -38q-3 -10 -11 -24.5t-22 -34.5q-32 -37 -65 -74.5t-66 -73.5q-45 -50 -83 -73.5t-66 -23.5q-50 0 -74 23.5t-24 73.5q0 23 17 64.5t17 61.5l-6 16zM160 192q0 -6 8 -13q30 9 73.5 52.5t103.5 120.5q62 82 92 139.5t30 92.5 q0 5 -4 15q-15 -15 -37 -35t-52 -44q-7 -16 -32 -50.5t-70 -85.5q-13 -15 -35 -51.5t-54 -89.5q-11 -21 -23 -51z" />
<glyph unicode="e" horiz-adv-x="503" d="M-36 298q12 21 31 42.5t48 44.5q3 20 6 39.5t4 39.5q3 14 9.5 33t14.5 41q9 22 24.5 55t40.5 74q21 23 44 50.5t46 55.5q11 9 24 17t26 18q12 4 27 7t33 3q25 0 40.5 -5t25.5 -17q7 -8 13.5 -24t12.5 -39q3 -20 7 -44q0 6 -3.5 -5t-10.5 -35l-9 -32q-14 -48 -63 -111 t-132 -144q-7 -7 -12 -17.5t-5 -22.5q0 -21 7.5 -37t21.5 -24q8 -6 25.5 -12t41.5 -11q39 3 71 13t57 24q5 3 16 8.5t22 14.5q13 -29 23 -52t16 -40q-57 -56 -103.5 -84.5t-85.5 -28.5q-16 -10 -36.5 -14.5t-48.5 -4.5q-37 0 -65.5 11t-47.5 32q-10 10 -20 29.5t-21 46.5 q-9 22 -17 32.5t-18 10.5q-8 0 -18 -7.5t-22 -22.5q-4 15 -14 37t-26 55zM188 481q0 -6 2.5 -8.5t10.5 -2.5q11 0 18 11.5t13 21.5q11 10 21.5 21.5t20.5 22.5q12 14 18 28t6 28q0 9 -3.5 14.5t-10.5 5.5q-22 0 -59 -57.5t-37 -84.5z" />
<glyph unicode="f" horiz-adv-x="483" d="M-36 298q4 7 10.5 15.5t15.5 20.5q24 35 40 60.5t23 39.5q14 26 22.5 54t13.5 58q20 143 70 307t127 353q28 66 60 99.5t66 33.5q26 0 42 -10.5t21 -33.5q2 -9 3.5 -31t1.5 -57q0 -8 -16 -143q-16 -67 -45 -166.5t-72 -230.5q-10 -18 -23 -46t-32 -67q-3 -7 -6.5 -18.5 t-9.5 -25.5q-7 -7 -15.5 -23t-19.5 -40q-18 -56 -34.5 -141t-30.5 -201q-14 -109 -21 -194.5t-7 -148.5q1 -24 4 -50q3 -31 6.5 -47.5t9.5 -16.5q14 0 43.5 61.5t76.5 184.5l-3 20q4 9 11.5 23t12.5 36q25 80 37 124.5t15 50.5q14 40 36.5 78t50.5 72q15 -30 24 -53t16 -39 q-14 -18 -27 -45.5t-21 -60.5q-9 -28 -15.5 -57.5t-13.5 -56.5q-50 -191 -98 -317.5t-91 -188.5q-7 -13 -16.5 -26t-17.5 -25q-12 -13 -25 -20.5t-27 -7.5q-43 0 -68.5 19t-35.5 57q-5 32 -8.5 63.5t-7.5 62.5q-6 20 -9 41.5t-3 47.5v152q0 11 4.5 34t4.5 35q-6 30 -12 61 q3 35 10.5 88t18.5 121l-26 23q-4 13 -14 36t-26 56zM302 806l7 -8l15 15q1 15 8 33t19 41q10 21 15 36t5 25q0 12 -3 17t-10 5q-6 0 -8.5 -7.5t-7.5 -21.5q-1 -10 -7 -27t-16 -43q-8 -22 -12.5 -38.5t-4.5 -26.5z" />
<glyph unicode="g" horiz-adv-x="550" d="M-36 298q7 8 17 22.5t25 33.5q13 11 30 29.5t38 46.5q8 17 19.5 37.5t26.5 48.5q6 27 28 61.5t61 77.5q55 61 115 130q31 46 67.5 68t78.5 22q28 0 42.5 -25t14.5 -74q0 -18 -24.5 -56t-74.5 -97q-31 -37 -65 -73.5t-67 -74.5q-15 -14 -31.5 -30.5t-35.5 -36.5 q-6 -21 -13 -47q0 -39 5 -67.5t15 -48.5q5 -7 21.5 -31.5t44.5 -63.5q7 -10 17 -20t23 -20q15 6 58 53.5t116 134.5l38 -92q-7 -8 -26.5 -32.5t-47.5 -64.5q-32 -42 -65 -90q0 -10 9.5 -23t23.5 -29q26 -30 44.5 -78t28.5 -117q-1 -5 -2.5 -16t-2.5 -25 q-12 -115 -141.5 -230t-244.5 -115q-53 0 -84.5 13.5t-44.5 40.5q-5 13 -8 51t-3 101q0 6 5.5 23.5t18.5 47.5q7 20 19.5 41.5t26.5 46.5q14 21 28.5 41t27.5 40q32 35 57 62q19 19 29.5 36t10.5 30q-34 47 -68 90q-36 45 -58.5 90t-29.5 92q-1 6 -8 19q-23 -22 -45 -45 q-4 15 -14 37t-26 55zM82 -471q0 -19 10.5 -28t32.5 -9q77 0 158 83.5t81 160.5q0 16 -6 37.5t-16 47.5q-13 29 -25 43t-25 14q-6 0 -27.5 -28t-58.5 -83q-21 -33 -42 -67t-44 -67q-8 -11 -23 -52t-15 -52z" />
<glyph unicode="h" horiz-adv-x="734" d="M-36 298q22 19 34 30t19 19q16 15 26 29t11 25q9 34 21 85t31 118q9 20 19.5 50.5t22.5 68.5q12 50 30 91t40 74q7 9 14 22.5t14 31.5q7 16 19.5 37.5t28.5 50.5q41 60 72 103t51 69q36 43 72.5 80.5t73.5 69.5q34 29 59 42.5t40 13.5q14 -12 20 -22q7 0 14 2 q26 0 38 -21t12 -62q0 -9 -3 -23.5t-8 -35.5q-7 -7 -10 -18t-5 -22q-1 -14 -3 -24t-5 -18q-13 -24 -28 -58.5t-32 -80.5q-10 -17 -25 -45t-36 -62q-10 -19 -25.5 -47.5t-39.5 -65.5q-6 -14 -20.5 -30.5t-34.5 -38.5q-6 -16 -33.5 -55t-76.5 -101q-24 -31 -62 -77t-88 -109 q-19 -75 -28.5 -133.5t-9.5 -101.5q0 -17 2.5 -25.5t9.5 -8.5q5 7 14.5 16t19.5 21q19 17 44.5 63t58.5 119q29 66 52 101.5t38 42.5l35 15q10 4 18 7t13 3q13 0 24 -16t18 -44q13 -51 21 -78.5t9 -32.5q13 -30 31.5 -44t44.5 -14q31 5 73 14q8 -20 18.5 -43t21.5 -49 q-24 -16 -48.5 -31t-48.5 -30q-16 -9 -46 -13.5t-70 -4.5q-61 0 -94.5 57.5t-40.5 56.5h-6q-16 -20 -33.5 -41t-34.5 -44q-11 -23 -31 -53t-48 -66q-33 -40 -58 -60t-43 -20q-38 0 -59.5 8.5t-25.5 25.5q-12 56 -18.5 97.5t-6.5 70.5q0 9 1 16t2 13q3 13 7 28q0 5 -2.5 7.5 t-8.5 2.5q-3 -4 -8 -9t-14 -11q-4 13 -14 36t-26 56zM269 627l5 -5q20 18 34 38q20 23 48.5 59.5t64.5 85.5q36 46 74 116.5t82 162.5q25 50 37.5 80t12.5 42q0 7 -2.5 11.5t-10.5 4.5q-11 0 -44 -39.5t-84 -116.5q-29 -43 -57 -85.5t-55 -83.5q-12 -12 -17.5 -24t-5.5 -25 q-20 -56 -39 -105q-18 -53 -29.5 -82t-13.5 -34z" />
<glyph unicode="i" horiz-adv-x="572" d="M-36 298l6 7l3 10q27 37 95 96.5t94 96.5q10 16 23 23t26 7q35 0 59 -17.5t32 -52.5q7 -31 13 -62.5t10 -63.5q7 -20 17 -60.5t15 -46.5q5 -10 15 -14.5t25 -4.5q18 0 37 6.5t39 22.5q15 13 31.5 26.5t32.5 26.5l40 -92q-16 -16 -42.5 -36.5t-63.5 -47.5 q-41 -30 -70 -44.5t-44 -14.5q-91 0 -118 21t-60 117q-4 8 -12 19t-18 26q-12 23 -21 34.5t-15 11.5q-16 0 -43 -21.5t-66 -64.5q-5 13 -12.5 31t-15.5 42q-2 6 -5 11t-7 8zM178 899q0 30 36.5 75.5t64.5 48.5q17 21 40 48q10 7 26 11.5t37 4.5q25 0 36.5 -10t11.5 -29 q-6 -28 -10 -47q-10 -36 -17.5 -59t-11.5 -33q-9 -22 -24.5 -38.5t-37.5 -29.5q-23 -17 -39 -23q-13 -6 -19 -5h-2q-17 2 -32.5 3.5t-30.5 1.5q-13 7 -20.5 27t-7.5 54z" />
<glyph unicode="j" horiz-adv-x="602" d="M-36 298q19 19 57.5 54.5t97.5 87.5q6 5 30 33t69 80q21 21 51 54t68 78q25 34 49.5 52t47.5 18q29 0 42.5 -14.5t13.5 -41.5q0 -17 -5 -50t-5 -50q0 -28 -8.5 -98t-26.5 -182q-1 -7 -4.5 -23.5t-10.5 -43.5q-6 -20 -8 -37t-2 -29q1 -8 1 -13q49 36 85.5 67t60.5 58 l40 -92q-10 -5 -140 -124q-6 -18 -26.5 -38t-55.5 -41q-10 -17 -24 -44.5t-32 -64.5q-10 -27 -17.5 -51.5t-12.5 -43.5q-10 -40 -35 -95t-61 -128q-44 -87 -79 -130q-33 -42 -56 -42h-1q-24 2 -38.5 3.5t-18.5 3.5q-9 6 -12.5 20.5t-3.5 37.5q0 15 5 46.5t15 77.5 q7 32 18.5 62.5t26.5 60.5q13 29 27 56t29 58q33 40 64.5 87t63.5 102q6 21 12.5 53.5t13.5 77.5q9 48 15 88q5 34 8.5 54t2.5 27l-6 52l17 54q-4 12 -10.5 18.5t-14.5 6.5q-19 0 -36 -10t-32 -29q-17 -23 -42 -48.5t-59 -56.5q-42 -38 -69 -62.5t-39 -37.5q-5 13 -12.5 31 t-15.5 42q-2 6 -5 11t-7 8zM390 1037q0 47 80 116t129 69q23 0 33.5 -10t10.5 -29q0 -20 -8 -48t-23 -62q-12 -28 -22 -53q-7 -17 -46.5 -43.5t-59.5 -26.5q-27 0 -45.5 3.5t-28.5 10.5q-9 7 -14.5 25.5t-5.5 47.5z" />
<glyph unicode="k" horiz-adv-x="789" d="M-36 298q4 3 8 8.5t9 17.5q6 10 17 21.5t26 25.5q28 23 50.5 57.5t44.5 79.5q29 63 53 107t44 67q6 23 24 73t48 130q29 76 49 123.5t30 65.5q4 7 10.5 18t10.5 27q14 47 33 87.5t39 76.5q5 9 12.5 14t15.5 5q40 0 59.5 -31t19.5 -91q0 -67 -43 -185.5t-132 -287.5 q-18 -38 -39 -93t-42 -126q-17 -55 -33 -112t-33 -112q-16 -53 -24 -83.5t-8 -40.5q0 -7 2.5 -10t7.5 -3q10 0 17.5 6t11.5 17q20 29 39.5 65.5t39.5 80.5l3 29q7 66 30 92t86 41q8 3 40.5 54t86.5 151q30 53 50 79.5t30 26.5q23 0 33 -15t10 -45q0 -77 -86 -194t-86 -154 q0 -26 46 -79.5t76 -53.5q10 0 22.5 6.5t29.5 20.5q13 10 25.5 21.5t27.5 21.5l40 -92q-26 -23 -49.5 -46t-49.5 -45q-29 -28 -58 -41.5t-58 -13.5q-30 0 -101.5 61.5t-76.5 61.5q-37 -34 -65 -68q-18 -22 -35.5 -42.5t-35.5 -42.5q-5 -7 -16 -17t-25 -23 q-14 -20 -31.5 -38.5t-43.5 -18.5q-40 0 -60 23t-20 70q0 48 8.5 102t26.5 113q7 28 11 49.5t4 37.5l-7 10q-13 -16 -33 -38t-47 -54q-4 -3 -8.5 -10.5t-20.5 -29.5q-5 13 -12.5 31t-15.5 42q-2 6 -5 11t-7 8z" />
<glyph unicode="l" horiz-adv-x="564" d="M-36 298q9 10 18 24.5t24 31.5l66 58q4 3 4.5 8t0.5 14q-1 13 -3 21q0 23 9 77t16 65l-6 19q13 67 36.5 146.5t53.5 172.5q10 16 21 40.5t25 55.5q17 52 45 109t63 117q47 79 83.5 119t65.5 40q58 0 79.5 -22.5t21.5 -84.5q0 -16 -5.5 -49.5t-5.5 -50.5t-11 -48t-11 -57 q-1 -8 -5 -16l1 -14q-4 -14 -12 -34t-21 -48q-7 -25 -18 -58t-26 -72q-6 -10 -15.5 -24.5t-20.5 -32.5q-3 -13 -10 -30t-19 -40q-6 -12 -16 -26t-24 -36q-6 -10 -13 -25t-16 -34q-11 -17 -29 -42t-41 -59q-31 -55 -64 -105q0 -97 38.5 -146.5t115.5 -49.5q5 0 30 7t69 22 q13 8 31 22.5t41 34.5l39 -92q-26 -23 -52 -47t-53 -47q-31 -26 -63 -39.5t-63 -13.5q-16 0 -49 3.5t-50 3.5q-56 0 -92.5 45t-51.5 135q-2 9 -5.5 16t-12.5 16q-13 -13 -30.5 -31t-42.5 -41zM223 617l6 -8q9 1 22 18t30 50q8 18 23 42t34 57q16 22 51 113t38 116 q1 20 5.5 39.5t8.5 38.5l-7 4q-56 -54 -84.5 -102t-28.5 -93q0 -7 -6.5 -23.5t-19.5 -42.5q-16 -31 -33 -68q-19 -56 -29 -91t-10 -50z" />
<glyph unicode="m" horiz-adv-x="1262" d="M-36 298q6 7 14 18.5t18 25.5q44 55 85.5 98.5t78.5 77.5q19 18 46 46.5t63 65.5q36 14 79 32q27 0 40 -17.5t13 -50.5q0 -28 -4.5 -60.5t-12.5 -66.5q-9 -27 -15 -52q0 -7 3 -10.5t10 -3.5q15 7 58 50t113 120q60 66 105 98.5t72 32.5q29 0 42.5 -21.5t13.5 -63.5 q0 -61 -9 -117.5t-31 -108.5q-4 -10 -5 -17t-1 -13q0 -7 12 -13q8 7 18.5 20t24.5 33l46 38t50 39q28 22 57 33.5t57 11.5q5 0 10 -3t10 -7q23 -20 38 -36.5t21 -28.5q39 -80 69.5 -119.5t53.5 -39.5q5 0 10 2.5t10 6.5q23 -49 39 -92q-36 -28 -64 -42.5t-49 -14.5 q-69 0 -142.5 89.5t-112.5 89.5q-52 0 -173 -153.5t-151 -153.5q-15 0 -40 3q-8 3 -12 12.5t-4 22.5q0 15 6 39.5t16 57.5q13 42 21 67t9 35q3 13 8.5 51t14.5 101q0 11 -6 17t-14 6q-7 0 -15.5 -4.5t-19.5 -14.5q-12 -13 -26.5 -26t-46.5 -37q-35 -40 -71.5 -81.5 t-74.5 -83.5q-60 -70 -95.5 -103.5t-45.5 -33.5q-30 0 -45.5 7t-15.5 21q0 33 35.5 137.5t35.5 147.5q0 7 -4.5 11.5t-11.5 4.5q-12 0 -28.5 -13.5t-37.5 -42.5q-14 -16 -34 -37t-49 -49q-3 -8 -8 -15.5t-11 -14.5q-4 15 -14 37t-26 55z" />
<glyph unicode="n" horiz-adv-x="956" d="M-36 298q4 7 10.5 15.5t15.5 20.5q10 8 26 23t36 35q18 20 44 49.5t63 71.5q16 17 40 43.5t57 63.5q28 33 60 49t68 16t53 -22.5t17 -65.5q0 -23 -17 -88t-53 -172q-9 -20 -17 -38q-6 -13 -8 -23t-2 -15q0 -6 7 -15q5 3 9.5 8t10.5 12q8 15 24.5 31.5t39.5 36.5 q9 17 23.5 33.5t32.5 30.5q4 4 10.5 13t15.5 19q13 13 31 27t42 29q27 14 48.5 22t37.5 8q31 0 55 -15t41 -47q20 -62 38 -115q11 -31 24.5 -46t30.5 -15q13 0 23.5 5t19.5 15l40 -92q-17 -14 -35 -29t-35 -29q-23 -21 -43 -29.5t-40 -8.5q-23 0 -44 10t-36 30 q-8 8 -20 29.5t-28 53.5q-13 13 -29.5 34.5t-38.5 50.5l-9 3q-19 -6 -37.5 -18t-39.5 -31q-45 -40 -65 -50t-27 -23q-14 -24 -48 -62t-85 -90q-13 -13 -26 -25.5t-26 -24.5q-13 -11 -29.5 -15.5t-36.5 -4.5q-40 0 -43.5 27.5t-6.5 55.5q15 42 34 105t44 147q0 5 3.5 13.5 t8.5 22.5q5 13 7 22.5t2 16.5t-5 11t-16 4q-10 0 -26.5 -12t-39.5 -38q-28 -30 -45 -47t-23 -20q-10 -7 -23.5 -20t-30.5 -29l-6 -12t-13 -18q-4 15 -14 37t-26 55z" />
<glyph unicode="o" horiz-adv-x="723" d="M-36 298q7 7 14.5 18.5t17.5 25.5l77 53q14 17 43 43.5t72 64.5q5 11 16.5 25.5t27.5 28.5q14 13 28 24.5t26 22.5q15 15 28.5 30t27.5 29q16 14 33 22t37 8q22 0 33.5 -5.5t12.5 -15.5q-10 -23 -21 -46l6 -9q44 17 69 25t32 8q73 0 109.5 -44.5t36.5 -134.5 q0 -17 -4 -40t-13 -50q-10 -30 -21.5 -50t-21.5 -29q4 -13 9 -18.5t13 -5.5t16.5 5t20.5 15q10 -22 19.5 -45.5t19.5 -46.5q-18 -16 -35 -31t-36 -29q-23 -19 -43.5 -27.5t-40.5 -8.5q-23 0 -38 11t-24 31q-25 -33 -60.5 -60.5t-78.5 -45.5q-25 -12 -45.5 -18.5t-37.5 -6.5 q-5 0 -19.5 -4t-23.5 -4q-57 0 -103 48t-46 107q0 24 11 63.5t11 46.5t-4.5 11.5t-12.5 4.5q-5 0 -24 -15t-54 -43q-3 -4 -7 -12t-13 -18q-8 23 -18 46.5t-22 45.5zM264 206q0 -28 14 -42t43 -14q46 0 84.5 25.5t72.5 76.5q16 19 30 36q8 6 13 19.5t10 33.5l18 57 q-9 30 -17 47.5t-16 21.5q-5 3 -22 6.5t-49 7.5q-5 -1 -14.5 -10.5t-18.5 -23.5q-14 -23 -32 -50q-11 -12 -23.5 -18.5t-28.5 -9.5q-10 -1 -21 -19.5t-22 -53.5q-11 -31 -16 -53t-5 -37z" />
<glyph unicode="p" horiz-adv-x="699" d="M-36 298q20 26 51.5 62.5t76.5 83.5q3 9 8 21.5t15 31.5q53 79 95 152t72 142q9 17 19.5 42.5t26.5 57.5q14 24 27.5 37t26.5 13q20 0 29.5 -17t9.5 -53q0 -20 -34.5 -129.5t-102.5 -308.5q-18 -48 -40 -134.5t-51 -215.5q-3 -19 -6.5 -44t-10.5 -58q-17 -64 -24 -102 t-6 -49l4 -8q5 3 11.5 19t11.5 46q6 27 9 45.5t1 30.5q22 58 52 148.5t70 210.5q16 29 36.5 70.5t43.5 98.5q23 22 41.5 32.5t31.5 10.5q28 0 52 -15t44 -44q5 -7 18.5 -35.5t36.5 -77.5q13 -30 27 -46.5t27 -17.5l42 -92q-5 -1 -26.5 -7t-61.5 -13l-68 25q-25 7 -60.5 49 t-57.5 49q-21 -15 -45 -59t-49 -114q-6 -16 -15.5 -34.5t-19.5 -42.5q-6 -38 -14 -73q-13 -30 -28 -76.5t-32 -110.5q-5 -22 -25.5 -66t-24.5 -67q-2 -14 -8.5 -37t-19.5 -54q-23 -40 -42 -60.5t-32 -20.5q-30 0 -45 29t-15 86q0 86 10 189t30 221q6 34 13 69t14 71 q9 42 12.5 77t1.5 63q-10 -3 -33.5 -25.5t-59.5 -67.5q-4 15 -14 37t-26 55z" />
<glyph unicode="q" horiz-adv-x="714" d="M-36 298q6 10 16 23.5t26 30.5q24 17 59 38t84 45q6 13 31 34t71 47q50 28 77 46.5t33 28.5q182 99 235 99q21 0 40.5 -16.5t35.5 -47.5q1 -9 -7.5 -15.5t-24.5 -13.5q-18 -8 -41 -20q-20 -11 -49.5 -30.5t-71.5 -45.5q-3 -4 -8 -9t-12 -11q-31 -26 -62.5 -51t-60.5 -52 q-46 -41 -68 -72t-22 -51q0 -12 3.5 -17.5t9.5 -5.5q18 11 55.5 30.5t150.5 108.5q52 39 90.5 62.5t65.5 30.5q20 -11 37 -21q16 -10 24 -28t8 -46q0 -7 -2 -17l-4 -20q-3 -14 -4 -34q11 -24 22 -47t18 -45q-12 -7 -19.5 -17.5t-10.5 -22.5q-27 -34 -52 -88t-48 -125 q-18 -58 -34.5 -114.5t-33.5 -113.5q-3 -19 -10 -45.5t-18 -61.5q-9 -29 -26 -70.5t-39 -97.5q-8 -21 -25.5 -32t-41.5 -11q-19 0 -28 5t-9 17q5 20 10 35q3 20 5 38q3 23 16.5 65t36.5 104l-7 38q19 55 37 123t36 147q23 98 34.5 167.5t11.5 108.5q0 7 -3.5 10.5t-12.5 3.5 q-40 -27 -78 -56q-41 -30 -67 -47.5t-41 -23.5q-16 -25 -76.5 -55.5t-92.5 -30.5q-34 0 -44 7t-25 39q-8 18 -17 38q0 23 20 71t20 55l-8 8q-17 -9 -29 -19q-14 -12 -29 -23q-2 -9 -6.5 -14.5t-10.5 -11.5q-4 15 -14 37t-26 55z" />
<glyph unicode="r" horiz-adv-x="667" d="M-36 298q16 21 32 44q73 60 119.5 115.5t67.5 103.5l-10 48q13 25 64.5 59t83.5 34q34 0 57.5 -20t45.5 -42q11 -7 16 -11q40 -30 60 -83t20 -129q0 -40 -31 -114.5t-31 -112.5q0 -5 3.5 -8t9.5 -3q13 0 31 11.5t39 31.5q53 52 64 57.5t27 18.5q8 -20 19 -43t21 -49 q-9 -8 -20.5 -19t-27.5 -25q-34 -25 -88.5 -60.5t-130.5 -81.5q-20 -13 -46 -21q-42 0 -63 12.5t-21 40.5q0 11 4.5 25.5t12.5 31.5q6 13 13 26.5t12 27.5q22 63 33.5 117t11.5 97q0 53 -16.5 81t-49.5 32q-22 -12 -48 -34t-53 -55q-29 -36 -52 -59t-38 -31q-9 -15 -29 -34 t-53 -41l-6 -12t-13 -18q-8 23 -18 45.5t-22 46.5z" />
<glyph unicode="s" horiz-adv-x="626" d="M-36 298l6 7q4 14 17.5 30t38.5 32q33 21 51.5 34t22.5 19q9 11 12 17q11 8 27 22t36 34q7 5 15 16t16 25q13 9 29.5 23t38.5 36q25 27 56.5 59.5t70.5 67.5q13 6 24.5 9.5t22.5 3.5q45 0 67.5 -21.5t22.5 -61.5q0 -10 -3.5 -33t-7.5 -58q-14 -101 -20 -123t-42 -138 q-8 -19 -16.5 -47t-20.5 -68q2 -4 10 -8q7 0 25 13.5t48 40.5q35 32 55 49t25 20l22 -49.5t17 -42.5q-13 -8 -23.5 -18t-19.5 -22q-21 -14 -48.5 -32t-60.5 -39q-15 -15 -40.5 -36.5t-57.5 -48.5l-19 -4q-14 -19 -26.5 -29t-22.5 -14q-16 -6 -32 -11.5t-34 -11.5 q-11 3 -16 13t-4 26q-15 27 -24 62t-9 78q0 8 1 17t2 16q-7 26 -7 31q0 30 23 49.5t52 19.5q15 0 21.5 -15.5t13.5 -15.5t14.5 27.5t14.5 80.5q7 46 9 80t2 52q0 13 -5.5 19.5t-18.5 6.5t-84 -60t-198 -179q-4 -7 -11.5 -17t-17.5 -25q-4 15 -14 37t-26 55z" />
<glyph unicode="t" horiz-adv-x="554" d="M-36 298l4 8q6 8 15.5 20t22.5 28q71 66 138.5 157.5t133.5 210.5q8 11 18 29t22 45q0 6 -3 9t-10 3q-6 0 -19.5 -3.5t-20.5 -3.5h-125q-8 0 -26.5 1t-26.5 1q-10 5 -18.5 8.5t-16.5 7.5q-12 4 -18.5 10.5t-6.5 15.5q0 64 13.5 98t41.5 34t52.5 -2.5t43.5 -6.5q15 3 28 6 q27 0 46 -2t29 -5q13 3 25.5 5.5l27.5 5.5l33 -10q35 4 74.5 98t84.5 94q24 0 37 -15t13 -44q0 -23 -13.5 -60.5t-15.5 -56.5q2 -4 5.5 -8.5t10.5 -10.5q6 -4 8.5 -13.5t2.5 -23.5q0 -60 -5.5 -92.5t-17.5 -33.5l-68 -14q-2 -10 -5 -24.5t-8 -33.5q-17 -50 -38 -127 t-47 -182q-16 -84 -24.5 -136t-8.5 -70q0 -16 5 -24t15 -8q6 0 43.5 29t104.5 86l39 -92q-10 -11 -28 -26t-43 -32q-10 -11 -25 -24.5t-33 -31.5q-18 -20 -35.5 -40t-35.5 -39q-24 -26 -47 -37.5t-43 -11.5q-44 0 -65.5 26t-21.5 79q0 58 4 100.5t13 68.5q4 8 6 14 q0 10 3 27t7 40q6 39 13 78q11 24 23 51q0 5 -8 9l-10 -6q-15 -24 -39 -50.5t-57 -55.5q-51 -49 -104 -99q-3 -5 -11 -15t-18 -25q-5 12 -12.5 30.5t-15.5 42.5q-2 6 -5 11t-7 8z" />
<glyph unicode="u" horiz-adv-x="832" d="M-36 298q4 3 6.5 7t2.5 10q17 14 38.5 38.5t48.5 57.5q22 30 45.5 60t50.5 60q22 30 43.5 62.5t45.5 63.5q40 19 62 27t30 8q15 0 23 -9.5t8 -27.5q0 -6 -3 -17t-7 -24q-7 -20 -16 -41q-8 -35 -19 -70t-21 -69q-10 -43 -15.5 -79t-5.5 -66q0 -56 5.5 -83t15.5 -24 q10 6 25 14.5t35 19.5q18 19 40.5 47t54.5 66q18 28 37 55q7 8 16.5 19t17.5 22q19 48 42.5 71.5t52.5 23.5q26 0 41.5 -6.5t21.5 -19.5q3 -7 5 -24t2 -45q0 -11 4.5 -32t4.5 -31q0 -37 13 -55.5t40 -18.5q8 0 19 3t22 7l40 -92q-60 -36 -98.5 -54.5t-57.5 -18.5 q-50 0 -82 26t-47 77q-2 12 -8.5 24t-16.5 24q-9 -10 -20.5 -24t-24.5 -28q-27 -33 -54 -64.5t-55 -62.5q-35 -41 -70.5 -59.5t-66.5 -18.5q-46 0 -74 27.5t-36 81.5q-9 52 -12 81t-1 35q-2 29 -5.5 44t-10.5 15l-6 -3l-57 -59q-3 -7 -10 -17.5t-19 -25.5q-4 15 -14 37 t-26 55z" />
<glyph unicode="v" horiz-adv-x="659" d="M-36 298q4 8 18.5 27.5t41.5 48.5q28 28 46.5 52.5t26.5 43.5q12 23 28.5 58t36.5 81q3 5 43 32.5t50 27.5q13 0 19.5 -18.5t6.5 -56.5q0 -56 -1.5 -93.5t-7.5 -60.5q2 -5 4 -12t5 -16q-2 -10 -5 -21q0 -119 9 -177.5t24 -58.5q19 0 54 50.5t85 152.5q50 99 76 162.5 t30 95.5q9 56 29.5 84.5t55.5 28.5q10 0 14 -5.5t4 -16.5q0 -40 -10.5 -81.5t-32.5 -82.5q0 -27 -12.5 -61t-38.5 -75q-9 -27 -14 -53q-2 -13 -45.5 -92t-55.5 -92q0 -24 -23 -57.5t-71 -76.5q-10 -13 -21 -25t-21 -24q-11 -14 -24.5 -21.5t-31.5 -7.5q-54 0 -82 41t-28 123 q3 15 4 26q-5 12 -10 31.5t-7 43.5q0 32 -0.5 52t-3.5 27l7 23l-10 6q-7 -3 -37 -34t-85 -91q-7 22 -17 44t-23 48z" />
<glyph unicode="w" horiz-adv-x="1011" d="M-36 298q4 4 19.5 15t40.5 26q16 9 37.5 32.5t48.5 62.5q23 31 40.5 59t28.5 51q37 78 73.5 115t75.5 37q14 0 21.5 -7t7.5 -22q0 -28 -5 -87.5t-5 -91.5q0 -14 2 -42t5 -71q4 -46 7 -71.5t6 -29.5l10 -8q21 0 122 225t164 225q26 0 37.5 -17t11.5 -50q0 -13 -6 -23 t-17 -17q-4 -3 -6.5 -11t-2.5 -21q-7 -36 -15 -74q2 -9 5 -16l6 -14q0 7 -4.5 -41t-11.5 -150q-1 -6 -0.5 -15t3.5 -21q4 -13 17 -27q20 0 60.5 61.5t101.5 184.5q4 21 11.5 46t20.5 53q8 23 19.5 46.5t21.5 46.5l-8 30q4 19 8 38.5t9 37.5q7 25 20 37.5t30 12.5t25 -8.5 t8 -23.5q0 -51 -10 -106t-29 -114q-21 -67 -47.5 -124t-59.5 -108q-25 -65 -76 -146q-33 -51 -52.5 -78.5t-23.5 -32.5q-27 -32 -55 -48.5t-57 -16.5q-37 0 -56.5 58t-19.5 174q0 12 5 29t5 26l-5 8q-5 0 -15.5 -14t-26.5 -47q-19 -35 -43 -76q-1 -10 -4.5 -23t-11.5 -27 l-33 -63q-8 -18 -17.5 -35.5t-17.5 -35.5q-12 -14 -28.5 -21t-37.5 -7q-6 0 -11.5 0.5t-13.5 4.5l-17 18q-8 8 -24 105.5t-47 285.5q-10 -6 -18 -13t-15 -15l-22.5 -25t-30.5 -35q-13 -15 -44 -35.5t-44 -37.5q-7 20 -17 42.5t-23 49.5z" />
<glyph unicode="x" horiz-adv-x="770" d="M-36 298q30 19 59 36.5t57 36.5q53 34 79.5 58t26.5 36q0 19 -19 60.5t-19 63.5q0 33 12.5 60.5t40.5 50.5q14 13 24.5 19.5t17.5 6.5q18 0 30 -18t18 -53q8 -39 17 -60.5t17 -25.5q12 5 24 12.5t25 14.5q17 20 48 48.5t76 68.5q51 45 84.5 68.5t47.5 27.5q9 0 19 -1 q-5 0 0.5 0t17.5 1h4q11 1 21 -9q12 -12 23 -37q10 -21 15 -38.5t5 -32.5q0 -37 -6 -62.5t-19 -38.5q-11 -18 -32 -44.5t-51 -60.5q-91 -91 -137 -139.5t-46 -54.5q0 -23 33 -54.5t59 -31.5q48 6 87 13q26 16 54 36t58 43q11 -26 22 -49t18 -43q-7 -5 -18 -16t-27 -24 q-10 -10 -35.5 -24.5t-67.5 -31.5q-14 -7 -30 -15.5t-30 -15.5q-18 -9 -34.5 -14t-32.5 -5q-29 0 -47.5 5t-28.5 12l-103 102l-7 3l-5 -3q-10 -9 -25 -21.5t-33 -31.5q-9 -11 -19.5 -22.5t-22.5 -24.5q-16 -7 -38 -18.5t-52 -27.5h-9q-10 0 -15.5 4.5t-5.5 14.5 q0 22 94.5 106.5t94.5 110.5q-9 26 -24.5 55.5t-38.5 63.5l-13 -4q-6 -6 -15 -15.5t-22 -21.5q-15 -18 -38.5 -40.5t-57.5 -54.5q-12 -6 -28.5 -17.5t-36.5 -28.5q-4 15 -14 37t-26 55zM347 491q-1 -3 -1 -6q0 -8 4 -18q5 -14 14 -33q10 -23 18 -33.5t15 -10.5 q37 18 102 116t65 131q0 9 -5 14t-16 5q-6 0 -12.5 -3.5t-14.5 -12.5q-9 -10 -23 -23q-7 -3 -16.5 -8t-21.5 -12q-18 -17 -44.5 -42t-63.5 -57v-7z" />
<glyph unicode="y" horiz-adv-x="864" d="M-36 298q23 24 70.5 58t70.5 56q15 18 39 43.5t57 60.5q20 18 39 28t38 10q24 0 37.5 -12t13.5 -38q0 -39 -30 -126t-30 -132q0 -10 4.5 -14t10.5 -4l5 1q19 12 44.5 30.5t57.5 45.5q26 24 64.5 63t90.5 90q20 16 45.5 41t57.5 60q13 18 36.5 28t57.5 10q23 0 34.5 -8.5 t11.5 -25.5q0 -7 -1.5 -13.5t-2.5 -12.5q-7 -30 -21 -73.5t-34 -102.5q-17 -37 -35.5 -88.5t-39.5 -113.5l7 -9q21 10 62.5 47.5t104.5 100.5l40 -92l-19.5 -19.5t-30.5 -24.5q-107 -76 -183.5 -150.5t-121.5 -147.5q-67 -110 -111.5 -179t-64.5 -97q-69 -91 -131 -135 t-121 -44q-22 0 -32 9t-10 28q0 10 5 25t18 32q19 27 35 56l30 26q4 13 4 18q4 5 11.5 12t17.5 16q7 18 37.5 59.5t85.5 106.5q41 48 75 85.5t58 63.5q4 8 8.5 19t7.5 22q13 26 28.5 63t37.5 87q10 29 17 66.5t13 81.5q-2 4 -2.5 10.5t-4.5 18.5q-18 -9 -39.5 -27t-46.5 -42 q-33 -43 -67 -71.5t-67 -43.5q-22 -43 -56.5 -63.5t-79.5 -20.5q-33 0 -50 15.5t-17 47.5q0 6 1.5 15t4.5 21q-4 10 -10 28q4 17 7 38q0 30 -4.5 45t-14.5 15l-4 -2q-11 -8 -31 -24t-48 -39q-5 13 -12.5 31t-15.5 42q-2 6 -5 11t-7 8z" />
<glyph unicode="z" horiz-adv-x="681" d="M-100 -540q0 33 20 76.5t59 98.5q24 33 61 75t87 95q41 42 60 65.5t19 29.5q0 5 -11.5 46t-11.5 60q0 63 65.5 159t65.5 133q0 13 -6 28.5t-14 38.5q-12 25 -23.5 36t-24.5 11q-8 0 -25.5 -9t-41.5 -28q-19 -17 -33 -31.5t-21 -24.5q-6 -7 -21 -20t-41 -31q-4 -3 -19 -19 t-40 -43l-40 92q9 10 16 20.5t16 23.5l71 50q25 18 73 67t118 130q8 10 21 15t29 5q82 0 122.5 -57.5t40.5 -170.5q0 -95 -73 -185.5t-73 -125.5q0 -26 6 -38.5t17 -12.5l7 1q13 10 30 22t39 28q21 33 89 86q18 16 52 51t81 91l40 -92q-30 -28 -77.5 -69t-110.5 -94 q-11 -11 -28 -27.5t-42 -36.5q-8 -6 -19 -15.5t-22 -20.5q-5 -12 -10 -25q0 -14 23.5 -71.5t23.5 -101.5q0 -82 -48 -158.5t-144 -146.5q-60 -44 -114.5 -65.5t-103.5 -21.5q-57 0 -85.5 26.5t-28.5 80.5zM9 -506q0 -18 7 -26.5t21 -8.5q66 0 145 73.5t79 138.5q3 28 5 48 q0 9 -9 40.5t-16 31.5q-23 0 -127.5 -132.5t-104.5 -164.5z" />
<glyph unicode="{" horiz-adv-x="726" d="M76 700q0 10 7.5 30t31.5 30q33 14 60.5 24.5t43.5 28.5q15 17 27 38.5t21 46.5q7 22 13 48t9 55q5 42 11.5 81t15.5 73q11 40 24 76.5t31 66.5q18 29 41 52t45 39q44 33 100 50.5t120 17.5q55 0 80 -12.5t25 -38.5q0 -25 -7 -41t-23 -19q-8 -1 -16.5 -13t-17.5 -12 q-13 -1 -26.5 8.5t-25.5 8.5q-36 -5 -68 -18.5t-64 -33.5q-26 -16 -45 -58t-31 -102q-3 -22 -9 -42t-8 -38q-3 -24 -5 -45t-5 -36q-6 -32 -17 -66q-9 -31 -17 -64.5t-23 -56.5q-17 -27 -41.5 -42t-47.5 -30q44 -29 67 -79t23 -121q0 -15 -2 -36t-5 -45q-2 -15 -0.5 -32 t-0.5 -33q-3 -25 -11.5 -51t-13.5 -50q-9 -42 -13 -76t-4 -50q0 -20 3.5 -36.5t9.5 -26.5q13 -21 34.5 -31t51.5 -10q33 0 92.5 13.5t74.5 13.5t21.5 -6t6.5 -16q0 -28 -21 -52t-61 -41q-36 -15 -77.5 -23t-88.5 -8q-118 0 -154.5 43t-36.5 133q0 23 2.5 64t11.5 87 q3 18 11.5 37t11.5 38q3 24 3.5 48t3.5 45q4 33 7.5 60t3.5 43q0 35 -10 63.5t-30 51.5q-12 13 -32 23.5t-46 23.5q-20 10 -30.5 16t-10.5 14z" />
<glyph unicode="|" d="M442 1202q0 43 4.5 80t4.5 67q0 12 7 19t22 8q28 2 67 -10.5t37 -22.5q-8 -76 -13 -340.5t-5 -720.5q0 -226 2.5 -375t8.5 -221q2 -11 -14 -19.5t-52 -13.5q-31 -4 -49 -0.5t-18 15.5q4 99 6.5 308.5t2.5 531.5q0 202 -1 362.5t-2 277.5q0 14 -4 28t-4 26z" />
<glyph unicode="}" horiz-adv-x="726" d="M33 -42q0 28 8 44.5t22 17.5q23 3 44.5 4.5t41.5 4.5q36 4 68 16t64 35q25 19 44 59t32 100q7 36 11.5 67t8.5 55q3 15 9 29t8 24q6 26 7 53q21 66 53 114t76 78q-44 28 -67 79t-23 123q0 67 25 198t25 174q0 20 -3 36t-10 27q-12 20 -33.5 31t-52.5 11q-18 0 -43.5 -10 t-52.5 -15q-23 -5 -44 -4t-28 1q-12 0 -19.5 5t-7.5 15q0 15 6 32t17 29q10 11 25.5 18t33.5 16q18 8 40 18t43 13q20 3 40.5 2t42.5 -1q20 0 40 1.5t35 -0.5q72 -12 93.5 -57.5t21.5 -120.5q0 -67 -27 -216t-27 -206q0 -37 10 -66t30 -49q13 -13 33.5 -17t47.5 -14 q20 -7 29 -23.5t9 -22.5q0 -10 -14.5 -28.5t-38.5 -31.5q-5 -3 -12 -7.5t-13 -4.5q-6 -1 -12.5 0.5t-11.5 -0.5q-13 -6 -23.5 -18t-17.5 -23q-26 -35 -44 -82t-25 -106q-1 -17 -1 -34.5t-3 -34.5q-3 -15 -9 -31t-9 -30q-4 -20 -7.5 -40t-9.5 -38q-6 -16 -14.5 -31t-15.5 -29 q-7 -15 -12.5 -31t-14.5 -28q-15 -19 -35.5 -34t-37.5 -27q-18 -13 -36.5 -27t-39.5 -22q-13 -5 -28.5 -12.5t-30.5 -9.5q-21 -2 -42.5 1t-43.5 3q-15 0 -29.5 -6t-25.5 -4q-25 5 -37 23.5t-12 34.5z" />
<glyph unicode="~" horiz-adv-x="1365" d="M338 319q0 14 4 36.5t23 40.5q20 20 44.5 42t55.5 37q39 18 82.5 27t67.5 9q30 0 194 -78q78 24 114 39q13 6 21.5 15.5t20.5 12.5q22 7 63 6q9 0 21 -19t12 -29q0 -9 -16.5 -31.5t-44.5 -41.5q-24 -16 -50.5 -35.5t-53.5 -31.5q-15 -7 -26.5 -20t-24.5 -16 q-17 -5 -34 -0.5t-22 4.5q-6 0 -24 3.5t-39 12.5q-12 5 -24 13.5t-24 14.5q-26 13 -50 22t-32 9q-56 0 -129 -44.5t-79 -44.5q-12 0 -24.5 9.5t-22.5 27.5z" />
<glyph unicode="&#xa1;" horiz-adv-x="616" d="M150 36q0 16 4 40t12 56q9 33 13 57t6 39q3 23 10.5 78.5t22.5 148.5q11 61 27.5 153t38.5 215q1 11 2.5 26.5t2.5 37.5q5 5 7.5 12.5t5.5 15.5q3 6 9 43t11 103q2 19 52 63.5t67 44.5l13 -6q0 -7 1.5 -20.5t1.5 -19.5q-12 -39 -10 -45q3 -35 7 -70q0 -24 -1.5 -45 t-4.5 -36q-1 -6 -3 -15.5t-8 -23.5q-3 -12 -5 -22t-2 -17q1 -26 3 -48q-3 -19 -5 -43q-1 -8 -0.5 -16.5t-0.5 -18.5q-12 -33 -15.5 -61t-0.5 -50q-10 -35 -15.5 -60t-5.5 -42q0 -9 1 -24t4 -69q6 1 12 3l17 -12q1 -11 1 -16q0 -21 -12 -64.5t-12 -63.5v-55q0 -16 -3 -32.5 t-10 -34.5q-8 -22 -17.5 -35.5t-22.5 -17.5q-6 -2 -12.5 -4.5t-11.5 -5.5q-18 -15 -34 -28.5t-34 -27.5q-24 -19 -44 -28t-36 -9q-13 0 -19.5 12t-6.5 38zM315 1263q0 7 1.5 17t2.5 23q5 16 9 40v26q0 22 9.5 35.5t29.5 17.5q18 4 36 7t37 6q11 3 31 6q23 0 34.5 -21 t11.5 -62q0 -43 -43.5 -81t-86.5 -38q-36 0 -54 6.5t-18 17.5z" />
<glyph unicode="&#xa2;" horiz-adv-x="697" d="M8 273q0 2 1 15.5t6 27.5q4 17 9 33t5 19q3 20 13.5 31.5t17.5 28.5q4 16 21.5 38t35.5 42q28 30 47 44.5t31 14.5l6 13l7.5 5t23.5 15q7 6 12 13t7 17q4 20 9 51.5t9 76.5q3 24 11 37t22 13q9 0 24.5 2t24.5 2q6 0 8.5 -2t2.5 -7q0 -4 -2 -9t-8 -11q-11 -37 -17 -56.5 t-6 -20.5q0 -7 3 -10.5t7 -5.5q22 12 42 23.5t40 21.5q27 11 49.5 18t42.5 7q17 0 24 -7t7 -20v-12.5t-1 -21.5v-18.5v-17.5q1 -8 -15.5 -24.5t-50.5 -41.5q-22 -14 -44 -29t-43 -30q-8 -8 -20.5 -19t-32.5 -25q-8 -6 -14 -10t-9 -9l7 -20q-15 -108 -22.5 -165.5t-7.5 -61.5 q0 -19 5 -29t12 -10q16 0 61.5 21.5t60.5 31.5q5 4 21 9t40 10q12 8 30.5 20.5t44.5 24.5l18 -1q0 -3 1.5 -6t3.5 -5q0 -26 -15 -49.5t-44 -45.5q-24 -16 -48.5 -31t-47.5 -31q-14 -10 -43.5 -25.5t-75.5 -35.5q-19 -6 -30 -25t-19 -50q-5 -28 -12.5 -43t-17.5 -15t-15 5.5 t-5 19.5q0 11 3.5 32t3.5 33q0 4 -1 9t-4 10q-2 2 -7 2h-8q-84 0 -133 35.5t-57 103.5q-4 22 -3.5 33t0.5 13zM170 296q0 -45 11 -68t34 -23q7 0 12.5 10.5t10.5 32.5q5 31 8 47t3 17q-4 12 -5 35.5t1 60.5l-1 2t-1 7l-8 4h-6q-10 -13 -20.5 -25t-20.5 -25 q-9 -10 -13.5 -28.5t-4.5 -46.5z" />
<glyph unicode="&#xa3;" horiz-adv-x="1278" d="M74 372q5 10 13 25t23 36q16 21 27.5 32.5t18.5 11.5q12 0 24 -3.5t26 -12.5q22 -11 49 -24l24 -23l23 -4q17 -12 41 -24t49 -25l9 3q7 18 23 42.5t36 56.5q5 31 12.5 67.5t14.5 78.5q-7 11 -13 13q-10 -2 -55 -10.5t-124 -22.5q-17 -3 -44.5 -6.5t-62.5 -8.5 q-10 2 -15 6t-5 11q10 31 18 52q7 23 12 39q5 20 22.5 35t47.5 25q26 4 50 10t49 10l7 -3q7 -9 14 -14t13 -5q11 0 28.5 2.5t40.5 6.5q27 6 40.5 10t16.5 10q3 10 14.5 64t31.5 152q14 69 29 118.5t30 79.5q1 13 6.5 38t17.5 62q10 30 19.5 53t20.5 36q13 14 33.5 28.5 t46.5 25.5q40 18 61.5 26.5t26.5 8.5q31 0 51 -26t27 -74q3 -18 4.5 -54.5t1.5 -92.5q0 -80 5 -126.5t15 -59.5q7 -10 13 -19t10 -17q0 -17 -53 -58.5t-74 -41.5q-18 0 -27 11t-9 34q0 10 3 32t3 31q0 11 -1 33.5t-2 53.5v51v36q0 38 -4.5 56.5t-14.5 18.5q-9 0 -16 -15 t-13 -45q-4 -20 -6 -39.5t-5 -39.5q-10 -49 -29.5 -120t-49.5 -165q-3 -7 -4.5 -13t-1.5 -11q0 -18 11 -26.5t32 -8.5q6 0 31 3.5t67 11.5q28 2 71 6.5t101 11.5q38 4 70 12q6 0 8.5 -3t2.5 -9q0 -41 -28 -70t-82 -44q-10 -2 -61.5 -10t-146.5 -19q-58 -7 -88.5 -23 t-35.5 -36q-7 -21 -15 -49t-18 -61q0 -6 -1 -11t-1 -11q-8 -21 -16.5 -42t-16.5 -41q-12 -37 -28 -84q0 -20 24 -42.5t72 -43.5q41 -20 73.5 -29.5t55.5 -9.5q8 0 24.5 3t42.5 6q29 4 45.5 7.5t20.5 8.5q31 27 62 55.5t60 55.5q34 33 61 63t46 61q17 21 28.5 32.5t20.5 11.5 q5 0 9 -4.5t4 -14.5q0 -5 -6.5 -22.5t-22.5 -45.5q-2 -16 -10.5 -39t-22.5 -55q-47 -64 -83.5 -107.5t-64.5 -66.5q-47 -45 -97.5 -67t-103.5 -22h-19.5h-25.5h-25h-16q-83 0 -171.5 58t-98.5 58q-38 -29 -71 -57q-15 0 -36.5 8.5t-49.5 26.5q-25 16 -43.5 31t-26.5 31 q-9 12 -21 27.5t-29 38.5q-21 23 -46 53q-13 17 -19.5 33t-8.5 31z" />
<glyph unicode="&#xa4;" horiz-adv-x="1387" d="M110 185l161 159q-56 70 -89 151.5t-33 189.5q0 101 30 182t89 158l-158 159l82 82l159 -159q73 59 159 89.5t182 30.5q97 0 185 -30.5t157 -89.5l158 159l81 -82l-157 -159q61 -74 90 -160.5t29 -179.5q0 -98 -31.5 -187.5t-89.5 -153.5l159 -159l-81 -83l-159 160 q-65 -57 -154.5 -88.5t-186.5 -31.5q-98 0 -181 30t-159 90l-160 -160zM275 685q0 -182 124 -310.5t293 -128.5q172 0 295 129t123 310q0 176 -122 307t-296 131q-175 0 -296 -130.5t-121 -307.5z" />
<glyph unicode="&#xa5;" horiz-adv-x="968" d="M59 766q4 12 7.5 29t7.5 40q3 10 3 20v20q5 13 10 20t13 7q15 -3 26 -5q20 4 37.5 10t17.5 13q-3 17 -5 27q-8 30 -18 88.5t-16 85.5q-9 35 -13 68t-4 64q0 52 17 71t67 18l70 30q38 -1 55.5 -29t17.5 -81q0 -22 -4.5 -59t-4.5 -49q0 -27 1 -57.5t2 -69.5q1 -41 6.5 -75 t15.5 -34q14 0 55.5 8t60.5 7q35 -3 98 7q17 0 30 4.5t22 12.5q6 9 12 23t15 32q9 15 12.5 38.5t21.5 56.5q7 14 17.5 38t27.5 54q20 31 49.5 79t66.5 113q8 11 17 17.5t22 6.5q23 0 33 -11t10 -32q0 -56 -1.5 -91t-5.5 -48q-4 -16 -14.5 -40t-20.5 -56q-12 -39 -28 -74 t-35 -66l-2 -17q0 -6 7.5 -4t15.5 2q10 0 24 2t33 7q23 4 38 7t21 3l7 -5l1 -5q-13 -32 -27 -59q-13 -26 -22.5 -40t-17.5 -19q-19 -4 -38 -7t-39 -7q-22 -4 -58 -2q-21 -39 -37 -65q-33 -56 -52 -86t-19 -35t9 -13.5t15 -8.5q13 0 70 18.5t93 18.5q9 -3 19 -5l1 -5l-1 -10 l-23 -20q-12 -20 -20.5 -41t-14.5 -41l-7 -3q-17 -1 -28.5 -2.5t-15.5 -5.5l-20 2q-20 0 -55 -10.5t-57 -10.5q-17 0 -28.5 -10t-20.5 -30q-18 -47 -38 -94.5t-39 -93.5q-23 -60 -35 -106t-12 -79q0 -11 13.5 -28t13.5 -29q0 -14 -57.5 -55t-77.5 -41q-51 0 -77.5 13 t-26.5 37q0 19 18 87.5t29 86.5q4 5 7 18q3 20 9 45t18 57q10 20 26 55t31 75q-21 26 -31 39.5t-17 13.5q-7 -1 -33 -14.5t-37 -13.5q-13 0 -37.5 2.5t-37.5 2.5q-18 -5 -37 -10q-10 0 -20 2q-6 0 -18 -3.5t-18 -3.5q-14 0 -22 5t-8 17q0 5 5 13.5t14 38.5q3 14 4.5 28 t2.5 28q4 7 22 11.5t50 4.5q48 0 78 5t30 14q-33 80 -35 91q-6 33 -12 51.5t-14 18.5q-32 -12 -43 -19l-35 6l-57 -24q-7 -3 -12 2.5t-9 21.5zM378 790q0 -17 5.5 -40.5t17.5 -52.5q11 -33 28.5 -59.5t29.5 -37.5q30 39 47 65q3 11 12.5 31t23.5 50q14 29 21.5 46t7.5 24 q-17 10 -22 12q-51 -6 -96 -10q-35 -5 -55 -12t-20 -16z" />
<glyph unicode="&#xa6;" d="M451 314h122v-656h-122v656zM451 673v693h122v-693h-122z" />
<glyph unicode="&#xa7;" horiz-adv-x="1089" d="M113 -249q0 27 26 53t79 47q110 44 180 75t96 44q34 17 51.5 35t17.5 37q0 27 -24.5 67t-75.5 90q-12 12 -24 25.5t-27 25.5q-10 9 -23.5 18.5t-23.5 19.5q-12 12 -28 23t-28 24q-9 9 -16.5 21t-16.5 21q-47 48 -73.5 102.5t-26.5 104.5q0 40 20 83t56 81 q26 27 57.5 47.5t74.5 49.5q-9 16 -20.5 30t-17.5 30q-3 11 -11.5 22t-8.5 23q0 8 6 18.5t6 16.5q0 65 45 140t133 160q84 81 152 119t117 38q34 0 63.5 -27t23.5 -63q-4 -27 -32 -61.5t-77 -65.5q-5 -5 -36.5 13.5t-46.5 18.5q-5 0 -13 -4q-70 -57 -103.5 -107t-33.5 -93 q0 -25 20.5 -62t51.5 -79q19 -26 42 -54.5t47 -57.5q18 -21 41.5 -41t40.5 -41q16 -20 29.5 -42.5t25.5 -41.5q9 -15 20.5 -26.5t17.5 -24.5q10 -19 13 -39.5t3 -32.5q0 -76 -55.5 -141.5t-173.5 -118.5q36 -49 51.5 -83.5t15.5 -57.5q0 -68 -52 -142.5t-157 -152.5 q-90 -68 -163 -103.5t-125 -35.5q-17 0 -35.5 4.5t-35.5 14.5q-17 9 -28 23t-11 33zM368 620q0 -12 10.5 -33t27.5 -45q9 -13 24 -27t27 -29q19 -24 36 -50.5t35 -47.5q17 -20 34 -34t25 -23q6 2 12 -7t11 -7q6 3 5 16t4 16q35 25 60.5 54t25.5 60q0 30 -24 68.5t-71 82.5 q-34 32 -73.5 68.5t-76.5 73.5l-28 22q-4 -4 3 -43q-15 -12 -25 -24t-17 -23q-12 -16 -18.5 -33t-6.5 -35z" />
<glyph unicode="&#xa8;" d="M309 937q0 16 6.5 34t16.5 35q8 13 19.5 26.5t23.5 24.5q4 4 7 10.5t8 9.5q6 3 13.5 5t12.5 5q11 6 22 9.5t19 3.5q12 0 22 -2t17 -5q12 -5 18 -15.5t6 -24.5q0 -5 -0.5 -11t-0.5 -11q0 -6 -5.5 -7t-7.5 -7q-3 -8 -2.5 -23.5t-2.5 -22.5q-3 -8 -8.5 -16.5t-11.5 -16.5 t-13 -15t-14 -12q-9 -8 -20 -19.5t-23 -14.5q-10 -3 -22 0.5t-22 3.5q-14 0 -25 3t-18 9t-11 17.5t-4 26.5zM594 929q0 12 2.5 24t5.5 21q2 6 6 12.5t8 11.5q3 4 11 3.5t13 2.5q4 3 12 19q5 2 10.5 6t10.5 9l27.5 27.5t27.5 14.5q9 0 17.5 -1.5t14.5 -3.5q9 -3 16.5 -8.5 t11.5 -12.5q5 -8 8 -18t3 -22q0 -7 -1 -15t-2 -15q-2 -12 -6.5 -24.5t-10.5 -22.5t-13 -20.5t-16 -18.5q-10 -10 -22.5 -19t-25.5 -15q-9 -3 -19.5 -5.5t-20.5 -2.5q-7 0 -15 -1.5t-14 -0.5q-6 2 -20 19q-4 4 -8 11t-7 15q-2 6 -3 14t-1 16z" />
<glyph unicode="&#xa9;" horiz-adv-x="1831" d="M181 653q6 42 13 82q18 109 51 187t79 125q8 9 21 21.5t30 30.5q15 18 30 37.5t29 37.5q9 11 28 22t48 26q14 18 26 31t19 16q28 11 61 24q4 2 20 13.5t43 29.5q11 7 28.5 13t41.5 10q99 15 198 27q104 0 198.5 -18.5t178.5 -58.5q98 -47 162.5 -113.5t96.5 -155.5 q10 -27 23.5 -68.5t33.5 -97.5q-1 -10 0 -33t6 -59q6 -40 8 -66t2 -37q0 -30 -4 -68.5t-13 -87.5q-10 -56 -21.5 -92t-26.5 -51q-5 -5 -13 -16.5t-18 -25.5q-6 -23 -10 -36.5t-10 -22.5q-6 -10 -18 -20t-32 -17l-18 -32t-18 -31q-12 -20 -24.5 -32.5t-22.5 -18.5 q-13 -8 -32.5 -19.5t-45.5 -28.5q-11 -25 -37.5 -43t-68.5 -28l-33 -30q-7 -6 -14 -10.5t-14 -5.5q-13 -2 -41 -11t-71 -24q-40 -14 -62 -21t-28 -7q-59 8 -120 17q-32 1 -73.5 6t-93.5 14q-23 10 -59.5 22.5t-83.5 27.5q-67 22 -124.5 69t-105.5 120q-42 65 -67.5 136.5 t-33.5 147.5q-10 96 -18 193zM283 646q1 -9 4 -23.5t8 -32.5q4 -14 4.5 -32.5t0.5 -47.5q0 -8 8.5 -40t25.5 -80l27 -77q3 -8 22 -30.5t54 -59.5q21 -22 53.5 -50t76.5 -61q7 -6 16.5 -14t23.5 -16q9 -5 24.5 -9.5t34.5 -14.5q15 -8 31 -15t30 -17q11 -8 29 -9t40 -3 q73 -6 135 -11q38 5 68 7.5t50 3.5q14 1 32.5 6.5t39.5 15.5q61 30 102 53t59 41q70 70 136 139q14 10 30.5 28.5t34.5 45.5q14 32 27 63.5t26 63.5q11 26 16.5 63.5t5.5 82.5q0 120 -25 215t-77 168q-12 16 -24.5 35.5t-24.5 37.5q-14 20 -29.5 35.5t-31.5 26.5q-4 3 -12 8 t-13 11q-13 13 -19.5 20.5t-9.5 11.5q-6 7 -15.5 12.5t-20.5 11.5q-18 7 -42 18t-57 26q-11 1 -27 4t-37 8q-9 4 -16 11q-43 -7 -87 -12q9 0 -6.5 2.5t-55.5 11.5q-15 -5 -23 -7q-10 -2 -24.5 -4t-35.5 -3q-21 -8 -54 -17t-77 -20q-27 -3 -67 -27t-94 -70q-49 -41 -82.5 -77 t-52.5 -63q-13 -19 -26.5 -40t-27.5 -38q-4 -5 -10.5 -15.5t-14.5 -23.5q-1 -11 -8 -30.5t-15 -51.5q-8 -29 -16.5 -65t-16.5 -80zM626 551q0 81 27.5 160t85.5 153q62 80 130.5 121t146.5 41q63 0 94.5 -37t31.5 -108q0 -10 -1 -30t-1 -30q0 -7 -8 -39.5t-19 -91.5 q-13 -67 -41 -99t-69 -32q-25 0 -37 10t-12 31q0 90 11 147.5t33 81.5q6 5 12 13.5t11 19.5l-4 10l-31 15h-6q-39 0 -72 -20t-61 -61q-22 -32 -36 -69.5t-24 -81.5q-2 -23 -7 -59t-11 -82q12 -23 22.5 -46.5t22.5 -46.5q15 -21 37.5 -32t51.5 -11q58 0 127 51t80 51 q16 0 30.5 -27.5t14.5 -44.5q0 -10 -13.5 -24.5t-42.5 -31.5q-45 -27 -73 -43t-38 -21q-30 -16 -60 -22.5t-61 -6.5q-25 0 -50 7t-49 18q-44 20 -73.5 47t-45.5 63q-11 24 -17 63.5t-6 93.5z" />
<glyph unicode="&#xaa;" horiz-adv-x="742" d="M58 649q7 11 18 32t21 49q2 6 10 10.5t21 4.5q5 0 10 -2.5t26 -6.5q7 -1 24.5 -2t44.5 -1t80 6.5t79 6.5h79q7 0 19.5 -2t31.5 -6q17 -4 30.5 -5t22.5 0l92 10q18 -8 27.5 -25.5t9.5 -41.5q0 -16 -28.5 -28t-84.5 -21q-20 6 -32.5 9.5t-14.5 3.5q-25 0 -74.5 -6.5 t-73.5 -6.5l-13 3.5t-40 9.5q-29 -6 -51.5 -9.5t-38.5 -3.5q-19 0 -55.5 6t-54.5 6l-16 -2.5t-47 -4.5q-3 1 -9 4.5t-13 12.5zM97 907.5q-3 15.5 4 30.5q5 13 7.5 21.5t7.5 19.5q4 8 10.5 20.5t9.5 17.5q14 23 25.5 42t23.5 35q23 32 64.5 72t99.5 84q70 53 118.5 79.5 t78.5 26.5q23 0 34.5 -11.5t11.5 -32.5q0 -19 -15 -34.5t-46 -30.5q-15 -14 -38.5 -37.5t-56.5 -53.5q-30 -27 -73.5 -73t-98.5 -106q6 3 38 29.5t93 76.5q48 39 77 59.5t39 20.5q54 0 57 -86t37 -86q22 0 51 32.5t37 32.5q7 0 13.5 -18t11.5 -56q-1 -4 -15 -16.5t-39 -36.5 q-32 -30 -60.5 -44t-54.5 -14q-46 0 -75 33t-39 99q-2 -3 -19 -18t-49 -43q-21 -19 -44.5 -40.5t-46.5 -40.5q-30 -25 -57.5 -36.5t-53.5 -11.5q-32 0 -48.5 17.5t-16.5 51.5q0 10 -3 25.5z" />
<glyph unicode="&#xab;" horiz-adv-x="950" d="M96 332q0 20 4.5 39t15.5 34q16 25 60.5 73t117.5 118q21 17 42.5 35t43.5 35q5 4 11 10t16 13q23 10 40.5 18.5t30.5 14.5q35 0 50.5 -9.5t15.5 -27.5q0 -8 -6.5 -15.5t-17.5 -16.5q-17 -11 -39.5 -30t-49.5 -44q-10 -6 -21.5 -14.5t-25.5 -20.5q-15 -18 -45 -52.5 t-60 -70.5q-13 -17 -20 -38t-7 -44q0 -28 12 -49.5t25 -44.5q9 -20 27 -51t43 -74q3 -4 5.5 -9.5t2.5 -10.5q0 -21 -26 -31t-79 -10q-20 0 -46 28t-60 86q-30 55 -45 94t-15 65zM380 308q0 10 11 34.5t34 62.5q5 2 10 6t12 10q18 29 51 61t82 68q14 13 38 31.5t55 44.5 q6 3 14.5 8.5t21.5 15.5l4 9q19 17 41 24t47 7q34 0 50.5 -9t16.5 -28q0 -6 -6 -11.5t-16 -11.5q-15 -8 -37 -18l-81 -63q-5 -5 -13.5 -13t-19.5 -16q-6 -4 -12.5 -9t-13.5 -10l-29 -46q-31 -34 -61 -63q-20 -20 -31 -41.5t-11 -44.5q0 -17 14.5 -42t15.5 -41q10 -8 23 -24 t26 -36q16 -23 23.5 -38t7.5 -22q0 -11 -23.5 -25.5t-69.5 -31.5q-11 1 -29.5 16t-44.5 47q-59 69 -63.5 72.5t-19.5 59.5q-7 28 -12 44.5t-5 22.5z" />
<glyph unicode="&#xac;" d="M72 457v90h880v-547h-210v457h-670z" />
<glyph unicode="&#xad;" horiz-adv-x="515" d="M-13 361q0 6 10 17.5t29 28.5q4 8 10.5 20.5t15.5 29.5q7 1 17.5 4.5l25.5 8.5q28 -7 47 -15q34 6 69 13h186q27 0 39 -14t12 -42q0 -40 -16.5 -60t-47.5 -20q-10 0 -31 3t-31 3h-57q-36 -7 -72 -13q-87 14 -97 14q-13 0 -34.5 -3.5t-34.5 -3.5q-18 0 -29 7.5t-11 21.5z " />
<glyph unicode="&#xae;" horiz-adv-x="1831" d="M193 653q8 42 15 82q20 109 52 187t78 125q8 9 22 21.5t30 30.5q14 18 29 37.5t29 37.5q9 11 27.5 22t50.5 26q13 18 23.5 31t19.5 16q30 11 61 24q5 2 20.5 13.5t42.5 29.5q11 7 28.5 13t41.5 10q99 15 197 27q106 0 199.5 -19t176.5 -58q101 -47 165 -113.5t95 -155.5 q9 -27 23.5 -68.5t34.5 -97.5q-1 -10 0.5 -33t5.5 -59q4 -40 6.5 -66t2.5 -37q0 -30 -4.5 -68.5t-13.5 -87.5q-10 -56 -21.5 -92t-23.5 -51q-4 -6 -13 -17t-20 -25q-5 -23 -9.5 -37t-9.5 -22q-6 -10 -19 -20t-31 -17q-9 -16 -18 -32.5t-18 -30.5q-13 -20 -25 -32.5 t-22 -18.5q-13 -8 -32.5 -19.5t-45.5 -28.5q-11 -25 -37.5 -43t-68.5 -28l-34 -30q-5 -5 -12.5 -10t-14.5 -6q-13 -2 -41 -11t-71 -24q-40 -14 -90 -28q-60 8 -120 17q-32 1 -73.5 6t-92.5 14q-23 10 -59.5 22t-84.5 28q-67 22 -124.5 69t-105.5 120q-42 65 -68.5 136.5 t-32.5 147.5q-8 96 -20 193zM295 645q8 -59 13 -92t5 -43q0 -9 9 -39.5t25 -80.5l25 -77q3 -9 22 -31.5t55 -58.5q22 -22 55.5 -50t75.5 -61q7 -7 16 -14.5t23 -15.5q11 -5 25.5 -9.5t34.5 -14.5q14 -7 29.5 -14.5t31.5 -17.5q12 -8 28.5 -9t40.5 -3q72 -7 135 -11 q37 4 66.5 7t51.5 4q14 1 32 6.5t39 15.5q62 30 102.5 53t61.5 40q67 71 135 140q15 10 31 28t34 46q12 31 25 62.5t27 63.5q12 27 17 63t5 84q0 119 -25.5 214.5t-76.5 167.5q-12 16 -25 35.5t-26 38.5q-14 20 -29 35.5t-30 26.5q-4 3 -11 8t-17 10q-9 14 -26 32 q-7 8 -16 13.5t-22 10.5q-16 8 -41.5 19t-55.5 25q-11 2 -27 5t-36 8q-10 4 -20 11q-42 -7 -85 -13q10 0 -6 3t-56 12q-15 -6 -21 -7q-11 -2 -26 -4t-34 -4q-20 -7 -54.5 -16t-79.5 -20q-25 -3 -65 -27.5t-92 -70.5q-47 -42 -83 -77t-52 -62q-14 -24 -28 -42.5t-28 -36.5 q-5 -7 -12 -16t-13 -22q-2 -11 -8 -31t-17 -52q-2 -7 -10 -43t-22 -102zM670 576q0 20 12.5 35.5t36.5 25.5q4 8 11 19q-7 60 -12 119q4 16 5 31q-5 23 -9 56t-4 75q0 53 47 79.5t140 26.5q15 0 43.5 -9.5t64.5 -23.5q43 -17 72.5 -33t45.5 -30q27 -23 40 -51.5t13 -64.5 q0 -30 -12 -55t-40 -48q-9 -8 -35 -24t-65 -38q-24 -14 -61.5 -32.5t-88.5 -44.5q36 -30 91 -73t129 -98q53 -33 78 -64.5t25 -62.5q0 -25 -10 -37t-31 -12q-80 36 -153 73q-12 6 -25 15.5t-26 23.5q-28 18 -61.5 40.5t-71.5 48.5q-14 -81 -30 -120t-31 -39 q-33 0 -49.5 13.5t-16.5 39.5q0 30 8 90t8 90q-19 13 -28.5 27.5t-9.5 31.5zM791 871q4 -3 10 -7l30 3q26 -10 38 -26t12 -35q-10 -54 -22 -110q15 4 40 18t58 37q31 22 51 38.5t25 25.5q1 14 -19.5 28t-63.5 25q-35 9 -63 14t-51 5q-10 0 -21 -4.5t-24 -11.5z" />
<glyph unicode="&#xaf;" horiz-adv-x="1130" d="M98 1580q0 10 4 21.5t13 24.5q24 35 39 52t24 16q15 0 43 -2.5t67 -2.5h81h99h84.5h95.5q9 0 17 -3t17 -3q8 0 16.5 2t16.5 2h21h20h18h18q135 0 232 2t150 2q22 0 37.5 1.5t23.5 1.5q12 1 21 -2.5t15 -11.5t9.5 -21.5t3.5 -30.5q0 -13 -2 -25t-5 -21q-6 -15 -16.5 -22.5 t-25.5 -5.5q-6 0 -17.5 0.5t-23.5 0.5q-6 0 -13.5 2t-14.5 2q-18 1 -40 2.5t-46 1.5q-45 2 -103 3t-127 1q-43 0 -91 0.5t-100 0.5q-24 0 -49.5 -1t-49.5 -1q-19 0 -38 -1t-36 -1q-6 0 -12 2t-12 2q-16 0 -33 -1t-31 -1q-38 0 -71.5 -1t-60.5 -1q-23 0 -43 -1.5t-35 -1.5 q-24 -1 -40.5 -3t-22.5 -4q-13 -4 -20 2t-7 24z" />
<glyph unicode="&#xb0;" d="M383 1086q0 51 36.5 119t67.5 77t58.5 11.5t49.5 2.5q89 0 132.5 -50t43.5 -149q0 -54 -67.5 -103.5t-138.5 -49.5q-90 0 -136 35t-46 107zM487 1083q0 -30 11 -44.5t32 -14.5q45 0 83.5 43t38.5 96q0 23 -18 35t-55 12q-33 0 -48 -11.5t-29 -49.5q-7 -20 -11 -36.5 t-4 -29.5z" />
<glyph unicode="&#xb1;" d="M27 -65q0 25 34 63t54 36q57 -3 155 -4.5t240 -2.5q160 -1 266 1t161 6q30 3 43.5 -12t13.5 -38q0 -30 -14.5 -45t-42.5 -15q-48 0 -188 0.5t-374 5.5q-132 2 -211.5 -0.5t-107.5 -5.5q-14 -2 -21.5 -0.5t-7.5 11.5zM67 656q6 43 8 66.5t2 29.5q0 14 10 20.5t29 7.5 q16 -1 30 -3t27 -2q26 0 40 4l101 -17q11 4 24 7t27 4h24h31q20 -1 33.5 -1h19.5q1 10 3 25t5 36l-1 7q1 5 3.5 11.5t3.5 14.5l-7 25q3 10 8 51.5t10 114.5q0 15 1 31.5t2 32.5q3 25 11.5 36t21.5 11q42 0 45.5 1.5t14.5 0.5q26 -2 38.5 -8t12.5 -18q0 -7 -1.5 -16.5 t-4.5 -22.5q-2 -15 -4 -25t-2 -15q-4 -40 -9 -98.5t-10 -136.5q-2 -10 -4.5 -24t-5.5 -31q8 -3 19.5 -2.5t29.5 2.5l13 -9l12 9q12 -3 18 -3l6 -6l20 9l26 -12q48 6 82 9t52 3q6 0 17.5 -2.5t30.5 -6.5q18 6 45 11q15 0 22.5 -7.5t7.5 -23.5q-2 -12 -5 -22q0 -12 -1.5 -26 t-3.5 -28q-2 -17 -10 -25.5t-21 -8.5q-14 0 -39.5 4t-36.5 4q-16 -4 -33 -8l-79 8l-31 -11l-33 11q-13 -4 -21 -6t-13 -2q-12 0 -35.5 4t-35.5 4q-11 -1 -18 -4q0 -12 -2.5 -40.5t-7.5 -74.5q-5 -43 -6 -66.5t-1 -29.5l8 -53q-3 -18 -5.5 -36t-7.5 -35q-7 -33 -12.5 -49 t-10.5 -16l-40 10q-18 -4 -36 -5.5t-34 -1.5l-10 16q6 32 8 59.5t2 50.5q0 9 5 32t15 63q-6 34 -11 69q10 55 20 113q-29 1 -70 -0.5t-95 -2.5q-37 -7 -66.5 -9.5t-46.5 -2.5q-7 0 -116 20z" />
<glyph unicode="&#xb2;" horiz-adv-x="587" d="M40.5 562.5q-3.5 2.5 22.5 38.5q9 13 26 35t41 53q19 24 44 55t55 69q19 24 36 46t32 42q24 33 42.5 62t30.5 53q10 21 15.5 38.5t5.5 29.5q0 14 -12 27t-30 22t-41 14.5t-44 5.5q-14 0 -27.5 -1.5t-24.5 -4.5q-15 -3 -28 -10t-22 -14q-17 -5 -20 -10q-1 -21 -3 -25 q-9 -18 -17.5 -34t-15.5 -16q-6 0 -16.5 14t-18.5 33q-3 9 -7 19t-6 19q-3 10 -4.5 20t-1.5 17v23.5t3 22.5q3 8 9 15.5t10 14.5q6 9 14.5 19t17.5 17t22 13.5t25 10.5q18 6 38 9.5t41 3.5l18 -1q7 0 15 -0.5t15 -0.5l10 -1q42 -3 78 -14t63 -27l15 -9l8 -12l13 -7 q19 -18 30 -42t11 -49q0 -9 -1 -20l-2 -22t-4.5 -23.5t-6.5 -24.5t-9.5 -26.5t-12.5 -28.5q-9 -20 -21 -41t-26 -42q-9 -13 -22.5 -31.5t-28.5 -39.5q-13 -19 -31 -42t-37 -47q-7 -9 -15 -18l-16 -18q-9 -11 -17 -20.5t-15 -18.5q-6 -8 -15 -22t-11 -20q-7 -15 -1 -31 q5 -10 23.5 -7.5t57.5 2.5q24 0 62 -4.5t89 -0.5q43 4 89 4l4 -10q0 -18 -30 -55.5t-48 -42.5q-12 -4 -26 -8t-27 -7q-19 -3 -40 -6.5t-42 -6.5q-22 -2 -45.5 -3.5t-47.5 -1.5q-11 0 -22 0.5t-21 0.5q-18 0 -36 2t-34 5q-11 2 -22 4.5t-20 5.5q-8 3 -15 9.5t-12 15.5 q-4 8 -6.5 19.5t-2.5 25.5q0 9 -3.5 11.5z" />
<glyph unicode="&#xb3;" horiz-adv-x="587" d="M23 473q17 13 32 22t35.5 22t44.5 28q28 18 60 38.5t61 41.5l16 11q4 3 9 6.5t9 6.5l17 9q12 10 25 19t21 18q7 9 12 30q-21 14 -37 20q-13 4 -30 11t-34 13q-14 5 -31.5 7t-30.5 8q-10 5 -20.5 13t-16.5 16q-9 10 -13 21.5t-4 19.5q0 10 5.5 24t16.5 27q12 14 23.5 28.5 t20.5 26.5q15 19 29.5 37.5t26.5 33.5q17 22 31 41.5t23 34.5q18 27 24.5 42.5t2.5 17.5q-7 3 -19.5 6t-26.5 3q-23 0 -57.5 -7.5t-81.5 -21.5q-41 -13 -86 -24q-9 6 -9.5 22.5t4.5 37.5q5 19 14.5 41t20.5 39q9 13 19.5 23t19.5 13q14 3 28.5 6t28.5 5q18 3 36.5 6t36.5 4 q12 1 25 2t25 1q16 0 32 -1t28 -2q13 -1 25.5 -4.5t22.5 -6.5q13 -4 24 -11t18 -15q8 -9 12.5 -21.5t4.5 -24.5q0 -6 -1.5 -13.5t-4.5 -15.5q-6 -15 -16.5 -35t-23.5 -41q-3 -6 -8 -13t-9 -13q-3 -4 -4 -9t-4 -9t-8.5 -9.5t-8.5 -9.5q-6 -9 -13 -18.5t-13 -18.5 q-18 -26 -39 -51.5t-35 -45.5q-12 -18 -17.5 -30.5t-5.5 -17.5q5 -8 10 -11q20 -3 26 -6q5 -2 8.5 -7t9.5 -7q10 -3 20.5 -7.5t19.5 -7.5q11 -4 21.5 -9t18.5 -8t15.5 -7.5l12.5 -7.5q7 -4 13.5 -9.5t11.5 -11.5q6 -6 12 -14t9 -16q3 -9 5.5 -19t2.5 -19t-1 -17.5t-3 -16.5 q-3 -11 -8.5 -22.5t-12.5 -21.5q-3 -4 -7.5 -9.5t-8.5 -10.5q-5 -5 -10 -10.5t-10 -9.5q-4 -3 -9.5 -8t-10.5 -9q-9 -6 -20 -14.5t-23 -17.5q-9 -6 -20.5 -14t-23.5 -16q-12 -7 -24.5 -18t-27.5 -19l-20 -6l-9 -16l-14 3q-11 -6 -24.5 -11.5t-28.5 -8.5q-8 -1 -17 -3t-18 -2 l-16 -9l-17 7q-11 0 -21.5 1t-18.5 1q-13 1 -23.5 4.5t-16.5 6.5t-10 8.5t-4 11.5z" />
<glyph unicode="&#xb4;" d="M375 843q-2 8 3 17q3 7 15 16t21 18q6 6 16 19.5t17 19.5q14 12 25 22.5t21 19.5q18 16 31.5 24.5t19.5 14.5q9 9 17.5 18.5t14.5 18.5q10 15 12.5 30.5t7.5 26.5q9 18 23 27t30 9q10 0 18 -5.5t15 -14.5q5 -7 10 -15t8 -15q6 -15 9.5 -30t3.5 -27t-3.5 -23.5t-9.5 -21.5 q-6 -11 -17.5 -22.5t-26.5 -20.5q-9 -6 -19 -11.5t-21 -9.5q-7 -3 -16.5 -14t-15.5 -14q-12 -7 -22.5 -8.5t-22.5 -9.5t-20.5 -16.5t-20.5 -16.5q-5 -4 -18.5 -7.5t-18.5 -6.5q-9 -6 -14.5 -17t-11.5 -14q-12 -7 -32 -11q-10 0 -18 10t-8 25q0 7 -2 15z" />
<glyph unicode="&#xb5;" horiz-adv-x="832" d="M-109 -202q0 23 3 39.5t14 76.5q6 29 16 54t26 45q26 34 44.5 66.5t34.5 60.5q18 56 34.5 107t32.5 95q5 15 12.5 29t11.5 27q9 24 16.5 47t14.5 43q3 8 3 15.5t3 14.5q9 20 23 37t23 35q6 11 11 22t11 21q7 11 23.5 20.5t40.5 21.5q16 8 29.5 11.5t20.5 3.5 q16 0 22.5 -7.5t5.5 -20.5q-39 -138 -66 -247.5t-27 -165.5q0 -33 10 -48.5t25 -15.5q18 0 49.5 30t76.5 94q23 32 51 70t57 79q10 15 23.5 22t24.5 15q12 8 22 17t21 9q12 0 25 -2t20 -8q9 -8 12.5 -23t3.5 -30q0 -23 1 -43.5t2 -36.5q2 -19 5.5 -34.5t7.5 -27.5 q7 -21 18 -30.5t24 -9.5q12 0 28.5 9.5t32.5 24.5q5 -14 8 -30.5t11 -43.5q0 -11 7.5 -16t2.5 -9q-46 -36 -88.5 -57.5t-81.5 -21.5q-21 0 -40 7t-34 19q-13 10 -24.5 26.5t-19.5 37.5q-6 15 -11 33.5t-8 38.5q-10 -15 -21 -29t-20 -26q-13 -17 -26 -33t-25 -31 q-6 -7 -13.5 -13t-11.5 -12q-6 -9 -11 -20t-13 -19q-47 -44 -92.5 -65.5t-77.5 -21.5q-27 0 -51.5 19t-41.5 54q-52 -204 -92.5 -303.5t-68.5 -94.5q-38 7 -59 32.5t-21 66.5z" />
<glyph unicode="&#xb6;" horiz-adv-x="1042" d="M80 634q0 104 92 268t222 271q80 67 154 98t142 31q133 0 215 -18.5t113 -48.5q20 -19 24.5 -45.5t-4.5 -52.5q-1 -6 -9 -11.5t-21 -1.5q-24 7 -66.5 16.5t-89.5 16.5q-3 -24 -7.5 -50t-8.5 -52q-5 -36 -10 -76.5t-11 -79.5q-6 -42 -6.5 -85.5t-6.5 -88.5q-3 -18 -10 -37 t-10 -38q-12 -56 -22 -115t-17 -117q-18 -140 -31.5 -262.5t-21.5 -225.5q-3 -35 -3.5 -68.5t-2.5 -63.5q-2 -25 -7.5 -50t-6.5 -47q0 -19 -41.5 -35.5t-87.5 -16.5q-8 0 -11.5 11.5t0.5 34.5q7 47 17.5 132.5t25.5 206.5q12 106 28.5 240.5t35.5 295.5q12 100 28.5 213 t30.5 235q3 21 5.5 43.5t5.5 44.5q0 7 6.5 17t7.5 18q0 8 -3 14.5t-3 14.5q-16 0 -33 1t-35 1q-76 0 -145 -52t-130 -155q-55 -96 -82.5 -201t-27.5 -208q0 -60 23.5 -89.5t68.5 -29.5q9 0 24 12t30 17q7 3 29 -4q9 8 5 19t4 14q13 6 44 -18q10 0 18 -16q0 -36 -78.5 -101 t-123.5 -65q-15 0 -34.5 5.5t-37.5 18.5l-6 17q-4 6 -12 9t-12 9q-26 28 -50 65.5t-41 76.5q-15 36 -24 71.5t-9 66.5z" />
<glyph unicode="&#xb7;" horiz-adv-x="590" d="M192 766q0 5 0.5 10t0.5 10q1 10 4 20t5 16q3 7 8 13.5t11 9.5q6 4 14.5 6.5t16.5 2.5q17 2 22 1q13 -9 17 -11q6 -3 11.5 -7t11.5 -8t11.5 -10t9.5 -12q6 -8 12 -18t10 -21q6 -15 10.5 -33t4.5 -35q0 -9 0.5 -21t-4.5 -22q-2 -4 -17 -14l4 -16l-5 -11l-21 -1 q-5 -3 -20 -6q-12 0 -23.5 4.5t-21.5 10.5q-11 6 -21 16.5t-17 21.5q-8 11 -15 25t-11 28q-3 12 -5.5 25.5t-2.5 25.5z" />
<glyph unicode="&#xb8;" d="M254.5 -196q2.5 17 4.5 21q3 7 7.5 35t7.5 33q6 11 18 25.5t18 26.5q4 8 9.5 17.5t10.5 18.5q3 5 6 10.5t6 9.5q3 6 7 12.5t7 11.5q9 15 25 31q5 0 11.5 -1.5t12.5 -3.5q15 -6 29 -15.5t14 -15.5q-5 -15 -9 -25q-3 -8 -8.5 -19.5t-11.5 -24.5q-4 -9 -9 -17.5t-10 -21.5 q7 2 16 4t14 3q11 3 23 7.5t21 7.5q7 2 21 4.5t20 3.5q8 1 19.5 -3t17.5 -3q13 1 21 -4t15 -6q8 -1 12 -5.5t6 -9.5q3 -8 5.5 -25.5t-2.5 -32.5q-4 -11 -4.5 -25.5t-9.5 -31.5q-2 -4 -8 -19t-11 -24q-7 -13 -17.5 -30.5t-18.5 -28.5q-9 -13 -23.5 -22t-25.5 -21 q-6 -6 -13.5 -17.5t-14.5 -16.5q-9 -7 -12.5 -18t-23.5 -1q-7 4 -16 -7t-17 -16q-15 -9 -29.5 -18t-27.5 -14q-11 -4 -25.5 2.5t-20.5 10.5q-4 3 -9 19.5t-8 24.5q-19 57 92.5 101.5t111.5 61.5l7 42q-57 -2 -69 -3q-7 -1 -16.5 -10.5t-21.5 -10.5q-5 0 -12.5 -5.5 t-13.5 -6.5q-10 4 -15 3t-13 -5.5t-13 -7.5q-22 -5 -27 -1q-25 14 -27 19q-5 10 -2.5 27z" />
<glyph unicode="&#xb9;" horiz-adv-x="587" d="M80 928q-1 23 0.5 37.5t6.5 21.5q9 10 17.5 21t17.5 20q14 16 27.5 32t25.5 31q9 11 15.5 24t15.5 23q8 10 19.5 17.5t18.5 16.5q17 20 32.5 37.5t27.5 32.5q19 21 34.5 37.5t25.5 26.5q10 11 26 22q8 0 16.5 -1.5t17.5 -4.5q8 -2 15.5 -6t13.5 -8q10 -7 17 -16.5 t7 -19.5q0 -19 -1 -40t-1 -42q-1 -27 -4 -56.5t-6 -59.5q-3 -28 -7 -58l-8 -60q-2 -18 -9.5 -37.5t-10.5 -38.5q-3 -16 -2.5 -33.5t-2.5 -34.5q-6 -32 -10.5 -66t-11.5 -68q-4 -21 -8.5 -42t-9.5 -42q-3 -11 -9.5 -23.5t-12.5 -24.5t-17 -24.5t-19 -22.5q-10 -15 -22 -27.5 t-22 -20.5q-12 -10 -23 -15t-17 -2q-5 10 -5 19q5 32 10 59q2 15 3 33t5 41q1 9 3.5 21.5t3.5 23.5q2 11 7.5 24t7.5 25l6 34t5 34q3 19 6.5 39.5t5.5 38.5l8 58t7 56q2 23 4.5 46t3.5 44q1 20 2.5 40.5t1.5 39.5q-6 -6 -12 -14t-13 -14q-6 -6 -14.5 -10.5t-14.5 -11.5 q-6 -6 -16 -17t-16 -17q-9 -8 -19.5 -15t-19.5 -16t-18.5 -21.5t-18.5 -21.5q-12 -12 -21.5 -24t-18.5 -20q-12 -12 -36 -23q-8 20 -10 43z" />
<glyph unicode="&#xba;" horiz-adv-x="742" d="M59 649q9 11 19 32t21 49q2 6 9.5 10.5t22.5 4.5q14 -5 32 -9q9 -2 26 -2.5t45 -0.5q25 0 79 6.5t80 6.5h78q8 0 21.5 -2t30.5 -6t30.5 -5t22.5 0l92 10q18 -8 26.5 -25.5t8.5 -41.5q0 -16 -27.5 -28t-83.5 -21q-20 6 -48 13q-24 0 -73.5 -6.5t-73.5 -6.5q-26 7 -53 13 q-29 -6 -52 -9.5t-38 -3.5q-19 0 -55.5 6t-53.5 6q-32 -5 -63 -7q-16 8 -23 17zM206 937q0 10 4.5 29t15.5 49q1 13 2 19q6 42 15 74t22 56q11 20 35 45.5t60 57.5q20 23 43.5 46t56.5 23q23 0 35 -7t14 -20l-12 -24q20 8 38 13t34 5q60 0 90 -38.5t30 -114.5q-4 -16 -9 -30 t-10 -29q-18 -58 -49 -106t-72 -86q-46 -43 -97.5 -64.5t-107.5 -21.5q-69 0 -103.5 31t-34.5 93zM348 958q0 -20 6.5 -29.5t20.5 -9.5q18 0 34.5 7t31.5 19q38 30 57.5 47t23.5 22q18 20 27.5 44.5t9.5 51.5q0 26 -12.5 39.5t-37.5 13.5q-16 0 -47.5 -40t-63.5 -45 q-24 -45 -37 -75.5t-13 -44.5z" />
<glyph unicode="&#xbb;" horiz-adv-x="950" d="M14 125q10 17 22 23q17 7 36 17l83 64q4 4 12.5 11.5t20.5 17.5q5 3 11.5 7t13.5 11l28 46q33 33 61 62q22 20 32.5 41.5t10.5 44.5q0 18 -14 43t-17 40q-19 18 -48.5 62.5t-29.5 57.5q0 12 24 26t69 31l10 -1q3 -4 9 -10l14 -14q13 -10 31 -28t41 -43q6 -12 16 -27 l15 -11q5 -3 21.5 -59.5t16.5 -66.5q0 -12 -11.5 -36t-34.5 -62q-14 -10 -22 -17q-17 -27 -50.5 -59t-82.5 -68q-14 -13 -37.5 -32.5t-55.5 -45.5q-6 -2 -15 -8t-21 -15l-4 -8q-19 -17 -41 -25t-46 -8q-33 0 -50.5 9.5t-17.5 29.5zM337 93q37 40 75 70q42 33 86 70 q15 18 45 53t60 69q13 17 19.5 37t6.5 45q0 16 -2.5 28t-7.5 22q-6 11 -12.5 22.5t-13.5 23.5q-9 20 -26 50.5t-43 72.5l-5.5 11t-2.5 10q0 22 26.5 32t79.5 10q18 0 44.5 -28.5t58.5 -86.5q31 -55 46 -94.5t15 -62.5q0 -30 -15 -62.5t-45 -66.5q-7 -6 -17 -17.5t-23 -26.5 q-33 -32 -65 -63t-67 -61q-38 -33 -75.5 -56.5t-74.5 -36.5q-33 0 -50 8.5t-17 27.5z" />
<glyph unicode="&#xbc;" horiz-adv-x="1504" d="M80 928q-1 23 0.5 37.5t6.5 21.5q9 10 17.5 21t17.5 20q14 16 27.5 32t25.5 31q9 11 15.5 24t15.5 23q8 10 19.5 17.5t18.5 16.5q17 20 32.5 37.5t27.5 32.5q19 21 34.5 37.5t25.5 26.5q10 11 26 22q8 0 16.5 -1.5t17.5 -4.5q8 -2 15.5 -6t13.5 -8q10 -7 17 -16.5 t7 -19.5q0 -19 -1 -40t-1 -42q-1 -27 -4 -56.5t-6 -59.5q-3 -28 -7 -58l-8 -60q-2 -18 -9.5 -37.5t-10.5 -38.5q-3 -16 -2.5 -33.5t-2.5 -34.5q-6 -32 -10.5 -66t-11.5 -68q-4 -21 -8.5 -42t-9.5 -42q-3 -11 -9.5 -23.5t-12.5 -24.5t-17 -24.5t-19 -22.5q-10 -15 -22 -27.5 t-22 -20.5q-12 -10 -23 -15t-17 -2q-5 10 -5 19q5 32 10 59q2 15 3 33t5 41q1 9 3.5 21.5t3.5 23.5q2 11 7.5 24t7.5 25l6 34t5 34q3 19 6.5 39.5t5.5 38.5l8 58t7 56q2 23 4.5 46t3.5 44q1 20 2.5 40.5t1.5 39.5q-6 -6 -12 -14t-13 -14q-6 -6 -14.5 -10.5t-14.5 -11.5 q-6 -6 -16 -17t-16 -17q-9 -8 -19.5 -15t-19.5 -16t-18.5 -21.5t-18.5 -21.5q-12 -12 -21.5 -24t-18.5 -20q-12 -12 -36 -23q-8 20 -10 43zM226 -30q0 12 2 26q0 8 -0.5 18t2.5 20q2 7 8 15t9 16q3 9 6.5 19t8.5 21q3 8 9 17.5t10 18.5q5 10 7.5 23.5t9.5 25.5q5 9 15 16.5 t15 16.5q8 13 16 26.5t16 25.5q15 24 25 51.5t23 49.5q18 30 39 57.5t39 53.5q32 47 59.5 91t50.5 83q49 82 87 147.5t63 111.5q3 7 4.5 15t4.5 14q5 9 18 17.5t16 14.5q19 33 37 64.5t34 60.5q27 48 50 92t41 82q10 22 17 44t13 41q4 11 11 21.5t9 19.5q4 8 15 16t28 16 q9 3 21 7.5t25 8.5q16 4 30.5 7t25.5 3q20 0 27 -9t4 -26q0 -6 -2 -13.5t-4 -14.5q-3 -15 -10 -32.5t-15 -36.5q-12 -30 -30.5 -67t-41.5 -79q-18 -32 -39 -68t-45 -75q-13 -22 -26.5 -47.5t-28.5 -49.5q-8 -13 -22.5 -25.5t-23.5 -25.5q-7 -11 -11.5 -24.5t-10.5 -24.5 q-108 -163 -214 -325.5t-212 -324.5q-38 -60 -61 -111.5t-33 -88.5q-13 -48 -40 -65t-49 -17q-12 0 -20.5 9t-10.5 26q-1 9 -1 21zM885 317q1 19 5.5 40t6.5 42t12 44.5t15 47.5q4 23 13 45.5t15 47.5q3 15 8 32t9 34q-1 10 -2 29t8 75q16 38 63 71.5t83 33.5q6 0 21 -7 q3 -37 -5 -65q-5 -18 -10.5 -42t-17.5 -54q-5 -13 -15.5 -28t-15.5 -30q-18 -57 -29.5 -105.5t-20.5 -87.5q-11 -42 -20.5 -74.5t-9.5 -52.5l-14 -20q5 -27 39 -39t75 -12q20 0 40 1t40 4q0 9 6 19t6 19q0 16 -3 33.5t-2 34.5q2 24 7 49t6 51q0 15 2 30.5t2 30.5 q3 25 3 47.5t8 35.5t25.5 18.5t29.5 5.5q15 0 33 -7t32 -17q6 -5 9.5 -12.5t3.5 -16.5q-10 -25 -14 -52q-3 -22 -6.5 -56.5t-9.5 -67.5q-2 -15 -8 -30.5t-9 -30.5q-2 -13 -1.5 -27.5t-1.5 -29.5q20 5 39 12t38 13q10 3 18 -3t12 -16q9 -17 7.5 -30t-11.5 -18 q-12 -9 -26.5 -22t-26.5 -21q-18 -10 -35 -15.5t-34 -12.5q-2 -18 -4 -38.5t-6 -41.5q-1 -10 -5.5 -21t-5.5 -21q-2 -15 -2 -30t-2 -30q0 -7 4.5 -15t4.5 -15l-14 -18q-3 -32 -31.5 -52t-50.5 -16q-4 2 -7.5 14t-3.5 35q-9 14 -9 21q0 5 5.5 12.5t5.5 13.5q0 7 5 16.5 t5 19.5q0 6 -7 12.5t-7 13.5q0 21 7 48.5t9 56.5q-31 -8 -62.5 -11.5t-64.5 -3.5q-9 0 -22 -1t-22 -1q-25 2 -42.5 12.5t-30.5 25.5q-9 10 -15.5 26t-8.5 36q-2 12 13 38.5t15 43.5q0 10 -21.5 12.5t-21.5 13.5z" />
<glyph unicode="&#xbd;" horiz-adv-x="1504" d="M70 928q-1 23 0.5 37.5t6.5 21.5q9 10 17.5 21t17.5 20q14 16 27.5 32t25.5 31q9 11 15.5 24t15.5 23q8 10 19.5 17.5t18.5 16.5q17 20 32.5 37.5t27.5 32.5q19 21 34.5 37.5t25.5 26.5q10 11 26 22q8 0 16.5 -1.5t17.5 -4.5q8 -2 15.5 -6t13.5 -8q10 -7 17 -16.5 t7 -19.5q0 -19 -1 -40t-1 -42q-1 -27 -4 -56.5t-6 -59.5q-3 -28 -7 -58l-8 -60q-2 -18 -9.5 -37.5t-10.5 -38.5q-3 -16 -2.5 -33.5t-2.5 -34.5q-6 -32 -10.5 -66t-11.5 -68q-4 -21 -8.5 -42t-9.5 -42q-3 -11 -9.5 -23.5t-12.5 -24.5t-17 -24.5t-19 -22.5q-10 -15 -22 -27.5 t-22 -20.5q-12 -10 -23 -15t-17 -2q-5 10 -5 19q5 32 10 59q2 15 3 33t5 41q1 9 3.5 21.5t3.5 23.5q2 11 7.5 24t7.5 25l6 34t5 34q3 19 6.5 39.5t5.5 38.5l8 58t7 56q2 23 4.5 46t3.5 44q1 20 2.5 40.5t1.5 39.5q-6 -6 -12 -14t-13 -14q-6 -6 -14.5 -10.5t-14.5 -11.5 q-6 -6 -16 -17t-16 -17q-9 -8 -19.5 -15t-19.5 -16t-18.5 -21.5t-18.5 -21.5q-12 -12 -21.5 -24t-18.5 -20q-12 -12 -36 -23q-8 20 -10 43zM211 -30q0 12 2 26q0 8 -0.5 18t2.5 20q2 7 8 15t9 16q3 9 6.5 19t8.5 21q3 8 9 17.5t10 18.5q5 10 7.5 23.5t9.5 25.5q5 9 15 16.5 t15 16.5q8 13 16 26.5t16 25.5q15 24 25 51.5t23 49.5q18 30 39 57.5t39 53.5q32 47 59.5 91t50.5 83q49 82 87 147.5t63 111.5q3 7 4.5 15t4.5 14q5 9 18 17.5t16 14.5q19 33 37 64.5t34 60.5q27 48 50 92t41 82q10 22 17 44t13 41q4 11 11 21.5t9 19.5q4 8 15 16t28 16 q9 3 21 7.5t25 8.5q16 4 30.5 7t25.5 3q20 0 27 -9t4 -26q0 -6 -2 -13.5t-4 -14.5q-3 -15 -10 -32.5t-15 -36.5q-12 -30 -30.5 -67t-41.5 -79q-18 -32 -39 -68t-45 -75q-13 -22 -26.5 -47.5t-28.5 -49.5q-8 -13 -22.5 -25.5t-23.5 -25.5q-7 -11 -11.5 -24.5t-10.5 -24.5 q-108 -163 -214 -325.5t-212 -324.5q-38 -60 -61 -111.5t-33 -88.5q-13 -48 -40 -65t-49 -17q-12 0 -20.5 9t-10.5 26q-1 9 -1 21zM936.5 149.5q-3.5 2.5 22.5 38.5q9 13 26 35t41 53q19 24 44 55t55 69q19 24 36 46t32 42q24 33 42.5 62t30.5 53q10 21 15.5 38.5t5.5 29.5 q0 14 -12 27t-30 22t-41 14.5t-44 5.5q-14 0 -27.5 -1.5t-24.5 -4.5q-15 -3 -28 -10t-22 -14q-17 -5 -20 -10q-1 -21 -3 -25q-9 -18 -17.5 -34t-15.5 -16q-6 0 -16.5 14t-18.5 33q-3 9 -7 19t-6 19q-3 10 -4.5 20t-1.5 17v23.5t3 22.5q3 8 9 15.5t10 14.5q6 9 14.5 19 t17.5 17t22 13.5t25 10.5q18 6 38 9.5t41 3.5l18 -1q7 0 15 -0.5t15 -0.5l10 -1q42 -3 78 -14t63 -27l15 -9l8 -12l13 -7q19 -18 30 -42t11 -49q0 -9 -1 -20l-2 -22t-4.5 -23.5t-6.5 -24.5t-9.5 -26.5t-12.5 -28.5q-9 -20 -21 -41t-26 -42q-9 -13 -22.5 -31.5t-28.5 -39.5 q-13 -19 -31 -42t-37 -47q-7 -9 -15 -18l-16 -18q-9 -11 -17 -20.5t-15 -18.5q-6 -8 -15 -22t-11 -20q-7 -15 -1 -31q5 -10 23.5 -7.5t57.5 2.5q24 0 62 -4.5t89 -0.5q43 4 89 4l4 -10q0 -18 -30 -55.5t-48 -42.5q-12 -4 -26 -8t-27 -7q-19 -3 -40 -6.5t-42 -6.5 q-22 -2 -45.5 -3.5t-47.5 -1.5q-11 0 -22 0.5t-21 0.5q-18 0 -36 2t-34 5q-11 2 -22 4.5t-20 5.5q-8 3 -15 9.5t-12 15.5q-4 8 -6.5 19.5t-2.5 25.5q0 9 -3.5 11.5z" />
<glyph unicode="&#xbe;" horiz-adv-x="1504" d="M23 483q17 13 32 22t35.5 22t44.5 28q28 18 60 38.5t61 41.5l16 11q4 3 9 6.5t9 6.5l17 9q12 10 25 19t21 18q7 9 12 30q-21 14 -37 20q-13 4 -30 11t-34 13q-14 5 -31.5 7t-30.5 8q-10 5 -20.5 13t-16.5 16q-9 10 -13 21.5t-4 19.5q0 10 5.5 24t16.5 27q12 14 23.5 28.5 t20.5 26.5q15 19 29.5 37.5t26.5 33.5q17 22 31 41.5t23 34.5q18 27 24.5 42.5t2.5 17.5q-7 3 -19.5 6t-26.5 3q-23 0 -57.5 -7.5t-81.5 -21.5q-41 -13 -86 -24q-9 6 -9.5 22.5t4.5 37.5q5 19 14.5 41t20.5 39q9 13 19.5 23t19.5 13q14 3 28.5 6t28.5 5q18 3 36.5 6t36.5 4 q12 1 25 2t25 1q16 0 32 -1t28 -2q13 -1 25.5 -4.5t22.5 -6.5q13 -4 24 -11t18 -15q8 -9 12.5 -21.5t4.5 -24.5q0 -6 -1.5 -13.5t-4.5 -15.5q-6 -15 -16.5 -35t-23.5 -41q-3 -6 -8 -13t-9 -13q-3 -4 -4 -9t-4 -9t-8.5 -9.5t-8.5 -9.5q-6 -9 -13 -18.5t-13 -18.5 q-18 -26 -39 -51.5t-35 -45.5q-12 -18 -17.5 -30.5t-5.5 -17.5q5 -8 10 -11q20 -3 26 -6q5 -2 8.5 -7t9.5 -7q10 -3 20.5 -7.5t19.5 -7.5q11 -4 21.5 -9t18.5 -8t15.5 -7.5l12.5 -7.5q7 -4 13.5 -9.5t11.5 -11.5q6 -6 12 -14t9 -16q3 -9 5.5 -19t2.5 -19t-1 -17.5t-3 -16.5 q-3 -11 -8.5 -22.5t-12.5 -21.5q-3 -4 -7.5 -9.5t-8.5 -10.5q-5 -5 -10 -10.5t-10 -9.5q-4 -3 -9.5 -8t-10.5 -9q-9 -6 -20 -14.5t-23 -17.5q-9 -6 -20.5 -14t-23.5 -16q-12 -7 -24.5 -18t-27.5 -19l-20 -6l-9 -16l-14 3q-11 -6 -24.5 -11.5t-28.5 -8.5q-8 -1 -17 -3t-18 -2 l-16 -9l-17 7q-11 0 -21.5 1t-18.5 1q-13 1 -23.5 4.5t-16.5 6.5t-10 8.5t-4 11.5zM261 -30q0 12 2 26q0 8 -0.5 18t2.5 20q2 7 8 15t9 16q3 9 6.5 19t8.5 21q3 8 9 17.5t10 18.5q5 10 7.5 23.5t9.5 25.5q5 9 15 16.5t15 16.5q8 13 16 26.5t16 25.5q15 24 25 51.5t23 49.5 q18 30 39 57.5t39 53.5q32 47 59.5 91t50.5 83q49 82 87 147.5t63 111.5q3 7 4.5 15t4.5 14q5 9 18 17.5t16 14.5q19 33 37 64.5t34 60.5q27 48 50 92t41 82q10 22 17 44t13 41q4 11 11 21.5t9 19.5q4 8 15 16t28 16q9 3 21 7.5t25 8.5q16 4 30.5 7t25.5 3q20 0 27 -9t4 -26 q0 -6 -2 -13.5t-4 -14.5q-3 -15 -10 -32.5t-15 -36.5q-12 -30 -30.5 -67t-41.5 -79q-18 -32 -39 -68t-45 -75q-13 -22 -26.5 -47.5t-28.5 -49.5q-8 -13 -22.5 -25.5t-23.5 -25.5q-7 -11 -11.5 -24.5t-10.5 -24.5q-108 -163 -214 -325.5t-212 -324.5q-38 -60 -61 -111.5 t-33 -88.5q-13 -48 -40 -65t-49 -17q-12 0 -20.5 9t-10.5 26q-1 9 -1 21zM940 458q1 19 5.5 40t6.5 42t12 44.5t15 47.5q4 23 13 45.5t15 47.5q3 15 8 32t9 34q-1 10 -2 29t8 75q16 38 63 71.5t83 33.5q6 0 21 -7q3 -37 -5 -65q-5 -18 -10.5 -42t-17.5 -54q-5 -13 -15.5 -28 t-15.5 -30q-18 -57 -29.5 -105.5t-20.5 -87.5q-11 -42 -20.5 -74.5t-9.5 -52.5l-14 -20q5 -27 39 -39t75 -12q20 0 40 1t40 4q0 9 6 19t6 19q0 16 -3 33.5t-2 34.5q2 24 7 49t6 51q0 15 2 30.5t2 30.5q3 25 3 47.5t8 35.5t25.5 18.5t29.5 5.5q15 0 33 -7t32 -17 q6 -5 9.5 -12.5t3.5 -16.5q-10 -25 -14 -52q-3 -22 -6.5 -56.5t-9.5 -67.5q-2 -15 -8 -30.5t-9 -30.5q-2 -13 -1.5 -27.5t-1.5 -29.5q20 5 39 12t38 13q10 3 18 -3t12 -16q9 -17 7.5 -30t-11.5 -18q-12 -9 -26.5 -22t-26.5 -21q-18 -10 -35 -15.5t-34 -12.5q-2 -18 -4 -38.5 t-6 -41.5q-1 -10 -5.5 -21t-5.5 -21q-2 -15 -2 -30t-2 -30q0 -7 4.5 -15t4.5 -15l-14 -18q-3 -32 -31.5 -52t-50.5 -16q-4 2 -7.5 14t-3.5 35q-9 14 -9 21q0 5 5.5 12.5t5.5 13.5q0 7 5 16.5t5 19.5q0 6 -7 12.5t-7 13.5q0 21 7 48.5t9 56.5q-31 -8 -62.5 -11.5t-64.5 -3.5 q-9 0 -22 -1t-22 -1q-25 2 -42.5 12.5t-30.5 25.5q-9 10 -15.5 26t-8.5 36q-2 12 13 38.5t15 43.5q0 10 -21.5 12.5t-21.5 13.5z" />
<glyph unicode="&#xbf;" horiz-adv-x="811" d="M123 345q0 88 33.5 191t99.5 224q10 13 24 35.5t31 50.5q13 30 25 59t25 59q16 24 42.5 37t63.5 13q16 0 23.5 -7t7.5 -22q0 -10 -88.5 -214t-88.5 -301q0 -40 8 -68t22 -47q20 -18 41.5 -37.5t41.5 -39.5q24 -23 49 -40t51 -27q4 -2 6.5 1.5t2.5 10.5q0 6 -6 21t-6 22 q0 22 7.5 32.5t21.5 10.5q10 -8 23 -19t29 -22q27 -36 51 -69q19 -24 27.5 -40.5t8.5 -25.5q0 -6 -2 -12t-7 -15q-4 -10 -6 -17t-4 -12q-4 -28 -8.5 -45.5t-9.5 -24.5q-7 -11 -24.5 -16t-44.5 -5q-32 0 -67 9t-73 29q-33 18 -65.5 37t-63.5 38q-10 3 -23 9.5t-32 16.5 l-19 19t-29 28q-31 29 -48 47.5t-23 26.5q-13 20 -20 44.5t-7 54.5zM434 1189q37 70 40 74q23 22 43.5 37t45.5 20q27 6 54 13.5t55 14.5q14 -3 23.5 -19t13.5 -46q-10 -26 -32 -51.5t-57 -55.5q-36 -32 -65 -47t-52 -15q-35 0 -52 18.5t-17 56.5z" />
<glyph unicode="&#xc0;" horiz-adv-x="903" d="M-79 -73q0 26 6 59.5t19 73.5q14 53 24 86t11 49q3 7 9 25t14 44q9 25 17 57l-5 8l-32 -5q-11 1 -16 9t-5 21q0 7 2 15.5t6 20.5q-3 11 -3.5 18t-0.5 12q0 33 8 56.5t24 39.5q4 4 20.5 12t43.5 19q19 9 30.5 21.5t12.5 30.5q3 14 12 32t21 39q4 6 24 69t56 185 q10 37 20 64t17 46q32 85 52.5 111.5t30.5 43.5v5l-31 49l39 45l50 10q15 2 27.5 28t43.5 57q7 2 22.5 12.5t39.5 29.5q21 17 36 25t23 8q27 0 39 -11t12 -29q0 -22 -23 -64t-23 -64q0 -10 4.5 -16.5t10.5 -8.5l120 -65q10 -4 18 -31.5t13 -75.5q6 -40 9.5 -66.5t3.5 -42.5 q-7 -43 -14 -87q10 -56 22 -118q-6 -59 -13 -120q0 -6 2.5 -10.5t7.5 -5.5q17 -1 25.5 -9t8.5 -22q0 -18 -5.5 -28.5t-15.5 -16.5q-13 -8 -20.5 -14t-10.5 -10l13 -62l-18 -142q0 -18 -3 -46t-9 -65q-10 -27 -15 -45t-5 -24q5 -17 9 -36q-6 -27 -12.5 -54t-12.5 -53 q-11 -35 -29 -51.5t-42 -16.5q-13 0 -19.5 11.5t-6.5 34.5q0 10 3.5 29t3.5 29q0 7 -2 19t-2 21q0 28 5.5 89.5t5.5 92.5q-5 17 -10 35q3 19 4 38.5t-1 36.5l15 27l-13 93l-7 3q-6 0 -17.5 -4.5t-28.5 -14.5q-12 -4 -37.5 -8.5t-67.5 -5.5q-18 -9 -34 -16q-23 -5 -58 -17.5 t-81 -30.5q-27 -13 -49.5 -20.5t-37.5 -7.5q-12 0 -20 -9t-13 -26q-3 -16 -14.5 -44t-30.5 -70q-4 -11 -11 -34t-16 -57q-6 -13 -14 -32.5t-18 -45.5q0 -12 -2.5 -29.5t-7.5 -40.5q-5 -14 -13.5 -35.5t-21.5 -47.5q-8 -16 -23 -23.5t-39 -7.5q-17 0 -26.5 11.5t-9.5 35.5z M255 584q0 -7 3.5 -10.5t10.5 -3.5q10 0 32.5 2t32.5 2q23 0 68 11t68 11q14 -3 28 -5q25 5 49 11.5t49 11.5q10 2 15 7.5t5 14.5q-2 30 -2 41q0 19 2.5 42.5t7.5 48.5l-12 45l4 41q-4 22 -6.5 41.5t-0.5 32.5q-2 4 -7 13t-11 19q-10 17 -20.5 32.5t-20.5 31.5 q-14 19 -30 28t-33 9q-20 0 -41 -32t-39 -97q-3 -8 -16.5 -33t-38.5 -65q-4 -38 -27 -94.5t-64 -132.5q-5 -7 -5.5 -12t-0.5 -11zM393 1706q0 6 6.5 12.5t8.5 12.5q3 7 12.5 15.5t13.5 15.5q7 12 15.5 16t17.5 4q6 0 15 0.5t13 -1.5q8 -5 9.5 -16t3.5 -23q16 0 22 -2 q9 -15 12 -19q6 -9 12 -23t15 -28q9 -13 25.5 -25.5t31.5 -28.5q12 -12 22.5 -28t24.5 -29q16 -14 29.5 -25t21.5 -22q8 -12 11.5 -24.5t3.5 -21.5q0 -15 -5 -22t-15 -7q-23 1 -35 9q-6 3 -12.5 12t-15.5 15q-12 9 -28.5 15t-31.5 15q-15 8 -29.5 20t-27.5 19q-13 6 -19 12 t-20 12q-6 3 -14 3t-13 3q-10 5 -17.5 14t-13.5 15q-9 8 -17 17t-12 18t-6.5 19.5t-2.5 19.5q0 6 -5.5 14.5t-5.5 16.5z" />
<glyph unicode="&#xc1;" horiz-adv-x="903" d="M-79 -73q0 26 6 59.5t19 73.5q14 53 24 86t11 49q3 7 9 25t14 44q9 25 17 57l-5 8l-32 -5q-11 1 -16 9t-5 21q0 7 2 15.5t6 20.5q-3 11 -3.5 18t-0.5 12q0 33 8 56.5t24 39.5q4 4 20.5 12t43.5 19q19 9 30.5 21.5t12.5 30.5q3 14 12 32t21 39q4 6 24 69t56 185 q10 37 20 64t17 46q32 85 52.5 111.5t30.5 43.5v5l-31 49l39 45l50 10q15 2 27.5 28t43.5 57q7 2 22.5 12.5t39.5 29.5q21 17 36 25t23 8q27 0 39 -11t12 -29q0 -22 -23 -64t-23 -64q0 -10 4.5 -16.5t10.5 -8.5l120 -65q10 -4 18 -31.5t13 -75.5q6 -40 9.5 -66.5t3.5 -42.5 q-7 -43 -14 -87q10 -56 22 -118q-6 -59 -13 -120q0 -6 2.5 -10.5t7.5 -5.5q17 -1 25.5 -9t8.5 -22q0 -18 -5.5 -28.5t-15.5 -16.5q-13 -8 -20.5 -14t-10.5 -10l13 -62l-18 -142q0 -18 -3 -46t-9 -65q-10 -27 -15 -45t-5 -24q5 -17 9 -36q-6 -27 -12.5 -54t-12.5 -53 q-11 -35 -29 -51.5t-42 -16.5q-13 0 -19.5 11.5t-6.5 34.5q0 10 3.5 29t3.5 29q0 7 -2 19t-2 21q0 28 5.5 89.5t5.5 92.5q-5 17 -10 35q3 19 4 38.5t-1 36.5l15 27l-13 93l-7 3q-6 0 -17.5 -4.5t-28.5 -14.5q-12 -4 -37.5 -8.5t-67.5 -5.5q-18 -9 -34 -16q-23 -5 -58 -17.5 t-81 -30.5q-27 -13 -49.5 -20.5t-37.5 -7.5q-12 0 -20 -9t-13 -26q-3 -16 -14.5 -44t-30.5 -70q-4 -11 -11 -34t-16 -57q-6 -13 -14 -32.5t-18 -45.5q0 -12 -2.5 -29.5t-7.5 -40.5q-5 -14 -13.5 -35.5t-21.5 -47.5q-8 -16 -23 -23.5t-39 -7.5q-17 0 -26.5 11.5t-9.5 35.5z M255 584q0 -7 3.5 -10.5t10.5 -3.5q10 0 32.5 2t32.5 2q23 0 68 11t68 11q14 -3 28 -5q25 5 49 11.5t49 11.5q10 2 15 7.5t5 14.5q-2 30 -2 41q0 19 2.5 42.5t7.5 48.5l-12 45l4 41q-4 22 -6.5 41.5t-0.5 32.5q-2 4 -7 13t-11 19q-10 17 -20.5 32.5t-20.5 31.5 q-14 19 -30 28t-33 9q-20 0 -41 -32t-39 -97q-3 -8 -16.5 -33t-38.5 -65q-4 -38 -27 -94.5t-64 -132.5q-5 -7 -5.5 -12t-0.5 -11zM375 1460q-2 8 3 17q3 7 15 16t21 18q6 6 16 19.5t17 19.5q14 12 25 22.5t21 19.5q18 16 31.5 24.5t19.5 14.5q9 9 17.5 18.5t14.5 18.5 q10 15 12.5 30.5t7.5 26.5q9 18 23 27t30 9q10 0 18 -5.5t15 -14.5q5 -7 10 -15t8 -15q6 -15 9.5 -30t3.5 -27t-3.5 -23.5t-9.5 -21.5q-6 -11 -17.5 -22.5t-26.5 -20.5q-9 -6 -19 -11.5t-21 -9.5q-7 -3 -16.5 -14t-15.5 -14q-12 -7 -22.5 -8.5t-22.5 -9.5t-20.5 -16.5 t-20.5 -16.5q-5 -4 -18.5 -7.5t-18.5 -6.5q-9 -6 -14.5 -17t-11.5 -14q-12 -7 -32 -11q-10 0 -18 10t-8 25q0 7 -2 15z" />
<glyph unicode="&#xc2;" horiz-adv-x="903" d="M-79 -73q0 26 6 59.5t19 73.5q14 53 24 86t11 49q3 7 9 25t14 44q9 25 17 57l-5 8l-32 -5q-11 1 -16 9t-5 21q0 7 2 15.5t6 20.5q-3 11 -3.5 18t-0.5 12q0 33 8 56.5t24 39.5q4 4 20.5 12t43.5 19q19 9 30.5 21.5t12.5 30.5q3 14 12 32t21 39q4 6 24 69t56 185 q10 37 20 64t17 46q32 85 52.5 111.5t30.5 43.5v5l-31 49l39 45l50 10q15 2 27.5 28t43.5 57q7 2 22.5 12.5t39.5 29.5q21 17 36 25t23 8q27 0 39 -11t12 -29q0 -22 -23 -64t-23 -64q0 -10 4.5 -16.5t10.5 -8.5l120 -65q10 -4 18 -31.5t13 -75.5q6 -40 9.5 -66.5t3.5 -42.5 q-7 -43 -14 -87q10 -56 22 -118q-6 -59 -13 -120q0 -6 2.5 -10.5t7.5 -5.5q17 -1 25.5 -9t8.5 -22q0 -18 -5.5 -28.5t-15.5 -16.5q-13 -8 -20.5 -14t-10.5 -10l13 -62l-18 -142q0 -18 -3 -46t-9 -65q-10 -27 -15 -45t-5 -24q5 -17 9 -36q-6 -27 -12.5 -54t-12.5 -53 q-11 -35 -29 -51.5t-42 -16.5q-13 0 -19.5 11.5t-6.5 34.5q0 10 3.5 29t3.5 29q0 7 -2 19t-2 21q0 28 5.5 89.5t5.5 92.5q-5 17 -10 35q3 19 4 38.5t-1 36.5l15 27l-13 93l-7 3q-6 0 -17.5 -4.5t-28.5 -14.5q-12 -4 -37.5 -8.5t-67.5 -5.5q-18 -9 -34 -16q-23 -5 -58 -17.5 t-81 -30.5q-27 -13 -49.5 -20.5t-37.5 -7.5q-12 0 -20 -9t-13 -26q-3 -16 -14.5 -44t-30.5 -70q-4 -11 -11 -34t-16 -57q-6 -13 -14 -32.5t-18 -45.5q0 -12 -2.5 -29.5t-7.5 -40.5q-5 -14 -13.5 -35.5t-21.5 -47.5q-8 -16 -23 -23.5t-39 -7.5q-17 0 -26.5 11.5t-9.5 35.5z M255 584q0 -7 3.5 -10.5t10.5 -3.5q10 0 32.5 2t32.5 2q23 0 68 11t68 11q14 -3 28 -5q25 5 49 11.5t49 11.5q10 2 15 7.5t5 14.5q-2 30 -2 41q0 19 2.5 42.5t7.5 48.5l-12 45l4 41q-4 22 -6.5 41.5t-0.5 32.5q-2 4 -7 13t-11 19q-10 17 -20.5 32.5t-20.5 31.5 q-14 19 -30 28t-33 9q-20 0 -41 -32t-39 -97q-3 -8 -16.5 -33t-38.5 -65q-4 -38 -27 -94.5t-64 -132.5q-5 -7 -5.5 -12t-0.5 -11zM344 1464q0 6 5 14.5t14 19.5q4 6 7 14.5t7 14.5q6 7 14 12t13 11q9 12 15 24.5t14 22.5q11 14 23.5 27t21.5 24q9 12 16 22t14 19 q6 8 14.5 14.5t14.5 10.5q17 13 33.5 17t31.5 4q9 0 19 -3t17 -9t8 -21.5t6 -26.5q4 -9 19 -6.5t21 -6.5q18 -27 38.5 -58t50.5 -54q16 -13 24.5 -25t8.5 -20q0 -7 -3 -12.5t-12 -12.5q-11 -10 -16.5 -14t-10.5 -4q-26 13 -47 26q-14 8 -32.5 16.5t-33.5 19.5q-9 6 -16 13.5 t-17 13.5q-4 3 -14 3t-15 2q-6 1 -8 8t-6 9q-7 -5 -13 -10.5t-13 -10.5q-6 -3 -13.5 -7.5t-12.5 -8.5q-10 -8 -19 -18.5t-18 -18.5q-10 -9 -23 -18.5t-22 -18.5q-9 -8 -16 -15.5t-13 -12.5q-8 -7 -23 -15q-14 5 -21 10q-15 10 -23.5 19.5t-8.5 15.5z" />
<glyph unicode="&#xc3;" horiz-adv-x="903" d="M-79 -73q0 26 6 59.5t19 73.5q14 53 24 86t11 49q3 7 9 25t14 44q9 25 17 57l-5 8l-32 -5q-11 1 -16 9t-5 21q0 7 2 15.5t6 20.5q-3 11 -3.5 18t-0.5 12q0 33 8 56.5t24 39.5q4 4 20.5 12t43.5 19q19 9 30.5 21.5t12.5 30.5q3 14 12 32t21 39q4 6 24 69t56 185 q10 37 20 64t17 46q32 85 52.5 111.5t30.5 43.5v5l-31 49l39 45l50 10q15 2 27.5 28t43.5 57q7 2 22.5 12.5t39.5 29.5q21 17 36 25t23 8q27 0 39 -11t12 -29q0 -22 -23 -64t-23 -64q0 -10 4.5 -16.5t10.5 -8.5l120 -65q10 -4 18 -31.5t13 -75.5q6 -40 9.5 -66.5t3.5 -42.5 q-7 -43 -14 -87q10 -56 22 -118q-6 -59 -13 -120q0 -6 2.5 -10.5t7.5 -5.5q17 -1 25.5 -9t8.5 -22q0 -18 -5.5 -28.5t-15.5 -16.5q-13 -8 -20.5 -14t-10.5 -10l13 -62l-18 -142q0 -18 -3 -46t-9 -65q-10 -27 -15 -45t-5 -24q5 -17 9 -36q-6 -27 -12.5 -54t-12.5 -53 q-11 -35 -29 -51.5t-42 -16.5q-13 0 -19.5 11.5t-6.5 34.5q0 10 3.5 29t3.5 29q0 7 -2 19t-2 21q0 28 5.5 89.5t5.5 92.5q-5 17 -10 35q3 19 4 38.5t-1 36.5l15 27l-13 93l-7 3q-6 0 -17.5 -4.5t-28.5 -14.5q-12 -4 -37.5 -8.5t-67.5 -5.5q-18 -9 -34 -16q-23 -5 -58 -17.5 t-81 -30.5q-27 -13 -49.5 -20.5t-37.5 -7.5q-12 0 -20 -9t-13 -26q-3 -16 -14.5 -44t-30.5 -70q-4 -11 -11 -34t-16 -57q-6 -13 -14 -32.5t-18 -45.5q0 -12 -2.5 -29.5t-7.5 -40.5q-5 -14 -13.5 -35.5t-21.5 -47.5q-8 -16 -23 -23.5t-39 -7.5q-17 0 -26.5 11.5t-9.5 35.5z M255 584q0 -7 3.5 -10.5t10.5 -3.5q10 0 32.5 2t32.5 2q23 0 68 11t68 11q14 -3 28 -5q25 5 49 11.5t49 11.5q10 2 15 7.5t5 14.5q-2 30 -2 41q0 19 2.5 42.5t7.5 48.5l-12 45l4 41q-4 22 -6.5 41.5t-0.5 32.5q-2 4 -7 13t-11 19q-10 17 -20.5 32.5t-20.5 31.5 q-14 19 -30 28t-33 9q-20 0 -41 -32t-39 -97q-3 -8 -16.5 -33t-38.5 -65q-4 -38 -27 -94.5t-64 -132.5q-5 -7 -5.5 -12t-0.5 -11zM378 1533v13.5t3 14.5q3 6 8.5 12.5t8.5 12.5q4 8 14 14.5t16 14.5q3 4 10 21q6 6 13 11t13 11q9 7 18 16.5t18 15.5t19.5 11.5t19.5 9.5 q15 6 28.5 10.5t25.5 4.5q9 0 21 -5t24 -11q9 -6 20 -13.5t20 -13.5t15.5 -13.5t13.5 -12.5l6 -15l16 4q15 5 23 9q5 2 10.5 5t10.5 6q6 3 12.5 9.5t12.5 10.5q9 4 19 6t18 5q18 9 33 15.5t20 6.5q18 -13 23 -20q4 -7 10 -26q0 -5 -4 -12t-10 -15q-7 -9 -19 -21t-25 -24 q-11 -10 -23.5 -20.5t-24.5 -20.5q-14 -10 -29 -20t-28 -18q-16 -9 -29.5 -15.5t-19.5 -6.5q-20 -2 -26 1q-5 3 -7.5 10t-8.5 10q-16 2 -20 4q-7 5 -12.5 13t-11.5 12q-15 9 -28 16.5t-19 7.5q-9 0 -19.5 -2.5t-19.5 -5.5q-12 -4 -24.5 -11.5t-22.5 -14.5q-8 -6 -16 -12.5 t-14 -12.5q-13 -12 -32 -30q-7 0 -15.5 4t-14.5 11q-4 4 -9 10t-8 13q-3 5 -3 10z" />
<glyph unicode="&#xc4;" horiz-adv-x="903" d="M-79 -73q0 26 6 59.5t19 73.5q14 53 24 86t11 49q3 7 9 25t14 44q9 25 17 57l-5 8l-32 -5q-11 1 -16 9t-5 21q0 7 2 15.5t6 20.5q-3 11 -3.5 18t-0.5 12q0 33 8 56.5t24 39.5q4 4 20.5 12t43.5 19q19 9 30.5 21.5t12.5 30.5q3 14 12 32t21 39q4 6 24 69t56 185 q10 37 20 64t17 46q32 85 52.5 111.5t30.5 43.5v5l-31 49l39 45l50 10q15 2 27.5 28t43.5 57q7 2 22.5 12.5t39.5 29.5q21 17 36 25t23 8q27 0 39 -11t12 -29q0 -22 -23 -64t-23 -64q0 -10 4.5 -16.5t10.5 -8.5l120 -65q10 -4 18 -31.5t13 -75.5q6 -40 9.5 -66.5t3.5 -42.5 q-7 -43 -14 -87q10 -56 22 -118q-6 -59 -13 -120q0 -6 2.5 -10.5t7.5 -5.5q17 -1 25.5 -9t8.5 -22q0 -18 -5.5 -28.5t-15.5 -16.5q-13 -8 -20.5 -14t-10.5 -10l13 -62l-18 -142q0 -18 -3 -46t-9 -65q-10 -27 -15 -45t-5 -24q5 -17 9 -36q-6 -27 -12.5 -54t-12.5 -53 q-11 -35 -29 -51.5t-42 -16.5q-13 0 -19.5 11.5t-6.5 34.5q0 10 3.5 29t3.5 29q0 7 -2 19t-2 21q0 28 5.5 89.5t5.5 92.5q-5 17 -10 35q3 19 4 38.5t-1 36.5l15 27l-13 93l-7 3q-6 0 -17.5 -4.5t-28.5 -14.5q-12 -4 -37.5 -8.5t-67.5 -5.5q-18 -9 -34 -16q-23 -5 -58 -17.5 t-81 -30.5q-27 -13 -49.5 -20.5t-37.5 -7.5q-12 0 -20 -9t-13 -26q-3 -16 -14.5 -44t-30.5 -70q-4 -11 -11 -34t-16 -57q-6 -13 -14 -32.5t-18 -45.5q0 -12 -2.5 -29.5t-7.5 -40.5q-5 -14 -13.5 -35.5t-21.5 -47.5q-8 -16 -23 -23.5t-39 -7.5q-17 0 -26.5 11.5t-9.5 35.5z M255 584q0 -7 3.5 -10.5t10.5 -3.5q10 0 32.5 2t32.5 2q23 0 68 11t68 11q14 -3 28 -5q25 5 49 11.5t49 11.5q10 2 15 7.5t5 14.5q-2 30 -2 41q0 19 2.5 42.5t7.5 48.5l-12 45l4 41q-4 22 -6.5 41.5t-0.5 32.5q-2 4 -7 13t-11 19q-10 17 -20.5 32.5t-20.5 31.5 q-14 19 -30 28t-33 9q-20 0 -41 -32t-39 -97q-3 -8 -16.5 -33t-38.5 -65q-4 -38 -27 -94.5t-64 -132.5q-5 -7 -5.5 -12t-0.5 -11zM379 1547q0 16 6.5 34t16.5 35q8 13 19.5 26.5t23.5 24.5q4 4 7 10.5t8 9.5q6 3 13.5 5t12.5 5q11 6 22 9.5t19 3.5q12 0 22 -2t17 -5 q12 -5 18 -15.5t6 -24.5q0 -5 -0.5 -11t-0.5 -11q0 -6 -5.5 -7t-7.5 -7q-3 -8 -2.5 -23.5t-2.5 -22.5q-3 -8 -8.5 -16.5t-11.5 -16.5t-13 -15t-14 -12q-9 -8 -20 -19.5t-23 -14.5q-10 -3 -22 0.5t-22 3.5q-14 0 -25 3t-18 9t-11 17.5t-4 26.5zM664 1539q0 12 2.5 24t5.5 21 q2 6 6 12.5t8 11.5q3 4 11 3.5t13 2.5q4 3 12 19q5 2 10.5 6t10.5 9l27.5 27.5t27.5 14.5q9 0 17.5 -1.5t14.5 -3.5q9 -3 16.5 -8.5t11.5 -12.5q5 -8 8 -18t3 -22q0 -7 -1 -15t-2 -15q-2 -12 -6.5 -24.5t-10.5 -22.5t-13 -20.5t-16 -18.5q-10 -10 -22.5 -19t-25.5 -15 q-9 -3 -19.5 -5.5t-20.5 -2.5q-7 0 -15 -1.5t-14 -0.5q-6 2 -20 19q-4 4 -8 11t-7 15q-2 6 -3 14t-1 16z" />
<glyph unicode="&#xc5;" horiz-adv-x="903" d="M-79 -73q0 26 6 59.5t19 73.5q14 53 24 86t11 49q3 7 9 25t14 44q9 25 17 57l-5 8l-32 -5q-11 1 -16 9t-5 21q0 7 2 15.5t6 20.5q-3 11 -3.5 18t-0.5 12q0 33 8 56.5t24 39.5q4 4 20.5 12t43.5 19q19 9 30.5 21.5t12.5 30.5q3 14 12 32t21 39q4 6 24 69t56 185 q10 37 20 64t17 46q32 85 52.5 111.5t30.5 43.5v5l-31 49l39 45l50 10q15 2 27.5 28t43.5 57q7 2 22.5 12.5t39.5 29.5q21 17 36 25t23 8q27 0 39 -11t12 -29q0 -22 -23 -64t-23 -64q0 -10 4.5 -16.5t10.5 -8.5l120 -65q10 -4 18 -31.5t13 -75.5q6 -40 9.5 -66.5t3.5 -42.5 q-7 -43 -14 -87q10 -56 22 -118q-6 -59 -13 -120q0 -6 2.5 -10.5t7.5 -5.5q17 -1 25.5 -9t8.5 -22q0 -18 -5.5 -28.5t-15.5 -16.5q-13 -8 -20.5 -14t-10.5 -10l13 -62l-18 -142q0 -18 -3 -46t-9 -65q-10 -27 -15 -45t-5 -24q5 -17 9 -36q-6 -27 -12.5 -54t-12.5 -53 q-11 -35 -29 -51.5t-42 -16.5q-13 0 -19.5 11.5t-6.5 34.5q0 10 3.5 29t3.5 29q0 7 -2 19t-2 21q0 28 5.5 89.5t5.5 92.5q-5 17 -10 35q3 19 4 38.5t-1 36.5l15 27l-13 93l-7 3q-6 0 -17.5 -4.5t-28.5 -14.5q-12 -4 -37.5 -8.5t-67.5 -5.5q-18 -9 -34 -16q-23 -5 -58 -17.5 t-81 -30.5q-27 -13 -49.5 -20.5t-37.5 -7.5q-12 0 -20 -9t-13 -26q-3 -16 -14.5 -44t-30.5 -70q-4 -11 -11 -34t-16 -57q-6 -13 -14 -32.5t-18 -45.5q0 -12 -2.5 -29.5t-7.5 -40.5q-5 -14 -13.5 -35.5t-21.5 -47.5q-8 -16 -23 -23.5t-39 -7.5q-17 0 -26.5 11.5t-9.5 35.5z M255 584q0 -7 3.5 -10.5t10.5 -3.5q10 0 32.5 2t32.5 2q23 0 68 11t68 11q14 -3 28 -5q25 5 49 11.5t49 11.5q10 2 15 7.5t5 14.5q-2 30 -2 41q0 19 2.5 42.5t7.5 48.5l-12 45l4 41q-4 22 -6.5 41.5t-0.5 32.5q-2 4 -7 13t-11 19q-10 17 -20.5 32.5t-20.5 31.5 q-14 19 -30 28t-33 9q-20 0 -41 -32t-39 -97q-3 -8 -16.5 -33t-38.5 -65q-4 -38 -27 -94.5t-64 -132.5q-5 -7 -5.5 -12t-0.5 -11zM424 1471q0 10 1 21t1 21q0 7 1 15.5t1 14.5v21t3 21q1 6 6 12t5 11q2 6 3 14.5t3 14.5q2 5 1.5 14t2.5 15q4 10 13 17t15 15q6 9 14 18t16 16 q5 4 13 6t14 5q5 3 10 9.5t10 8.5q10 5 22 9t24 7q8 1 16.5 7.5t18.5 6.5q6 0 14 -3.5t14 -3.5q11 0 20 -4.5t17 -7.5q9 -5 21.5 -12t19.5 -17q5 -8 14.5 -19t11.5 -24q1 -9 -1.5 -21t-3.5 -24q0 -9 1 -19.5t1 -20.5q0 -12 1 -23.5t-1 -22.5q-3 -20 -14 -39.5t-20 -37.5 l-13 -26t-15 -26q-3 -6 -12 -7t-13 -5t-6.5 -12t-8.5 -11q-10 -6 -22 -10.5t-23 -7.5q-19 -6 -39.5 -12.5t-40.5 -6.5q-26 0 -47 9.5t-37 22.5q-8 7 -10 15.5t-5 17.5t-10 19t-7 19zM526 1538q0 -41 11.5 -61.5t31.5 -20.5q12 0 23.5 4.5t19.5 12.5l18 3l-2 20q9 20 14.5 51 t5.5 71q0 33 -11 50.5t-32 17.5q-7 0 -14.5 -1.5t-13.5 -4.5q-7 -3 -14 -9.5t-12 -14.5q-5 -7 -9 -17t-7 -22q-2 -9 -2 -19.5t-1 -22.5q0 -9 -3 -18.5t-3 -18.5z" />
<glyph unicode="&#xc6;" horiz-adv-x="1438" d="M-83 -74q0 25 4.5 58t15.5 72q17 63 35.5 126t37.5 130q0 7 -31 13.5t-25 26.5q4 23 6.5 44.5t-0.5 43.5q0 5 10.5 26t32.5 57l67 24q10 4 17.5 17t11.5 39q1 10 10.5 28.5t22.5 44.5q5 16 11.5 41t16.5 56q18 48 43 120t59 171q13 30 31 58.5t39 54.5q6 10 7 15 q-10 15 -20 25q-5 6 -6.5 14t-1.5 15q0 16 8.5 27.5t22.5 18.5l20 4t40 9q13 3 28 37t41 44q10 10 24.5 21.5t34.5 23.5q23 13 38.5 20t25.5 7q23 0 34 -8.5t11 -23.5q-10 -27 -17 -44q-10 -20 -14.5 -34.5t-7.5 -22.5q-10 -13 -20 -37q0 -18 24.5 -33.5t72.5 -32.5 q56 -19 67 -70.5t22 -101.5q3 10 8 24t11 36q10 11 24 27.5t36 36.5q13 29 26.5 47.5t29.5 24.5q23 10 46 23q17 19 56.5 46.5t79.5 59.5q20 10 44 15.5t52 5.5q14 -1 24 -3q6 0 20 -1l90 19q25 -3 50 -7.5t51 -8.5q22 -7 34.5 -27t12.5 -52q0 -69 -12.5 -102.5t-39.5 -33.5 q-28 9 -51 16q-28 10 -65 14t-84 4q-20 0 -46 -3.5t-53 -10.5q-44 -11 -96 -26l-30 -35q-19 -22 -27.5 -45t-8.5 -49q0 -17 -3 -35.5t-10 -39.5q-6 -20 -11.5 -39t-12.5 -39q-4 -27 -14 -66.5t-26 -92.5q-2 -10 -4.5 -18.5t-2.5 -15.5q0 -17 6 -26.5t18 -9.5q36 26 62 49 q38 37 116 55t197 18q25 1 49 6q33 -12 48.5 -29t15.5 -39q0 -5 -2 -11t-5 -35q-3 -12 -3 -24.5t-3 -23.5q-4 -13 -12.5 -19.5t-21.5 -6.5q-10 0 -41 10t-41 7q-14 -4 -60.5 -7.5t-120.5 -8.5q-19 0 -55.5 -13.5t-55.5 -13.5q-24 0 -27.5 -1.5t-59.5 -29.5 q-13 -8 -22.5 -25.5t-14.5 -49.5q-5 -21 -7.5 -42.5t-5.5 -43.5q-9 -31 -16 -63q1 -10 1 -20q-5 -33 -8 -56.5t-3 -36.5q0 -11 -3.5 -32t-3.5 -29q0 -15 5 -21.5t15 -6.5q41 17 56 17q17 0 52 -2.5t52 -2.5q26 0 74.5 9t124.5 31q28 11 69.5 27t95.5 34q12 12 29.5 28.5 t45.5 36.5l40 -92q-22 -23 -68 -54.5t-117 -69.5q-14 -8 -29.5 -13.5t-33.5 -9.5l-10 -5q-75 -50 -173 -75t-218 -25q-43 0 -65.5 9.5t-22.5 27.5q0 6 2.5 14.5t2.5 14.5l-7 12q-9 -12 -18.5 -23.5t-17.5 -22.5q-14 -18 -26.5 -26.5t-23.5 -8.5q-7 0 -11.5 11.5t-4.5 34.5 q0 10 3 29.5t3 27.5q0 6 -4.5 22t-4.5 23q0 41 6 79t14 73q-8 23 -16 55q0 18 6 52t6 50q-4 47 -9 89q-4 3 -17 6q-36 -10 -64 -22q-18 -1 -38.5 -3.5t-44.5 -6.5q-23 -6 -56 -16.5t-76 -26.5q-22 -13 -56 -25t-82 -26l-8 -5q-17 -43 -35 -86t-37 -88q-1 -12 -4 -27.5 t-7 -37.5q-6 -11 -12.5 -27.5t-16.5 -38.5q-1 -13 -4 -31.5t-9 -42.5q-7 -12 -14 -29.5t-19 -42.5q-4 -10 -19 -18t-44 -12l-20 10q-4 4 -5.5 10.5t-1.5 14.5zM232 593q0 -9 7 -14t22 -6q11 -2 22 -2.5t22 -0.5q52 11 92.5 17t69.5 6q19 0 18 -3t6 -1q19 4 47 9t65 12 q4 3 6.5 46t2.5 126q-9 30 -9 36q1 38 3 79q0 44 -44 104t-87 60q-5 0 -20 -13.5t-38 -37.5q-5 -19 -16 -45.5t-32 -60.5q-8 -16 -17.5 -32.5t-17.5 -32.5q-5 -20 -18.5 -54.5t-37.5 -85.5q-25 -50 -46 -106z" />
<glyph unicode="&#xc7;" horiz-adv-x="973" d="M27 486q0 8 5 49t14 114q7 14 15 34t15 45l-3 22q0 8 3.5 18.5t9.5 23.5q23 49 46 99t46 97q20 36 51.5 74t72.5 79q9 10 22 26t31 35q17 10 41.5 30.5t58.5 52.5q10 4 24 11l34 17q5 3 12.5 10t17.5 15q11 10 80 30t90 20q46 0 78 -6.5t51 -20.5l32 -6q40 -9 59 -61 t19 -150q0 -46 -1 -73.5t-3 -37.5q-6 -30 -13.5 -75.5t-19.5 -105.5q-1 -16 -13.5 -52.5t-32.5 -90.5q-21 -59 -36 -89.5t-25 -33.5q-40 -10 -86 -22q-22 0 -31 3.5t-9 11.5q0 7 3.5 22t3.5 21q-3 38 -6 77q0 14 8 55t24 105q17 70 30 110.5t21 50.5q29 27 42.5 51.5 t13.5 44.5q0 28 -13.5 49t-40.5 32q-26 6 -52.5 11.5t-52.5 13.5q-21 -8 -37.5 -12t-28.5 -7q-67 -11 -128.5 -62t-117.5 -141q-46 -78 -74 -156.5t-38 -157.5q-4 -24 -10 -59.5t-17 -83.5q9 -30 16 -55l-10 -91q0 -5 9 -20.5t28 -45.5q11 -17 20 -40t14 -52q2 -7 7.5 -15 t12.5 -13q15 -13 29 -23q43 -46 91.5 -69.5t103.5 -23.5q5 0 37.5 5t89.5 16q10 7 26.5 14t39.5 15q20 20 40 28.5t37 8.5q5 7 12.5 17t19.5 22q30 12 55 31.5t48 45.5q40 -87 40 -92q-30 -23 -74.5 -53t-104.5 -66q-54 -31 -95.5 -53.5t-69.5 -33.5q-41 -19 -87 -27.5 t-94 -8.5q-15 0 -33.5 4.5t-39.5 10.5q-26 7 -44 12t-30 6l-12 12l-29 4q-19 1 -45.5 19t-57.5 50q-30 30 -48.5 57t-26.5 49l-27 86q-14 44 -21 71t-6 35l11 45q-8 23 -12.5 38t-4.5 23zM299.5 -196q2.5 17 4.5 21q3 7 7.5 35t7.5 33q6 11 18 25.5t18 26.5q4 8 9.5 17.5 t10.5 18.5q3 5 6 10.5t6 9.5q3 6 7 12.5t7 11.5q9 15 25 31q5 0 11.5 -1.5t12.5 -3.5q15 -6 29 -15.5t14 -15.5q-5 -15 -9 -25q-3 -8 -8.5 -19.5t-11.5 -24.5q-4 -9 -9 -17.5t-10 -21.5q7 2 16 4t14 3q11 3 23 7.5t21 7.5q7 2 21 4.5t20 3.5q8 1 19.5 -3t17.5 -3q13 1 21 -4 t15 -6q8 -1 12 -5.5t6 -9.5q3 -8 5.5 -25.5t-2.5 -32.5q-4 -11 -4.5 -25.5t-9.5 -31.5q-2 -4 -8 -19t-11 -24q-7 -13 -17.5 -30.5t-18.5 -28.5q-9 -13 -23.5 -22t-25.5 -21q-6 -6 -13.5 -17.5t-14.5 -16.5q-9 -7 -12.5 -18t-23.5 -1q-7 4 -16 -7t-17 -16q-15 -9 -29.5 -18 t-27.5 -14q-11 -4 -25.5 2.5t-20.5 10.5q-4 3 -9 19.5t-8 24.5q-19 57 92.5 101.5t111.5 61.5l7 42q-57 -2 -69 -3q-7 -1 -16.5 -10.5t-21.5 -10.5q-5 0 -12.5 -5.5t-13.5 -6.5q-10 4 -15 3t-13 -5.5t-13 -7.5q-22 -5 -27 -1q-25 14 -27 19q-5 10 -2.5 27z" />
<glyph unicode="&#xc8;" horiz-adv-x="868" d="M60 110q0 15 1.5 50t4.5 91q0 5 6.5 21t6.5 23q-5 10 -6 16t-1 11q2 39 8.5 96t16.5 135q12 47 20 106q-2 44 -4 90q37 166 76 334q6 30 22.5 57t39.5 52q10 7 13 11q5 9 13 22.5t19 30.5q6 4 19.5 12t36.5 22q10 8 23 19t30 26q38 23 70.5 48.5t81.5 31.5q23 1 46 2.5 t44 3.5q20 4 35 5q10 2 17.5 4t13.5 2t16.5 -1.5t28.5 -4.5q14 -1 24 -1t19 1q40 -12 59 -35t19 -55q0 -69 -13.5 -102.5t-42.5 -33.5q-22 0 -50 22.5t-151 22.5q-51 -10 -101 -20q-5 -8 -11.5 -12t-11.5 -6l-35 13q-16 -6 -36 -33t-42 -74q-5 -10 -7.5 -25t-2.5 -35 q-18 -72 -36 -139q-17 -72 -27.5 -109t-12.5 -45q-3 -10 -5 -19t-2 -18q0 -13 5 -20t15 -7q9 0 43.5 33t51.5 37q21 6 42.5 13t44.5 17q9 3 47.5 8t107.5 12l28 -8l53 10l28 -13q10 -10 18.5 -24.5t15.5 -31.5q0 -60 -13 -91t-39 -31l-55 22q-68 -7 -134.5 -13.5 t-135.5 -12.5q-84 -17 -129 -55t-50 -100q-1 -13 -7 -40t-14 -67l7 -30q-9 -43 -14 -81t-5 -68q0 -10 3 -14.5t7 -2.5q48 4 77 6t41 1q26 -2 53 -4l63 5q10 2 43.5 16t60.5 14q29 0 58.5 6t56.5 16t53.5 20.5t53.5 20.5q10 3 26.5 11t38.5 21l38 -92q-11 -10 -26.5 -21.5 t-36.5 -24.5q-21 -7 -50.5 -20t-67.5 -30q-29 -18 -47.5 -27t-25.5 -9q-13 0 -47.5 -11t-90.5 -33q-30 -11 -63.5 -22.5t-69.5 -20.5l-62 13l-38 -17q-19 0 -38.5 0.5t-37.5 2.5q-29 1 -43.5 8t-14.5 20l6 38l-6 7q-34 0 -45.5 9t-11.5 42zM469 1703q0 6 6.5 12.5t8.5 12.5 q3 7 12.5 15.5t13.5 15.5q7 12 15.5 16t17.5 4q6 0 15 0.5t13 -1.5q8 -5 9.5 -16t3.5 -23q16 0 22 -2q9 -15 12 -19q6 -9 12 -23t15 -28q9 -13 25.5 -25.5t31.5 -28.5q12 -12 22.5 -28t24.5 -29q16 -14 29.5 -25t21.5 -22q8 -12 11.5 -24.5t3.5 -21.5q0 -15 -5 -22t-15 -7 q-23 1 -35 9q-6 3 -12.5 12t-15.5 15q-12 9 -28.5 15t-31.5 15q-15 8 -29.5 20t-27.5 19q-13 6 -19 12t-20 12q-6 3 -14 3t-13 3q-10 5 -17.5 14t-13.5 15q-9 8 -17 17t-12 18t-6.5 19.5t-2.5 19.5q0 6 -5.5 14.5t-5.5 16.5z" />
<glyph unicode="&#xc9;" horiz-adv-x="868" d="M60 110q0 15 1.5 50t4.5 91q0 5 6.5 21t6.5 23q-5 10 -6 16t-1 11q2 39 8.5 96t16.5 135q12 47 20 106q-2 44 -4 90q37 166 76 334q6 30 22.5 57t39.5 52q10 7 13 11q5 9 13 22.5t19 30.5q6 4 19.5 12t36.5 22q10 8 23 19t30 26q38 23 70.5 48.5t81.5 31.5q23 1 46 2.5 t44 3.5q20 4 35 5q10 2 17.5 4t13.5 2t16.5 -1.5t28.5 -4.5q14 -1 24 -1t19 1q40 -12 59 -35t19 -55q0 -69 -13.5 -102.5t-42.5 -33.5q-22 0 -50 22.5t-151 22.5q-51 -10 -101 -20q-5 -8 -11.5 -12t-11.5 -6l-35 13q-16 -6 -36 -33t-42 -74q-5 -10 -7.5 -25t-2.5 -35 q-18 -72 -36 -139q-17 -72 -27.5 -109t-12.5 -45q-3 -10 -5 -19t-2 -18q0 -13 5 -20t15 -7q9 0 43.5 33t51.5 37q21 6 42.5 13t44.5 17q9 3 47.5 8t107.5 12l28 -8l53 10l28 -13q10 -10 18.5 -24.5t15.5 -31.5q0 -60 -13 -91t-39 -31l-55 22q-68 -7 -134.5 -13.5 t-135.5 -12.5q-84 -17 -129 -55t-50 -100q-1 -13 -7 -40t-14 -67l7 -30q-9 -43 -14 -81t-5 -68q0 -10 3 -14.5t7 -2.5q48 4 77 6t41 1q26 -2 53 -4l63 5q10 2 43.5 16t60.5 14q29 0 58.5 6t56.5 16t53.5 20.5t53.5 20.5q10 3 26.5 11t38.5 21l38 -92q-11 -10 -26.5 -21.5 t-36.5 -24.5q-21 -7 -50.5 -20t-67.5 -30q-29 -18 -47.5 -27t-25.5 -9q-13 0 -47.5 -11t-90.5 -33q-30 -11 -63.5 -22.5t-69.5 -20.5l-62 13l-38 -17q-19 0 -38.5 0.5t-37.5 2.5q-29 1 -43.5 8t-14.5 20l6 38l-6 7q-34 0 -45.5 9t-11.5 42zM435 1456q-2 8 3 17q3 7 15 16 t21 18q6 6 16 19.5t17 19.5q14 12 25 22.5t21 19.5q18 16 31.5 24.5t19.5 14.5q9 9 17.5 18.5t14.5 18.5q10 15 12.5 30.5t7.5 26.5q9 18 23 27t30 9q10 0 18 -5.5t15 -14.5q5 -7 10 -15t8 -15q6 -15 9.5 -30t3.5 -27t-3.5 -23.5t-9.5 -21.5q-6 -11 -17.5 -22.5t-26.5 -20.5 q-9 -6 -19 -11.5t-21 -9.5q-7 -3 -16.5 -14t-15.5 -14q-12 -7 -22.5 -8.5t-22.5 -9.5t-20.5 -16.5t-20.5 -16.5q-5 -4 -18.5 -7.5t-18.5 -6.5q-9 -6 -14.5 -17t-11.5 -14q-12 -7 -32 -11q-10 0 -18 10t-8 25q0 7 -2 15z" />
<glyph unicode="&#xca;" horiz-adv-x="868" d="M60 110q0 15 1.5 50t4.5 91q0 5 6.5 21t6.5 23q-5 10 -6 16t-1 11q2 39 8.5 96t16.5 135q12 47 20 106q-2 44 -4 90q37 166 76 334q6 30 22.5 57t39.5 52q10 7 13 11q5 9 13 22.5t19 30.5q6 4 19.5 12t36.5 22q10 8 23 19t30 26q38 23 70.5 48.5t81.5 31.5q23 1 46 2.5 t44 3.5q20 4 35 5q10 2 17.5 4t13.5 2t16.5 -1.5t28.5 -4.5q14 -1 24 -1t19 1q40 -12 59 -35t19 -55q0 -69 -13.5 -102.5t-42.5 -33.5q-22 0 -50 22.5t-151 22.5q-51 -10 -101 -20q-5 -8 -11.5 -12t-11.5 -6l-35 13q-16 -6 -36 -33t-42 -74q-5 -10 -7.5 -25t-2.5 -35 q-18 -72 -36 -139q-17 -72 -27.5 -109t-12.5 -45q-3 -10 -5 -19t-2 -18q0 -13 5 -20t15 -7q9 0 43.5 33t51.5 37q21 6 42.5 13t44.5 17q9 3 47.5 8t107.5 12l28 -8l53 10l28 -13q10 -10 18.5 -24.5t15.5 -31.5q0 -60 -13 -91t-39 -31l-55 22q-68 -7 -134.5 -13.5 t-135.5 -12.5q-84 -17 -129 -55t-50 -100q-1 -13 -7 -40t-14 -67l7 -30q-9 -43 -14 -81t-5 -68q0 -10 3 -14.5t7 -2.5q48 4 77 6t41 1q26 -2 53 -4l63 5q10 2 43.5 16t60.5 14q29 0 58.5 6t56.5 16t53.5 20.5t53.5 20.5q10 3 26.5 11t38.5 21l38 -92q-11 -10 -26.5 -21.5 t-36.5 -24.5q-21 -7 -50.5 -20t-67.5 -30q-29 -18 -47.5 -27t-25.5 -9q-13 0 -47.5 -11t-90.5 -33q-30 -11 -63.5 -22.5t-69.5 -20.5l-62 13l-38 -17q-19 0 -38.5 0.5t-37.5 2.5q-29 1 -43.5 8t-14.5 20l6 38l-6 7q-34 0 -45.5 9t-11.5 42zM343 1460q0 6 5 14.5t14 19.5 q4 6 7 14.5t7 14.5q6 7 14 12t13 11q9 12 15 24.5t14 22.5q11 14 23.5 27t21.5 24q9 12 16 22t14 19q6 8 14.5 14.5t14.5 10.5q17 13 33.5 17t31.5 4q9 0 19 -3t17 -9t8 -21.5t6 -26.5q4 -9 19 -6.5t21 -6.5q18 -27 38.5 -58t50.5 -54q16 -13 24.5 -25t8.5 -20 q0 -7 -3 -12.5t-12 -12.5q-11 -10 -16.5 -14t-10.5 -4q-26 13 -47 26q-14 8 -32.5 16.5t-33.5 19.5q-9 6 -16 13.5t-17 13.5q-4 3 -14 3t-15 2q-6 1 -8 8t-6 9q-7 -5 -13 -10.5t-13 -10.5q-6 -3 -13.5 -7.5t-12.5 -8.5q-10 -8 -19 -18.5t-18 -18.5q-10 -9 -23 -18.5 t-22 -18.5q-9 -8 -16 -15.5t-13 -12.5q-8 -7 -23 -15q-14 5 -21 10q-15 10 -23.5 19.5t-8.5 15.5z" />
<glyph unicode="&#xcb;" horiz-adv-x="868" d="M60 110q0 15 1.5 50t4.5 91q0 5 6.5 21t6.5 23q-5 10 -6 16t-1 11q2 39 8.5 96t16.5 135q12 47 20 106q-2 44 -4 90q37 166 76 334q6 30 22.5 57t39.5 52q10 7 13 11q5 9 13 22.5t19 30.5q6 4 19.5 12t36.5 22q10 8 23 19t30 26q38 23 70.5 48.5t81.5 31.5q23 1 46 2.5 t44 3.5q20 4 35 5q10 2 17.5 4t13.5 2t16.5 -1.5t28.5 -4.5q14 -1 24 -1t19 1q40 -12 59 -35t19 -55q0 -69 -13.5 -102.5t-42.5 -33.5q-22 0 -50 22.5t-151 22.5q-51 -10 -101 -20q-5 -8 -11.5 -12t-11.5 -6l-35 13q-16 -6 -36 -33t-42 -74q-5 -10 -7.5 -25t-2.5 -35 q-18 -72 -36 -139q-17 -72 -27.5 -109t-12.5 -45q-3 -10 -5 -19t-2 -18q0 -13 5 -20t15 -7q9 0 43.5 33t51.5 37q21 6 42.5 13t44.5 17q9 3 47.5 8t107.5 12l28 -8l53 10l28 -13q10 -10 18.5 -24.5t15.5 -31.5q0 -60 -13 -91t-39 -31l-55 22q-68 -7 -134.5 -13.5 t-135.5 -12.5q-84 -17 -129 -55t-50 -100q-1 -13 -7 -40t-14 -67l7 -30q-9 -43 -14 -81t-5 -68q0 -10 3 -14.5t7 -2.5q48 4 77 6t41 1q26 -2 53 -4l63 5q10 2 43.5 16t60.5 14q29 0 58.5 6t56.5 16t53.5 20.5t53.5 20.5q10 3 26.5 11t38.5 21l38 -92q-11 -10 -26.5 -21.5 t-36.5 -24.5q-21 -7 -50.5 -20t-67.5 -30q-29 -18 -47.5 -27t-25.5 -9q-13 0 -47.5 -11t-90.5 -33q-30 -11 -63.5 -22.5t-69.5 -20.5l-62 13l-38 -17q-19 0 -38.5 0.5t-37.5 2.5q-29 1 -43.5 8t-14.5 20l6 38l-6 7q-34 0 -45.5 9t-11.5 42zM415 1547q0 16 6.5 34t16.5 35 q8 13 19.5 26.5t23.5 24.5q4 4 7 10.5t8 9.5q6 3 13.5 5t12.5 5q11 6 22 9.5t19 3.5q12 0 22 -2t17 -5q12 -5 18 -15.5t6 -24.5q0 -5 -0.5 -11t-0.5 -11q0 -6 -5.5 -7t-7.5 -7q-3 -8 -2.5 -23.5t-2.5 -22.5q-3 -8 -8.5 -16.5t-11.5 -16.5t-13 -15t-14 -12q-9 -8 -20 -19.5 t-23 -14.5q-10 -3 -22 0.5t-22 3.5q-14 0 -25 3t-18 9t-11 17.5t-4 26.5zM700 1539q0 12 2.5 24t5.5 21q2 6 6 12.5t8 11.5q3 4 11 3.5t13 2.5q4 3 12 19q5 2 10.5 6t10.5 9l27.5 27.5t27.5 14.5q9 0 17.5 -1.5t14.5 -3.5q9 -3 16.5 -8.5t11.5 -12.5q5 -8 8 -18t3 -22 q0 -7 -1 -15t-2 -15q-2 -12 -6.5 -24.5t-10.5 -22.5t-13 -20.5t-16 -18.5q-10 -10 -22.5 -19t-25.5 -15q-9 -3 -19.5 -5.5t-20.5 -2.5q-7 0 -15 -1.5t-14 -0.5q-6 2 -20 19q-4 4 -8 11t-7 15q-2 6 -3 14t-1 16z" />
<glyph unicode="&#xcc;" horiz-adv-x="433" d="M100 169v53q0 56 4.5 94.5t10.5 60.5q-2 17 -5 35q0 21 5 70t15 128q9 76 15.5 117.5t9.5 50.5q-2 17 -4.5 37t-8.5 44l-22 16l-5 12q2 28 3.5 56.5t6.5 57.5q2 36 9.5 63t15.5 47q3 5 6.5 14t9.5 19l18 72t19 70q15 34 43 55t68 27q28 15 48 22.5t32 7.5q14 0 22 -11 t8 -31q0 -8 -8 -55.5t-25 -131.5q-3 -28 -10 -66.5t-19 -91.5q-15 -59 -29.5 -129.5t-26.5 -155.5q-5 -36 -11 -71t-11 -71q-6 -41 -10.5 -77.5t-4.5 -65.5q0 -11 1.5 -21t1.5 -19q2 -11 -0.5 -29t-5.5 -43q-4 -24 -7 -43.5t-3 -29.5q0 -51 2.5 -82.5t5.5 -41.5 q7 -27 14 -58q0 -17 -45 -50.5t-65 -33.5q-12 0 -21.5 8.5t-19.5 25.5q-7 16 -11 29t-4 24q0 6 4 19t4 19q-8 30 -18 50q-2 -10 -2 4zM141 1695q0 6 6.5 12.5t8.5 12.5q3 7 12.5 15.5t13.5 15.5q7 12 15.5 16t17.5 4q6 0 15 0.5t13 -1.5q8 -5 9.5 -16t3.5 -23q16 0 22 -2 q9 -15 12 -19q6 -9 12 -23t15 -28q9 -13 25.5 -25.5t31.5 -28.5q12 -12 22.5 -28t24.5 -29q16 -14 29.5 -25t21.5 -22q8 -12 11.5 -24.5t3.5 -21.5q0 -15 -5 -22t-15 -7q-23 1 -35 9q-6 3 -12.5 12t-15.5 15q-12 9 -28.5 15t-31.5 15q-15 8 -29.5 20t-27.5 19q-13 6 -19 12 t-20 12q-6 3 -14 3t-13 3q-10 5 -17.5 14t-13.5 15q-9 8 -17 17t-12 18t-6.5 19.5t-2.5 19.5q0 6 -5.5 14.5t-5.5 16.5z" />
<glyph unicode="&#xcd;" horiz-adv-x="433" d="M100 169v53q0 56 4.5 94.5t10.5 60.5q-2 17 -5 35q0 21 5 70t15 128q9 76 15.5 117.5t9.5 50.5q-2 17 -4.5 37t-8.5 44l-22 16l-5 12q2 28 3.5 56.5t6.5 57.5q2 36 9.5 63t15.5 47q3 5 6.5 14t9.5 19l18 72t19 70q15 34 43 55t68 27q28 15 48 22.5t32 7.5q14 0 22 -11 t8 -31q0 -8 -8 -55.5t-25 -131.5q-3 -28 -10 -66.5t-19 -91.5q-15 -59 -29.5 -129.5t-26.5 -155.5q-5 -36 -11 -71t-11 -71q-6 -41 -10.5 -77.5t-4.5 -65.5q0 -11 1.5 -21t1.5 -19q2 -11 -0.5 -29t-5.5 -43q-4 -24 -7 -43.5t-3 -29.5q0 -51 2.5 -82.5t5.5 -41.5 q7 -27 14 -58q0 -17 -45 -50.5t-65 -33.5q-12 0 -21.5 8.5t-19.5 25.5q-7 16 -11 29t-4 24q0 6 4 19t4 19q-8 30 -18 50q-2 -10 -2 4zM277 1475q-2 8 3 17q3 7 15 16t21 18q6 6 16 19.5t17 19.5q14 12 25 22.5t21 19.5q18 16 31.5 24.5t19.5 14.5q9 9 17.5 18.5t14.5 18.5 q10 15 12.5 30.5t7.5 26.5q9 18 23 27t30 9q10 0 18 -5.5t15 -14.5q5 -7 10 -15t8 -15q6 -15 9.5 -30t3.5 -27t-3.5 -23.5t-9.5 -21.5q-6 -11 -17.5 -22.5t-26.5 -20.5q-9 -6 -19 -11.5t-21 -9.5q-7 -3 -16.5 -14t-15.5 -14q-12 -7 -22.5 -8.5t-22.5 -9.5t-20.5 -16.5 t-20.5 -16.5q-5 -4 -18.5 -7.5t-18.5 -6.5q-9 -6 -14.5 -17t-11.5 -14q-12 -7 -32 -11q-10 0 -18 10t-8 25q0 7 -2 15z" />
<glyph unicode="&#xce;" horiz-adv-x="433" d="M100 169v53q0 56 4.5 94.5t10.5 60.5q-2 17 -5 35q0 21 5 70t15 128q9 76 15.5 117.5t9.5 50.5q-2 17 -4.5 37t-8.5 44l-22 16l-5 12q2 28 3.5 56.5t6.5 57.5q2 36 9.5 63t15.5 47q3 5 6.5 14t9.5 19l18 72t19 70q15 34 43 55t68 27q28 15 48 22.5t32 7.5q14 0 22 -11 t8 -31q0 -8 -8 -55.5t-25 -131.5q-3 -28 -10 -66.5t-19 -91.5q-15 -59 -29.5 -129.5t-26.5 -155.5q-5 -36 -11 -71t-11 -71q-6 -41 -10.5 -77.5t-4.5 -65.5q0 -11 1.5 -21t1.5 -19q2 -11 -0.5 -29t-5.5 -43q-4 -24 -7 -43.5t-3 -29.5q0 -51 2.5 -82.5t5.5 -41.5 q7 -27 14 -58q0 -17 -45 -50.5t-65 -33.5q-12 0 -21.5 8.5t-19.5 25.5q-7 16 -11 29t-4 24q0 6 4 19t4 19q-8 30 -18 50q-2 -10 -2 4zM138 1465q0 6 5 14.5t14 19.5q4 6 7 14.5t7 14.5q6 7 14 12t13 11q9 12 15 24.5t14 22.5q11 14 23.5 27t21.5 24q9 12 16 22t14 19 q6 8 14.5 14.5t14.5 10.5q17 13 33.5 17t31.5 4q9 0 19 -3t17 -9t8 -21.5t6 -26.5q4 -9 19 -6.5t21 -6.5q18 -27 38.5 -58t50.5 -54q16 -13 24.5 -25t8.5 -20q0 -7 -3 -12.5t-12 -12.5q-11 -10 -16.5 -14t-10.5 -4q-26 13 -47 26q-14 8 -32.5 16.5t-33.5 19.5q-9 6 -16 13.5 t-17 13.5q-4 3 -14 3t-15 2q-6 1 -8 8t-6 9q-7 -5 -13 -10.5t-13 -10.5q-6 -3 -13.5 -7.5t-12.5 -8.5q-10 -8 -19 -18.5t-18 -18.5q-10 -9 -23 -18.5t-22 -18.5q-9 -8 -16 -15.5t-13 -12.5q-8 -7 -23 -15q-14 5 -21 10q-15 10 -23.5 19.5t-8.5 15.5z" />
<glyph unicode="&#xcf;" horiz-adv-x="433" d="M100 169v53q0 56 4.5 94.5t10.5 60.5q-2 17 -5 35q0 21 5 70t15 128q9 76 15.5 117.5t9.5 50.5q-2 17 -4.5 37t-8.5 44l-22 16l-5 12q2 28 3.5 56.5t6.5 57.5q2 36 9.5 63t15.5 47q3 5 6.5 14t9.5 19l18 72t19 70q15 34 43 55t68 27q28 15 48 22.5t32 7.5q14 0 22 -11 t8 -31q0 -8 -8 -55.5t-25 -131.5q-3 -28 -10 -66.5t-19 -91.5q-15 -59 -29.5 -129.5t-26.5 -155.5q-5 -36 -11 -71t-11 -71q-6 -41 -10.5 -77.5t-4.5 -65.5q0 -11 1.5 -21t1.5 -19q2 -11 -0.5 -29t-5.5 -43q-4 -24 -7 -43.5t-3 -29.5q0 -51 2.5 -82.5t5.5 -41.5 q7 -27 14 -58q0 -17 -45 -50.5t-65 -33.5q-12 0 -21.5 8.5t-19.5 25.5q-7 16 -11 29t-4 24q0 6 4 19t4 19q-8 30 -18 50q-2 -10 -2 4zM141 1503q0 16 6.5 34t16.5 35q8 13 19.5 26.5t23.5 24.5q4 4 7 10.5t8 9.5q6 3 13.5 5t12.5 5q11 6 22 9.5t19 3.5q12 0 22 -2t17 -5 q12 -5 18 -15.5t6 -24.5q0 -5 -0.5 -11t-0.5 -11q0 -6 -5.5 -7t-7.5 -7q-3 -8 -2.5 -23.5t-2.5 -22.5q-3 -8 -8.5 -16.5t-11.5 -16.5t-13 -15t-14 -12q-9 -8 -20 -19.5t-23 -14.5q-10 -3 -22 0.5t-22 3.5q-14 0 -25 3t-18 9t-11 17.5t-4 26.5zM426 1495q0 12 2.5 24t5.5 21 q2 6 6 12.5t8 11.5q3 4 11 3.5t13 2.5q4 3 12 19q5 2 10.5 6t10.5 9l27.5 27.5t27.5 14.5q9 0 17.5 -1.5t14.5 -3.5q9 -3 16.5 -8.5t11.5 -12.5q5 -8 8 -18t3 -22q0 -7 -1 -15t-2 -15q-2 -12 -6.5 -24.5t-10.5 -22.5t-13 -20.5t-16 -18.5q-10 -10 -22.5 -19t-25.5 -15 q-9 -3 -19.5 -5.5t-20.5 -2.5q-7 0 -15 -1.5t-14 -0.5q-6 2 -20 19q-4 4 -8 11t-7 15q-2 6 -3 14t-1 16z" />
<glyph unicode="&#xd0;" horiz-adv-x="990" d="M-33 560q0 7 4.5 23t4.5 21q3 29 16.5 49t39.5 32q27 7 56 13t53 13q-1 10 -5 29q0 14 3.5 40t5.5 39q0 26 9 85.5t28 151.5q1 11 35 42.5t41 47.5q21 3 31 8.5t10 14.5q0 5 -10.5 11t-33.5 9q-26 3 -57 11q-42 20 -82 40q-26 12 -39.5 24t-13.5 25q6 20 10 40 q-9 20 -12.5 33t-3.5 19q0 10 4.5 15t12.5 5q26 -5 49 -9q10 3 21 6.5t21 7.5q23 0 40.5 -3.5t29.5 -7.5q16 -7 30 -15t29 -14q11 2 31 5q6 0 12 -2q11 -8 28 -14.5t37 -11.5q26 -4 43.5 -8.5t25.5 -9.5q108 -55 188 -103.5t130 -94.5q80 -71 120.5 -152t40.5 -169 q0 -80 -27.5 -164.5t-81.5 -174.5q-36 -59 -91 -130.5t-133 -157.5q16 6 38 13t52 17q61 13 131 30q43 12 71.5 27t45.5 32q9 -20 19 -43t21 -49q-21 -21 -54 -37.5t-77 -28.5q-12 -4 -28.5 -8.5t-36.5 -9.5q-27 -2 -68.5 -6t-96.5 -11q-81 -62 -140.5 -97t-101.5 -44 l-12 -13q-33 -15 -82.5 -24.5t-115.5 -16.5q-12 3 -24.5 14.5t-30.5 32.5q12 11 27 28.5t34 41.5q13 22 34 34.5t52 20.5q35 8 74 20q10 8 24.5 16.5t34.5 20.5q21 11 47 32t54 50q38 35 61.5 58t33.5 32q6 14 15 25.5t22 21.5q15 24 35.5 60.5t49.5 84.5q5 5 12.5 14.5 t17.5 20.5q18 23 27.5 70t9.5 114q0 44 -23.5 95t-72.5 107q-43 47 -87.5 83t-91.5 59q-29 14 -60.5 31t-64.5 36q-7 -23 -15 -56.5t-16 -78.5q-9 -34 -25 -101.5t-39 -122.5q13 4 35 9t50 12l35 7l27 13q26 0 45 -20t19 -46q0 -62 -9 -92.5t-29 -30.5q-7 0 -32.5 10.5 t-35.5 12.5q-4 -5 -10.5 -7.5t-16.5 -7.5q-7 6 -15 10.5t-16 4.5q-15 0 -37.5 -6t-39.5 -16q-10 -73 -29 -172q5 -11 8 -20q-10 -60 -22.5 -121.5t-25.5 -125.5q-15 -29 -28.5 -49t-21.5 -36q-11 -16 -21.5 -32.5t-29.5 -16.5l-10 3q-4 7 -7 18.5t-6 26.5l16 57l-11 17 q7 67 18.5 169t23.5 236q-21 -2 -59 -28.5t-58 -26.5q-18 0 -27.5 8.5t-9.5 25.5z" />
<glyph unicode="&#xd1;" horiz-adv-x="1071" d="M6 -30q0 14 5 44t15 76q11 52 17.5 81.5t8.5 37.5q4 24 9 63t11 90q2 13 6.5 32.5t11.5 45.5q5 20 20 108.5t39 246.5q26 155 50 312l-16 65q6 20 12 40.5t11 40.5q6 14 20.5 21.5t38.5 7.5q9 0 27.5 4t26.5 4q9 0 24 -14t21 -16q7 5 17.5 17t25.5 32q13 16 25 26t26 14 q16 -8 28 -13q7 -4 9.5 -9t2.5 -14q0 -5 -5 -21.5t-15 -44.5q-11 -30 -17 -50t-8 -31q-15 -23 -23.5 -41.5t-8.5 -34.5q0 -20 12 -59.5t35 -98.5q32 -80 65 -167q30 -96 63 -185.5t69 -171.5q37 -86 61 -128t36 -42q10 0 14.5 11.5t4.5 36.5q0 10 2.5 26t8.5 35q9 27 17 61 q10 52 18.5 91t14.5 67q4 18 9 76t10 157q0 10 3.5 28t6.5 41q4 23 6 39.5t2 29.5q0 23 -5 68.5t-5 68.5q15 63 28 123q11 52 21 86.5t17 52.5q16 36 39 62.5t51 43.5h8q10 0 13.5 -4t3.5 -13q-5 -21 -9 -32q3 -18 6 -38q-3 -25 -7 -42q-2 -11 -4 -33.5t-2 -54.5 q0 -12 -3 -51.5t-11 -105.5q-6 -94 -14.5 -187t-17.5 -186q-8 -112 -23 -204.5t-36 -165.5q-5 -44 -18.5 -98t-34.5 -117l-31 -50q-3 -4 -63 -25.5t-67 -21.5q-15 0 -45 39.5t-71 120.5q-39 73 -62 120.5t-29 71.5q-2 9 -6 23t-9 32q-20 44 -50.5 109t-70.5 154 q-7 22 -17.5 42.5t-25.5 43.5l-7 -3q-7 -20 -14 -50t-16 -72q-10 -27 -21 -48q-15 -58 -34 -126t-41 -146q-6 -26 -12 -54t-14 -58l-18 -33q-4 -30 -9 -59q-7 -23 -17.5 -55.5t-25.5 -77.5q-3 -23 -14.5 -34.5t-31.5 -12.5q-2 -4 -8 -8.5t-20 -8.5q-10 -2 -15 10.5t-5 36.5z M463 1449v13.5t3 14.5q3 6 8.5 12.5t8.5 12.5q4 8 14 14.5t16 14.5q3 4 10 21q6 6 13 11t13 11q9 7 18 16.5t18 15.5t19.5 11.5t19.5 9.5q15 6 28.5 10.5t25.5 4.5q9 0 21 -5t24 -11q9 -6 20 -13.5t20 -13.5t15.5 -13.5t13.5 -12.5l6 -15l16 4q15 5 23 9q5 2 10.5 5t10.5 6 q6 3 12.5 9.5t12.5 10.5q9 4 19 6t18 5q18 9 33 15.5t20 6.5q18 -13 23 -20q4 -7 10 -26q0 -5 -4 -12t-10 -15q-7 -9 -19 -21t-25 -24q-11 -10 -23.5 -20.5t-24.5 -20.5q-14 -10 -29 -20t-28 -18q-16 -9 -29.5 -15.5t-19.5 -6.5q-20 -2 -26 1q-5 3 -7.5 10t-8.5 10 q-16 2 -20 4q-7 5 -12.5 13t-11.5 12q-15 9 -28 16.5t-19 7.5q-9 0 -19.5 -2.5t-19.5 -5.5q-12 -4 -24.5 -11.5t-22.5 -14.5q-8 -6 -16 -12.5t-14 -12.5q-13 -12 -32 -30q-7 0 -15.5 4t-14.5 11q-4 4 -9 10t-8 13q-3 5 -3 10z" />
<glyph unicode="&#xd2;" horiz-adv-x="1086" d="M33 587q0 12 5.5 36t5.5 37t7.5 31t22.5 41q21 30 31.5 47t11.5 22q5 11 13.5 29t19.5 41q10 11 23 47.5t30 96.5q8 16 17 38.5t22 53.5q4 23 15 54t28 69q21 36 44 71t66 52q17 -11 26 -22t9 -21q0 -25 -22.5 -66.5t-22.5 -56.5q0 -8 9 -15q8 4 29 24t55 54 q28 26 50.5 42.5t42.5 20.5q13 5 33 9t45 13q13 7 21 14q7 6 22 12l15 -3q9 -9 50 -18.5t52 -9.5q9 -5 21 -16t31 -24q40 -24 74.5 -70.5t62.5 -115.5q26 -63 39.5 -120t13.5 -110q0 -167 -42 -290t-127 -202l-19.5 -19.5t-28.5 -27.5v-11q-2 -10 -11.5 -21.5t-26.5 -26.5 q-37 -34 -75 -68.5t-78 -67.5q-50 -43 -95 -68t-87 -35q-18 -16 -44.5 -24.5t-64.5 -8.5q-56 0 -91 7.5t-50 21.5q-9 9 -21 18t-28 23q-17 13 -32 47.5t-27 89.5q-8 41 -12.5 79.5t-4.5 71.5q0 10 5 33t4 35q0 23 -2 40q0 18 11 57t11 62q0 5 -6 15q-16 -18 -23 -33 q-6 -10 -14 -15t-15 -5q-11 0 -17.5 9t-6.5 27zM264 411q0 -127 39 -189.5t118 -62.5q37 0 83 19.5t100 59.5q46 34 81 68.5t58 70.5q10 14 31.5 59t59.5 123q25 57 39 115.5t14 120.5q-6 30 -13 59l7 43q-10 12 -17 22q-3 8 -5 13q-31 108 -84 162.5t-131 54.5 q-24 0 -49 -6t-51 -17l-97 -43q-10 -5 -22.5 -16t-27.5 -30l-46 -57q-22 -26 -39 -95t-30 -180q-10 -85 -14 -158.5t-4 -135.5zM490 1683q0 6 6.5 12.5t8.5 12.5q3 7 12.5 15.5t13.5 15.5q7 12 15.5 16t17.5 4q6 0 15 0.5t13 -1.5q8 -5 9.5 -16t3.5 -23q16 0 22 -2 q9 -15 12 -19q6 -9 12 -23t15 -28q9 -13 25.5 -25.5t31.5 -28.5q12 -12 22.5 -28t24.5 -29q16 -14 29.5 -25t21.5 -22q8 -12 11.5 -24.5t3.5 -21.5q0 -15 -5 -22t-15 -7q-23 1 -35 9q-6 3 -12.5 12t-15.5 15q-12 9 -28.5 15t-31.5 15q-15 8 -29.5 20t-27.5 19q-13 6 -19 12 t-20 12q-6 3 -14 3t-13 3q-10 5 -17.5 14t-13.5 15q-9 8 -17 17t-12 18t-6.5 19.5t-2.5 19.5q0 6 -5.5 14.5t-5.5 16.5z" />
<glyph unicode="&#xd3;" horiz-adv-x="1086" d="M33 587q0 12 5.5 36t5.5 37t7.5 31t22.5 41q21 30 31.5 47t11.5 22q5 11 13.5 29t19.5 41q10 11 23 47.5t30 96.5q8 16 17 38.5t22 53.5q4 23 15 54t28 69q21 36 44 71t66 52q17 -11 26 -22t9 -21q0 -25 -22.5 -66.5t-22.5 -56.5q0 -8 9 -15q8 4 29 24t55 54 q28 26 50.5 42.5t42.5 20.5q13 5 33 9t45 13q13 7 21 14q7 6 22 12l15 -3q9 -9 50 -18.5t52 -9.5q9 -5 21 -16t31 -24q40 -24 74.5 -70.5t62.5 -115.5q26 -63 39.5 -120t13.5 -110q0 -167 -42 -290t-127 -202l-19.5 -19.5t-28.5 -27.5v-11q-2 -10 -11.5 -21.5t-26.5 -26.5 q-37 -34 -75 -68.5t-78 -67.5q-50 -43 -95 -68t-87 -35q-18 -16 -44.5 -24.5t-64.5 -8.5q-56 0 -91 7.5t-50 21.5q-9 9 -21 18t-28 23q-17 13 -32 47.5t-27 89.5q-8 41 -12.5 79.5t-4.5 71.5q0 10 5 33t4 35q0 23 -2 40q0 18 11 57t11 62q0 5 -6 15q-16 -18 -23 -33 q-6 -10 -14 -15t-15 -5q-11 0 -17.5 9t-6.5 27zM264 411q0 -127 39 -189.5t118 -62.5q37 0 83 19.5t100 59.5q46 34 81 68.5t58 70.5q10 14 31.5 59t59.5 123q25 57 39 115.5t14 120.5q-6 30 -13 59l7 43q-10 12 -17 22q-3 8 -5 13q-31 108 -84 162.5t-131 54.5 q-24 0 -49 -6t-51 -17l-97 -43q-10 -5 -22.5 -16t-27.5 -30l-46 -57q-22 -26 -39 -95t-30 -180q-10 -85 -14 -158.5t-4 -135.5zM523 1452q-2 8 3 17q3 7 15 16t21 18q6 6 16 19.5t17 19.5q14 12 25 22.5t21 19.5q18 16 31.5 24.5t19.5 14.5q9 9 17.5 18.5t14.5 18.5 q10 15 12.5 30.5t7.5 26.5q9 18 23 27t30 9q10 0 18 -5.5t15 -14.5q5 -7 10 -15t8 -15q6 -15 9.5 -30t3.5 -27t-3.5 -23.5t-9.5 -21.5q-6 -11 -17.5 -22.5t-26.5 -20.5q-9 -6 -19 -11.5t-21 -9.5q-7 -3 -16.5 -14t-15.5 -14q-12 -7 -22.5 -8.5t-22.5 -9.5t-20.5 -16.5 t-20.5 -16.5q-5 -4 -18.5 -7.5t-18.5 -6.5q-9 -6 -14.5 -17t-11.5 -14q-12 -7 -32 -11q-10 0 -18 10t-8 25q0 7 -2 15z" />
<glyph unicode="&#xd4;" horiz-adv-x="1086" d="M33 587q0 12 5.5 36t5.5 37t7.5 31t22.5 41q21 30 31.5 47t11.5 22q5 11 13.5 29t19.5 41q10 11 23 47.5t30 96.5q8 16 17 38.5t22 53.5q4 23 15 54t28 69q21 36 44 71t66 52q17 -11 26 -22t9 -21q0 -25 -22.5 -66.5t-22.5 -56.5q0 -8 9 -15q8 4 29 24t55 54 q28 26 50.5 42.5t42.5 20.5q13 5 33 9t45 13q13 7 21 14q7 6 22 12l15 -3q9 -9 50 -18.5t52 -9.5q9 -5 21 -16t31 -24q40 -24 74.5 -70.5t62.5 -115.5q26 -63 39.5 -120t13.5 -110q0 -167 -42 -290t-127 -202l-19.5 -19.5t-28.5 -27.5v-11q-2 -10 -11.5 -21.5t-26.5 -26.5 q-37 -34 -75 -68.5t-78 -67.5q-50 -43 -95 -68t-87 -35q-18 -16 -44.5 -24.5t-64.5 -8.5q-56 0 -91 7.5t-50 21.5q-9 9 -21 18t-28 23q-17 13 -32 47.5t-27 89.5q-8 41 -12.5 79.5t-4.5 71.5q0 10 5 33t4 35q0 23 -2 40q0 18 11 57t11 62q0 5 -6 15q-16 -18 -23 -33 q-6 -10 -14 -15t-15 -5q-11 0 -17.5 9t-6.5 27zM264 411q0 -127 39 -189.5t118 -62.5q37 0 83 19.5t100 59.5q46 34 81 68.5t58 70.5q10 14 31.5 59t59.5 123q25 57 39 115.5t14 120.5q-6 30 -13 59l7 43q-10 12 -17 22q-3 8 -5 13q-31 108 -84 162.5t-131 54.5 q-24 0 -49 -6t-51 -17l-97 -43q-10 -5 -22.5 -16t-27.5 -30l-46 -57q-22 -26 -39 -95t-30 -180q-10 -85 -14 -158.5t-4 -135.5zM432 1465q0 6 5 14.5t14 19.5q4 6 7 14.5t7 14.5q6 7 14 12t13 11q9 12 15 24.5t14 22.5q11 14 23.5 27t21.5 24q9 12 16 22t14 19 q6 8 14.5 14.5t14.5 10.5q17 13 33.5 17t31.5 4q9 0 19 -3t17 -9t8 -21.5t6 -26.5q4 -9 19 -6.5t21 -6.5q18 -27 38.5 -58t50.5 -54q16 -13 24.5 -25t8.5 -20q0 -7 -3 -12.5t-12 -12.5q-11 -10 -16.5 -14t-10.5 -4q-26 13 -47 26q-14 8 -32.5 16.5t-33.5 19.5q-9 6 -16 13.5 t-17 13.5q-4 3 -14 3t-15 2q-6 1 -8 8t-6 9q-7 -5 -13 -10.5t-13 -10.5q-6 -3 -13.5 -7.5t-12.5 -8.5q-10 -8 -19 -18.5t-18 -18.5q-10 -9 -23 -18.5t-22 -18.5q-9 -8 -16 -15.5t-13 -12.5q-8 -7 -23 -15q-14 5 -21 10q-15 10 -23.5 19.5t-8.5 15.5z" />
<glyph unicode="&#xd5;" horiz-adv-x="1086" d="M33 587q0 12 5.5 36t5.5 37t7.5 31t22.5 41q21 30 31.5 47t11.5 22q5 11 13.5 29t19.5 41q10 11 23 47.5t30 96.5q8 16 17 38.5t22 53.5q4 23 15 54t28 69q21 36 44 71t66 52q17 -11 26 -22t9 -21q0 -25 -22.5 -66.5t-22.5 -56.5q0 -8 9 -15q8 4 29 24t55 54 q28 26 50.5 42.5t42.5 20.5q13 5 33 9t45 13q13 7 21 14q7 6 22 12l15 -3q9 -9 50 -18.5t52 -9.5q9 -5 21 -16t31 -24q40 -24 74.5 -70.5t62.5 -115.5q26 -63 39.5 -120t13.5 -110q0 -167 -42 -290t-127 -202l-19.5 -19.5t-28.5 -27.5v-11q-2 -10 -11.5 -21.5t-26.5 -26.5 q-37 -34 -75 -68.5t-78 -67.5q-50 -43 -95 -68t-87 -35q-18 -16 -44.5 -24.5t-64.5 -8.5q-56 0 -91 7.5t-50 21.5q-9 9 -21 18t-28 23q-17 13 -32 47.5t-27 89.5q-8 41 -12.5 79.5t-4.5 71.5q0 10 5 33t4 35q0 23 -2 40q0 18 11 57t11 62q0 5 -6 15q-16 -18 -23 -33 q-6 -10 -14 -15t-15 -5q-11 0 -17.5 9t-6.5 27zM264 411q0 -127 39 -189.5t118 -62.5q37 0 83 19.5t100 59.5q46 34 81 68.5t58 70.5q10 14 31.5 59t59.5 123q25 57 39 115.5t14 120.5q-6 30 -13 59l7 43q-10 12 -17 22q-3 8 -5 13q-31 108 -84 162.5t-131 54.5 q-24 0 -49 -6t-51 -17l-97 -43q-10 -5 -22.5 -16t-27.5 -30l-46 -57q-22 -26 -39 -95t-30 -180q-10 -85 -14 -158.5t-4 -135.5zM472 1491v13.5t3 14.5q3 6 8.5 12.5t8.5 12.5q4 8 14 14.5t16 14.5q3 4 10 21q6 6 13 11t13 11q9 7 18 16.5t18 15.5t19.5 11.5t19.5 9.5 q15 6 28.5 10.5t25.5 4.5q9 0 21 -5t24 -11q9 -6 20 -13.5t20 -13.5t15.5 -13.5t13.5 -12.5l6 -15l16 4q15 5 23 9q5 2 10.5 5t10.5 6q6 3 12.5 9.5t12.5 10.5q9 4 19 6t18 5q18 9 33 15.5t20 6.5q18 -13 23 -20q4 -7 10 -26q0 -5 -4 -12t-10 -15q-7 -9 -19 -21t-25 -24 q-11 -10 -23.5 -20.5t-24.5 -20.5q-14 -10 -29 -20t-28 -18q-16 -9 -29.5 -15.5t-19.5 -6.5q-20 -2 -26 1q-5 3 -7.5 10t-8.5 10q-16 2 -20 4q-7 5 -12.5 13t-11.5 12q-15 9 -28 16.5t-19 7.5q-9 0 -19.5 -2.5t-19.5 -5.5q-12 -4 -24.5 -11.5t-22.5 -14.5q-8 -6 -16 -12.5 t-14 -12.5q-13 -12 -32 -30q-7 0 -15.5 4t-14.5 11q-4 4 -9 10t-8 13q-3 5 -3 10z" />
<glyph unicode="&#xd6;" horiz-adv-x="1086" d="M33 587q0 12 5.5 36t5.5 37t7.5 31t22.5 41q21 30 31.5 47t11.5 22q5 11 13.5 29t19.5 41q10 11 23 47.5t30 96.5q8 16 17 38.5t22 53.5q4 23 15 54t28 69q21 36 44 71t66 52q17 -11 26 -22t9 -21q0 -25 -22.5 -66.5t-22.5 -56.5q0 -8 9 -15q8 4 29 24t55 54 q28 26 50.5 42.5t42.5 20.5q13 5 33 9t45 13q13 7 21 14q7 6 22 12l15 -3q9 -9 50 -18.5t52 -9.5q9 -5 21 -16t31 -24q40 -24 74.5 -70.5t62.5 -115.5q26 -63 39.5 -120t13.5 -110q0 -167 -42 -290t-127 -202l-19.5 -19.5t-28.5 -27.5v-11q-2 -10 -11.5 -21.5t-26.5 -26.5 q-37 -34 -75 -68.5t-78 -67.5q-50 -43 -95 -68t-87 -35q-18 -16 -44.5 -24.5t-64.5 -8.5q-56 0 -91 7.5t-50 21.5q-9 9 -21 18t-28 23q-17 13 -32 47.5t-27 89.5q-8 41 -12.5 79.5t-4.5 71.5q0 10 5 33t4 35q0 23 -2 40q0 18 11 57t11 62q0 5 -6 15q-16 -18 -23 -33 q-6 -10 -14 -15t-15 -5q-11 0 -17.5 9t-6.5 27zM264 411q0 -127 39 -189.5t118 -62.5q37 0 83 19.5t100 59.5q46 34 81 68.5t58 70.5q10 14 31.5 59t59.5 123q25 57 39 115.5t14 120.5q-6 30 -13 59l7 43q-10 12 -17 22q-3 8 -5 13q-31 108 -84 162.5t-131 54.5 q-24 0 -49 -6t-51 -17l-97 -43q-10 -5 -22.5 -16t-27.5 -30l-46 -57q-22 -26 -39 -95t-30 -180q-10 -85 -14 -158.5t-4 -135.5zM500 1477q0 16 6.5 34t16.5 35q8 13 19.5 26.5t23.5 24.5q4 4 7 10.5t8 9.5q6 3 13.5 5t12.5 5q11 6 22 9.5t19 3.5q12 0 22 -2t17 -5 q12 -5 18 -15.5t6 -24.5q0 -5 -0.5 -11t-0.5 -11q0 -6 -5.5 -7t-7.5 -7q-3 -8 -2.5 -23.5t-2.5 -22.5q-3 -8 -8.5 -16.5t-11.5 -16.5t-13 -15t-14 -12q-9 -8 -20 -19.5t-23 -14.5q-10 -3 -22 0.5t-22 3.5q-14 0 -25 3t-18 9t-11 17.5t-4 26.5zM785 1469q0 12 2.5 24t5.5 21 q2 6 6 12.5t8 11.5q3 4 11 3.5t13 2.5q4 3 12 19q5 2 10.5 6t10.5 9l27.5 27.5t27.5 14.5q9 0 17.5 -1.5t14.5 -3.5q9 -3 16.5 -8.5t11.5 -12.5q5 -8 8 -18t3 -22q0 -7 -1 -15t-2 -15q-2 -12 -6.5 -24.5t-10.5 -22.5t-13 -20.5t-16 -18.5q-10 -10 -22.5 -19t-25.5 -15 q-9 -3 -19.5 -5.5t-20.5 -2.5q-7 0 -15 -1.5t-14 -0.5q-6 2 -20 19q-4 4 -8 11t-7 15q-2 6 -3 14t-1 16z" />
<glyph unicode="&#xd7;" d="M87 306q53 55 103 102l71 65q8 13 24 26.5t37 30.5q10 7 17 13q13 11 32.5 29t45.5 41q-7 7 -16 16.5t-17 20.5l-2 10q-8 3 -13 3q-5 9 -8.5 14.5t-6.5 11.5h-6q-6 1 -13 9.5t-17 24.5q-4 7 -28.5 34.5t-68.5 70.5q-39 38 -59 64t-20 35q0 10 41.5 46.5t54.5 40.5 q73 -73 137 -146q37 -42 74 -82.5t72 -80.5q59 51 107.5 100.5t87.5 95.5q16 11 29 20q18 17 47.5 40t68.5 50q7 -10 17 -23.5t26 -27.5q5 -5 8 -7.5t6 -7.5q6 -3 10 -6.5t9 -9.5l1 -7q-82 -81 -163 -154q-86 -79 -175 -158q23 -26 59 -61.5t86 -83.5q17 -12 30 -26t21 -29 q45 -58 82 -108l-4 -8q-49 -42 -93 -78q-15 13 -29 27q-16 16 -39 40.5t-56 57.5q-5 10 -14.5 22t-22.5 29q-39 38 -68 70t-49 58q-6 -6 -15.5 -14.5t-22.5 -19.5l-8 -2l-10 -14q-9 -7 -46 -41t-102 -95q-60 -56 -93 -85.5t-38 -29.5q-9 0 -45 38.5t-36 48.5z" />
<glyph unicode="&#xd8;" horiz-adv-x="1054" d="M60 299q0 38 1.5 75.5t4.5 76.5q3 14 7 37t10 53q4 26 7 54.5t7 56.5q5 33 13.5 58.5t18.5 47.5q3 7 8.5 19t11.5 29q17 68 36.5 113t39.5 66q8 30 23.5 57.5t35.5 50.5q5 5 27.5 26t59.5 55q47 43 78 69.5t44 36.5q41 32 76 47.5t67 18.5q13 10 20 16t11 9 q72 -18 136 -35q9 0 32.5 47.5t65.5 47.5q21 0 31 -22.5t10 -65.5q-4 -24 -7 -47l12 -40q0 6 -4.5 -5.5t-13.5 -43.5q16 -23 29 -40q42 -56 62.5 -123t20.5 -146q0 -10 -0.5 -17t-2.5 -16l-10 -107q-8 -96 -54.5 -203.5t-114.5 -177.5q-8 -8 -19 -18.5t-22 -21.5 q-3 -13 -13 -28t-27 -33l-26 -26t-29 -27q-17 -14 -42.5 -36t-58.5 -54q-19 -23 -41 -39.5t-45 -24.5q-25 -9 -50.5 -17t-50.5 -16q-11 -6 -24 -11.5t-26 -11.5q-10 -4 -25 -6.5t-36 -2.5q-18 0 -50 6t-48 6q-14 0 -52 -61t-49 -61q-13 0 -21 11.5t-11 31.5q-3 17 -2 33 t-1 33q15 17 22.5 39t9.5 48q-10 19 -20 35q-20 31 -31 74.5t-11 99.5zM232 437q7 -39 14 -85q28 43 56 88q16 27 40.5 68t58.5 96q29 42 63 94t74 115q21 38 49.5 93t67.5 128q8 16 21 39t27 53q-3 17 -25.5 24t-68.5 7q-72 0 -135 -32t-117 -97q-33 -37 -57 -107t-41 -169 q-14 -85 -20.5 -163.5t-6.5 -151.5zM329 188q0 -15 16.5 -22t51.5 -7q38 0 77 14.5t77 42.5q32 27 62.5 55t63.5 54q45 37 77 88.5t51 117.5q7 12 15 29t16 40q2 12 6 32t13 53q7 25 10 46t3 37q0 8 -1.5 24t-2.5 39q-2 20 -2 36.5v29.5q-8 21 -20 35q-1 9 -4.5 19t-11.5 21 q-13 -7 -15 -12q-20 -45 -41 -81.5t-42 -65.5q-16 -25 -41 -63t-60 -88q-13 -20 -34.5 -50.5t-48.5 -70.5q-14 -25 -36 -61t-54 -83q-10 -12 -23 -29t-29 -40q-35 -70 -73 -140z" />
<glyph unicode="&#xd9;" horiz-adv-x="1032" d="M106 908q0 62 7 160t20 230q6 48 21.5 73t41.5 25q9 0 17.5 -12t18.5 -36q23 -22 46 -40q18 -16 27 -39.5t9 -55.5q0 -29 -12.5 -82.5t-12.5 -80.5q0 -52 -3.5 -87.5t-10.5 -54.5l-11 -32q4 -30 8 -67q-3 -57 -4 -119q0 -61 10 -125.5t27 -129.5q24 -88 58.5 -132.5 t77.5 -44.5q22 0 40.5 10.5t35.5 32.5q13 18 25 37t24 37q13 16 28 40.5t33 58.5q17 60 38 121t42 123q5 20 13 51.5t16 72.5q19 50 37.5 139t41.5 216q8 20 19.5 51t26.5 72q4 15 15 47t31 81q8 24 29 36.5t52 12.5q19 0 27.5 -24.5t8.5 -74.5q0 -95 -23.5 -232.5 t-73.5 -314.5q-3 -16 -9.5 -40.5t-15.5 -55.5q-1 -19 -4.5 -43.5t-9.5 -56.5q-16 -56 -26.5 -120t-16.5 -133q0 -10 -3.5 -30t-9.5 -48t-8 -50t-2 -41q3 -27 6 -51q13 -14 19.5 -23.5t6.5 -15.5q-6 -18 -20.5 -39t-37.5 -45q-24 -27 -47 -41t-42 -14q-18 0 -35 22.5 t-17 42.5v8q4 10 7 23q0 5 -2.5 10.5t-4.5 14.5l6 15t8 23q-2 5 -4.5 12t-7.5 17q2 6 4 14.5t6 21.5q0 8 -2 20q1 7 3 20.5t5 33.5q4 17 6.5 28.5t2.5 17.5q0 7 -2.5 13t-6.5 8q-6 -2 -16.5 -15t-23.5 -36q-16 -27 -27.5 -43.5t-15.5 -22.5l-4 -14q-27 -37 -48 -61.5 t-32 -34.5q-19 -17 -45.5 -31t-63.5 -24q-19 -4 -35 -10q-38 0 -67 10t-44 28q-61 71 -91 159t-30 196q0 21 -10 66t-10 68q0 13 2.5 40.5t2.5 40.5q0 37 -4.5 111.5t-4.5 111.5zM388 1676q0 6 6.5 12.5t8.5 12.5q3 7 12.5 15.5t13.5 15.5q7 12 15.5 16t17.5 4q6 0 15 0.5 t13 -1.5q8 -5 9.5 -16t3.5 -23q16 0 22 -2q9 -15 12 -19q6 -9 12 -23t15 -28q9 -13 25.5 -25.5t31.5 -28.5q12 -12 22.5 -28t24.5 -29q16 -14 29.5 -25t21.5 -22q8 -12 11.5 -24.5t3.5 -21.5q0 -15 -5 -22t-15 -7q-23 1 -35 9q-6 3 -12.5 12t-15.5 15q-12 9 -28.5 15 t-31.5 15q-15 8 -29.5 20t-27.5 19q-13 6 -19 12t-20 12q-6 3 -14 3t-13 3q-10 5 -17.5 14t-13.5 15q-9 8 -17 17t-12 18t-6.5 19.5t-2.5 19.5q0 6 -5.5 14.5t-5.5 16.5z" />
<glyph unicode="&#xda;" horiz-adv-x="1032" d="M106 908q0 62 7 160t20 230q6 48 21.5 73t41.5 25q9 0 17.5 -12t18.5 -36q23 -22 46 -40q18 -16 27 -39.5t9 -55.5q0 -29 -12.5 -82.5t-12.5 -80.5q0 -52 -3.5 -87.5t-10.5 -54.5l-11 -32q4 -30 8 -67q-3 -57 -4 -119q0 -61 10 -125.5t27 -129.5q24 -88 58.5 -132.5 t77.5 -44.5q22 0 40.5 10.5t35.5 32.5q13 18 25 37t24 37q13 16 28 40.5t33 58.5q17 60 38 121t42 123q5 20 13 51.5t16 72.5q19 50 37.5 139t41.5 216q8 20 19.5 51t26.5 72q4 15 15 47t31 81q8 24 29 36.5t52 12.5q19 0 27.5 -24.5t8.5 -74.5q0 -95 -23.5 -232.5 t-73.5 -314.5q-3 -16 -9.5 -40.5t-15.5 -55.5q-1 -19 -4.5 -43.5t-9.5 -56.5q-16 -56 -26.5 -120t-16.5 -133q0 -10 -3.5 -30t-9.5 -48t-8 -50t-2 -41q3 -27 6 -51q13 -14 19.5 -23.5t6.5 -15.5q-6 -18 -20.5 -39t-37.5 -45q-24 -27 -47 -41t-42 -14q-18 0 -35 22.5 t-17 42.5v8q4 10 7 23q0 5 -2.5 10.5t-4.5 14.5l6 15t8 23q-2 5 -4.5 12t-7.5 17q2 6 4 14.5t6 21.5q0 8 -2 20q1 7 3 20.5t5 33.5q4 17 6.5 28.5t2.5 17.5q0 7 -2.5 13t-6.5 8q-6 -2 -16.5 -15t-23.5 -36q-16 -27 -27.5 -43.5t-15.5 -22.5l-4 -14q-27 -37 -48 -61.5 t-32 -34.5q-19 -17 -45.5 -31t-63.5 -24q-19 -4 -35 -10q-38 0 -67 10t-44 28q-61 71 -91 159t-30 196q0 21 -10 66t-10 68q0 13 2.5 40.5t2.5 40.5q0 37 -4.5 111.5t-4.5 111.5zM473 1459q-2 8 3 17q3 7 15 16t21 18q6 6 16 19.5t17 19.5q14 12 25 22.5t21 19.5 q18 16 31.5 24.5t19.5 14.5q9 9 17.5 18.5t14.5 18.5q10 15 12.5 30.5t7.5 26.5q9 18 23 27t30 9q10 0 18 -5.5t15 -14.5q5 -7 10 -15t8 -15q6 -15 9.5 -30t3.5 -27t-3.5 -23.5t-9.5 -21.5q-6 -11 -17.5 -22.5t-26.5 -20.5q-9 -6 -19 -11.5t-21 -9.5q-7 -3 -16.5 -14 t-15.5 -14q-12 -7 -22.5 -8.5t-22.5 -9.5t-20.5 -16.5t-20.5 -16.5q-5 -4 -18.5 -7.5t-18.5 -6.5q-9 -6 -14.5 -17t-11.5 -14q-12 -7 -32 -11q-10 0 -18 10t-8 25q0 7 -2 15z" />
<glyph unicode="&#xdb;" horiz-adv-x="1032" d="M106 908q0 62 7 160t20 230q6 48 21.5 73t41.5 25q9 0 17.5 -12t18.5 -36q23 -22 46 -40q18 -16 27 -39.5t9 -55.5q0 -29 -12.5 -82.5t-12.5 -80.5q0 -52 -3.5 -87.5t-10.5 -54.5l-11 -32q4 -30 8 -67q-3 -57 -4 -119q0 -61 10 -125.5t27 -129.5q24 -88 58.5 -132.5 t77.5 -44.5q22 0 40.5 10.5t35.5 32.5q13 18 25 37t24 37q13 16 28 40.5t33 58.5q17 60 38 121t42 123q5 20 13 51.5t16 72.5q19 50 37.5 139t41.5 216q8 20 19.5 51t26.5 72q4 15 15 47t31 81q8 24 29 36.5t52 12.5q19 0 27.5 -24.5t8.5 -74.5q0 -95 -23.5 -232.5 t-73.5 -314.5q-3 -16 -9.5 -40.5t-15.5 -55.5q-1 -19 -4.5 -43.5t-9.5 -56.5q-16 -56 -26.5 -120t-16.5 -133q0 -10 -3.5 -30t-9.5 -48t-8 -50t-2 -41q3 -27 6 -51q13 -14 19.5 -23.5t6.5 -15.5q-6 -18 -20.5 -39t-37.5 -45q-24 -27 -47 -41t-42 -14q-18 0 -35 22.5 t-17 42.5v8q4 10 7 23q0 5 -2.5 10.5t-4.5 14.5l6 15t8 23q-2 5 -4.5 12t-7.5 17q2 6 4 14.5t6 21.5q0 8 -2 20q1 7 3 20.5t5 33.5q4 17 6.5 28.5t2.5 17.5q0 7 -2.5 13t-6.5 8q-6 -2 -16.5 -15t-23.5 -36q-16 -27 -27.5 -43.5t-15.5 -22.5l-4 -14q-27 -37 -48 -61.5 t-32 -34.5q-19 -17 -45.5 -31t-63.5 -24q-19 -4 -35 -10q-38 0 -67 10t-44 28q-61 71 -91 159t-30 196q0 21 -10 66t-10 68q0 13 2.5 40.5t2.5 40.5q0 37 -4.5 111.5t-4.5 111.5zM345 1462q0 6 5 14.5t14 19.5q4 6 7 14.5t7 14.5q6 7 14 12t13 11q9 12 15 24.5t14 22.5 q11 14 23.5 27t21.5 24q9 12 16 22t14 19q6 8 14.5 14.5t14.5 10.5q17 13 33.5 17t31.5 4q9 0 19 -3t17 -9t8 -21.5t6 -26.5q4 -9 19 -6.5t21 -6.5q18 -27 38.5 -58t50.5 -54q16 -13 24.5 -25t8.5 -20q0 -7 -3 -12.5t-12 -12.5q-11 -10 -16.5 -14t-10.5 -4q-26 13 -47 26 q-14 8 -32.5 16.5t-33.5 19.5q-9 6 -16 13.5t-17 13.5q-4 3 -14 3t-15 2q-6 1 -8 8t-6 9q-7 -5 -13 -10.5t-13 -10.5q-6 -3 -13.5 -7.5t-12.5 -8.5q-10 -8 -19 -18.5t-18 -18.5q-10 -9 -23 -18.5t-22 -18.5q-9 -8 -16 -15.5t-13 -12.5q-8 -7 -23 -15q-14 5 -21 10 q-15 10 -23.5 19.5t-8.5 15.5z" />
<glyph unicode="&#xdc;" horiz-adv-x="1032" d="M106 908q0 62 7 160t20 230q6 48 21.5 73t41.5 25q9 0 17.5 -12t18.5 -36q23 -22 46 -40q18 -16 27 -39.5t9 -55.5q0 -29 -12.5 -82.5t-12.5 -80.5q0 -52 -3.5 -87.5t-10.5 -54.5l-11 -32q4 -30 8 -67q-3 -57 -4 -119q0 -61 10 -125.5t27 -129.5q24 -88 58.5 -132.5 t77.5 -44.5q22 0 40.5 10.5t35.5 32.5q13 18 25 37t24 37q13 16 28 40.5t33 58.5q17 60 38 121t42 123q5 20 13 51.5t16 72.5q19 50 37.5 139t41.5 216q8 20 19.5 51t26.5 72q4 15 15 47t31 81q8 24 29 36.5t52 12.5q19 0 27.5 -24.5t8.5 -74.5q0 -95 -23.5 -232.5 t-73.5 -314.5q-3 -16 -9.5 -40.5t-15.5 -55.5q-1 -19 -4.5 -43.5t-9.5 -56.5q-16 -56 -26.5 -120t-16.5 -133q0 -10 -3.5 -30t-9.5 -48t-8 -50t-2 -41q3 -27 6 -51q13 -14 19.5 -23.5t6.5 -15.5q-6 -18 -20.5 -39t-37.5 -45q-24 -27 -47 -41t-42 -14q-18 0 -35 22.5 t-17 42.5v8q4 10 7 23q0 5 -2.5 10.5t-4.5 14.5l6 15t8 23q-2 5 -4.5 12t-7.5 17q2 6 4 14.5t6 21.5q0 8 -2 20q1 7 3 20.5t5 33.5q4 17 6.5 28.5t2.5 17.5q0 7 -2.5 13t-6.5 8q-6 -2 -16.5 -15t-23.5 -36q-16 -27 -27.5 -43.5t-15.5 -22.5l-4 -14q-27 -37 -48 -61.5 t-32 -34.5q-19 -17 -45.5 -31t-63.5 -24q-19 -4 -35 -10q-38 0 -67 10t-44 28q-61 71 -91 159t-30 196q0 21 -10 66t-10 68q0 13 2.5 40.5t2.5 40.5q0 37 -4.5 111.5t-4.5 111.5zM366 1507q0 16 6.5 34t16.5 35q8 13 19.5 26.5t23.5 24.5q4 4 7 10.5t8 9.5q6 3 13.5 5 t12.5 5q11 6 22 9.5t19 3.5q12 0 22 -2t17 -5q12 -5 18 -15.5t6 -24.5q0 -5 -0.5 -11t-0.5 -11q0 -6 -5.5 -7t-7.5 -7q-3 -8 -2.5 -23.5t-2.5 -22.5q-3 -8 -8.5 -16.5t-11.5 -16.5t-13 -15t-14 -12q-9 -8 -20 -19.5t-23 -14.5q-10 -3 -22 0.5t-22 3.5q-14 0 -25 3t-18 9 t-11 17.5t-4 26.5zM651 1499q0 12 2.5 24t5.5 21q2 6 6 12.5t8 11.5q3 4 11 3.5t13 2.5q4 3 12 19q5 2 10.5 6t10.5 9l27.5 27.5t27.5 14.5q9 0 17.5 -1.5t14.5 -3.5q9 -3 16.5 -8.5t11.5 -12.5q5 -8 8 -18t3 -22q0 -7 -1 -15t-2 -15q-2 -12 -6.5 -24.5t-10.5 -22.5 t-13 -20.5t-16 -18.5q-10 -10 -22.5 -19t-25.5 -15q-9 -3 -19.5 -5.5t-20.5 -2.5q-7 0 -15 -1.5t-14 -0.5q-6 2 -20 19q-4 4 -8 11t-7 15q-2 6 -3 14t-1 16z" />
<glyph unicode="&#xdd;" horiz-adv-x="755" d="M42 1253q0 37 11 57t33 25q7 0 15.5 0.5t18.5 0.5q12 0 73 32q28 0 45 -14.5t23 -41.5q3 -14 4 -39.5t1 -60.5q0 -19 -3.5 -55t-3.5 -53q0 -6 1.5 -13.5t3.5 -20.5q1 -33 7.5 -80.5t16.5 -108.5q6 -36 18 -89.5t28 -124.5q8 -10 16.5 -23.5t16.5 -30.5l7 -4 q6 0 29.5 45.5t64.5 136.5q6 12 14 31.5t19 45.5q5 6 11 16t14 24q5 17 15 43.5t25 62.5q13 23 29.5 56.5t36.5 79.5q1 6 37.5 65.5t105.5 170.5q8 13 17 20.5t17 7.5q22 0 32 -14t10 -41q0 -51 -4.5 -95t-15.5 -78q-15 -43 -28.5 -84.5t-27.5 -84.5q-15 -17 -20 -26 q-2 -21 -5 -41q-1 -8 -7.5 -15t-16.5 -16q-3 -10 -8 -23.5t-12 -31.5q-26 -51 -69.5 -121.5t-105.5 -162.5q-1 -16 -1 -30l-56 -120q-29 -65 -50.5 -124.5t-32.5 -113.5q-6 -30 -9.5 -49.5t-3.5 -27.5q0 -10 12 -30.5t12 -25.5q0 -22 -58.5 -57t-72.5 -34q-15 3 -31.5 5.5 t-30.5 5.5q-21 5 -32 13.5t-11 21.5q0 10 7 39q9 44 22.5 80.5t33.5 67.5l3 4q-3 4 -4.5 10t-4.5 13q5 18 14 44t24 60q10 16 20 42.5t18 60.5q-35 29 -58 61t-32 67q-8 17 -21 43.5t-28 63.5l-74 255q-3 30 -8.5 71.5t-17.5 94.5l9 23l-17 22q0 8 -1.5 22.5t-4.5 35.5 q-3 20 -3.5 34.5t-0.5 24.5zM399 1397q-2 8 3 17q3 7 15 16t21 18q6 6 16 19.5t17 19.5q14 12 25 22.5t21 19.5q18 16 31.5 24.5t19.5 14.5q9 9 17.5 18.5t14.5 18.5q10 15 12.5 30.5t7.5 26.5q9 18 23 27t30 9q10 0 18 -5.5t15 -14.5q5 -7 10 -15t8 -15q6 -15 9.5 -30 t3.5 -27t-3.5 -23.5t-9.5 -21.5q-6 -11 -17.5 -22.5t-26.5 -20.5q-9 -6 -19 -11.5t-21 -9.5q-7 -3 -16.5 -14t-15.5 -14q-12 -7 -22.5 -8.5t-22.5 -9.5t-20.5 -16.5t-20.5 -16.5q-5 -4 -18.5 -7.5t-18.5 -6.5q-9 -6 -14.5 -17t-11.5 -14q-12 -7 -32 -11q-10 0 -18 10t-8 25 q0 7 -2 15z" />
<glyph unicode="&#xde;" horiz-adv-x="906" d="M9 182q0 20 41.5 38.5t42.5 57.5q2 28 4.5 73.5t7.5 105.5q4 23 9 56t11 76q0 5 -2.5 16.5t-2.5 16.5q0 11 3.5 33t9.5 55q9 39 13 62.5t6 30.5q16 115 28.5 150t17.5 90q-17 4 -35.5 11t-37.5 13q-24 9 -36.5 20.5t-12.5 25.5q0 11 15 30.5t44 46.5q19 16 37.5 32.5 t35.5 32.5q16 4 29 8q25 -2 39 -7q4 6 17.5 70t23.5 88q7 6 27.5 8.5t27.5 8.5q6 4 14.5 6t20.5 4q20 17 35.5 24t27.5 7q16 0 44.5 -20.5t28.5 -40.5q0 -6 -47.5 -77t-63.5 -155q15 -6 31 -20t31 -21q13 -6 29.5 -12t28.5 -13q13 -7 16.5 -20t15.5 -21q57 -36 109 -77.5 t87 -89.5q16 -23 24.5 -50t17.5 -54q9 -29 18 -59t9 -62q0 -71 -24 -138.5t-75 -131.5q-11 -8 -27 -18.5t-34 -24.5q-4 -5 -10.5 -10.5t-16.5 -14.5q-25 -14 -106 -50.5t-218 -98.5q-16 -7 -34.5 -10.5t-35.5 -9.5q-23 -8 -35 -16.5t-12 -19.5q0 -37 5 -58.5t12 -28.5 q11 -10 24 -27q-1 -13 -12.5 -31.5t-33.5 -45.5q-21 -29 -40.5 -44t-33.5 -15q-26 0 -42.5 19.5t-20.5 57.5q-2 60 -2 116q0 39 -34 63.5t-34 38.5zM246 291q0 -7 4.5 -10t10.5 -3q8 0 32 8.5t62 25.5q73 30 126 61.5t86 61.5q16 9 46 27.5t49 75.5q8 23 11.5 46t3.5 45 q0 19 -7.5 50.5t-26.5 64.5q-13 22 -25.5 43t-33.5 44q-23 24 -53 53t-64 50q-7 5 -17 7t-18 6q-7 3 -14 11.5t-14 11.5t-21 1t-21 0q-5 -1 -7 -5.5t-2 -9.5q0 -7 -4.5 -23t-4.5 -25q0 -20 0.5 -13t-9.5 -29q-12 -46 -11 -74.5t-2 -41.5q-11 -53 -19 -83t-19 -83 q-13 -64 -20.5 -117t-7.5 -96q0 -14 -5 -41.5t-5 -38.5z" />
<glyph unicode="&#xdf;" horiz-adv-x="748" d="M-36 298q16 26 27 49q8 17 23 31t38 27q7 5 17.5 10.5t22.5 15.5q0 24 4 55.5t13 69.5q11 48 17 79t7 44q4 34 10.5 86.5t16.5 119.5q5 14 10.5 38t14.5 54q18 71 33 120.5t28 74.5q19 34 53.5 72.5t84.5 81.5q26 22 44.5 36t28.5 20q18 10 40.5 15t46.5 5q16 0 44.5 -2 t43.5 -2l7 -2q28 -8 49 -16.5t34 -18.5q34 -32 64 -59q15 -13 21 -41t6 -72q0 -28 -10.5 -60.5t-33.5 -68.5q-20 -32 -42 -58.5t-48 -46.5q-22 -15 -42.5 -31t-42.5 -32q-27 -24 -40.5 -46.5t-13.5 -42.5q0 -22 78 -98t78 -159q0 -76 -36.5 -156.5t-110.5 -163.5 q-11 -10 -27 -23.5t-36 -32.5q-48 -43 -89.5 -63.5t-77.5 -20.5q-40 0 -60 13t-20 41q27 22 52 39q30 20 48.5 33.5t27.5 22.5q44 49 72.5 85.5t40.5 59.5q17 32 25 77.5t8 101.5q0 17 -1.5 28.5t-5.5 16.5q-6 9 -12 18.5t-13 17.5q-14 27 -28 56q-23 23 -43 42 q-12 12 -19 28t-7 35q0 11 1.5 20.5t4.5 17.5q12 15 28.5 31.5t36.5 37.5q94 100 141 170.5t47 111.5q0 39 -14.5 58t-44.5 19q-38 0 -84 -33.5t-98 -100.5q-27 -35 -47.5 -104t-36.5 -174q0 -9 -5 -28t-14 -54q-8 -28 -15 -67q0 -27 -7.5 -63t-20.5 -82q0 -8 -1.5 -21.5 l-3.5 -31.5q-10 -48 -20 -95.5t-19 -94.5q-11 -57 -17.5 -104.5t-8.5 -86.5q-1 -35 -7.5 -79t-18.5 -95q-5 -58 -11 -116t-13 -116q-11 -93 -30.5 -139t-45.5 -46q-27 0 -40.5 18.5t-13.5 55.5q0 36 5 105.5t5 105.5q0 20 7 60t9 59q0 23 5.5 65t14.5 104q8 56 12.5 96.5 t4.5 69.5l-10 -1q-10 -15 -24 -31.5t-31 -36.5q-5 13 -12.5 31t-15.5 42q-2 6 -5 11t-7 8z" />
<glyph unicode="&#xe0;" horiz-adv-x="769" d="M-42 86q0 27 11.5 51.5t34.5 47.5q2 13 2 21q0 5 -2.5 10.5t-6.5 12.5l-13.5 31.5t-16.5 37.5q4 4 11.5 15.5t17.5 28.5l91 60q5 5 12 13.5t16 24.5q7 13 18.5 22t26.5 16q8 10 23 25t38 35q11 6 28 17.5t37 30.5q91 86 159.5 129t115.5 43q26 0 38.5 -11t12.5 -31 q0 -21 -7.5 -37t-23.5 -27q-25 -18 -54 -40q-16 -21 -39 -44.5t-54 -46.5q-10 -13 -17 -23q-5 -5 -19 -18t-37 -30q-10 -22 -43.5 -57t-89.5 -84q-7 -7 -25 -32t-47 -66l7 -9q22 7 46 24t53 45q34 31 55.5 50.5t30.5 25.5l14 8t16 10q46 55 86 81.5t74 26.5q21 0 32 -16.5 t13 -49.5q-2 -50 -2 -96q-1 -32 17.5 -57.5t48.5 -25.5q9 0 17.5 5t17.5 13q7 9 13.5 17t13.5 16q4 2 11.5 7t14.5 12q14 -30 23.5 -52.5t14.5 -39.5q-23 -21 -45.5 -43.5t-47.5 -42.5q-30 -23 -58 -34.5t-56 -11.5q-65 0 -100 37t-41 112q0 9 -2.5 18.5t-10.5 19.5 q-5 -5 -11 -10.5t-14 -14.5l-32.5 -25t-45.5 -36q-35 -36 -59 -59t-34 -33q-20 -17 -46.5 -34t-59.5 -35q-21 -11 -36 -17.5t-22 -6.5q-48 0 -71 23.5t-23 72.5zM348 1068q0 6 6.5 12.5t8.5 12.5q3 7 12.5 15.5t13.5 15.5q7 12 15.5 16t17.5 4q6 0 15 0.5t13 -1.5 q8 -5 9.5 -16t3.5 -23q16 0 22 -2q9 -15 12 -19q6 -9 12 -23t15 -28q9 -13 25.5 -25.5t31.5 -28.5q12 -12 22.5 -28t24.5 -29q16 -14 29.5 -25t21.5 -22q8 -12 11.5 -24.5t3.5 -21.5q0 -15 -5 -22t-15 -7q-23 1 -35 9q-6 3 -12.5 12t-15.5 15q-12 9 -28.5 15t-31.5 15 q-15 8 -29.5 20t-27.5 19q-13 6 -19 12t-20 12q-6 3 -14 3t-13 3q-10 5 -17.5 14t-13.5 15q-9 8 -17 17t-12 18t-6.5 19.5t-2.5 19.5q0 6 -5.5 14.5t-5.5 16.5z" />
<glyph unicode="&#xe1;" horiz-adv-x="769" d="M-42 86q0 27 11.5 51.5t34.5 47.5q2 13 2 21q0 5 -2.5 10.5t-6.5 12.5l-13.5 31.5t-16.5 37.5q4 4 11.5 15.5t17.5 28.5l91 60q5 5 12 13.5t16 24.5q7 13 18.5 22t26.5 16q8 10 23 25t38 35q11 6 28 17.5t37 30.5q91 86 159.5 129t115.5 43q26 0 38.5 -11t12.5 -31 q0 -21 -7.5 -37t-23.5 -27q-25 -18 -54 -40q-16 -21 -39 -44.5t-54 -46.5q-10 -13 -17 -23q-5 -5 -19 -18t-37 -30q-10 -22 -43.5 -57t-89.5 -84q-7 -7 -25 -32t-47 -66l7 -9q22 7 46 24t53 45q34 31 55.5 50.5t30.5 25.5l14 8t16 10q46 55 86 81.5t74 26.5q21 0 32 -16.5 t13 -49.5q-2 -50 -2 -96q-1 -32 17.5 -57.5t48.5 -25.5q9 0 17.5 5t17.5 13q7 9 13.5 17t13.5 16q4 2 11.5 7t14.5 12q14 -30 23.5 -52.5t14.5 -39.5q-23 -21 -45.5 -43.5t-47.5 -42.5q-30 -23 -58 -34.5t-56 -11.5q-65 0 -100 37t-41 112q0 9 -2.5 18.5t-10.5 19.5 q-5 -5 -11 -10.5t-14 -14.5l-32.5 -25t-45.5 -36q-35 -36 -59 -59t-34 -33q-20 -17 -46.5 -34t-59.5 -35q-21 -11 -36 -17.5t-22 -6.5q-48 0 -71 23.5t-23 72.5zM404 843q-2 8 3 17q3 7 15 16t21 18q6 6 16 19.5t17 19.5q14 12 25 22.5t21 19.5q18 16 31.5 24.5t19.5 14.5 q9 9 17.5 18.5t14.5 18.5q10 15 12.5 30.5t7.5 26.5q9 18 23 27t30 9q10 0 18 -5.5t15 -14.5q5 -7 10 -15t8 -15q6 -15 9.5 -30t3.5 -27t-3.5 -23.5t-9.5 -21.5q-6 -11 -17.5 -22.5t-26.5 -20.5q-9 -6 -19 -11.5t-21 -9.5q-7 -3 -16.5 -14t-15.5 -14q-12 -7 -22.5 -8.5 t-22.5 -9.5t-20.5 -16.5t-20.5 -16.5q-5 -4 -18.5 -7.5t-18.5 -6.5q-9 -6 -14.5 -17t-11.5 -14q-12 -7 -32 -11q-10 0 -18 10t-8 25q0 7 -2 15z" />
<glyph unicode="&#xe2;" horiz-adv-x="769" d="M-42 86q0 27 11.5 51.5t34.5 47.5q2 13 2 21q0 5 -2.5 10.5t-6.5 12.5l-13.5 31.5t-16.5 37.5q4 4 11.5 15.5t17.5 28.5l91 60q5 5 12 13.5t16 24.5q7 13 18.5 22t26.5 16q8 10 23 25t38 35q11 6 28 17.5t37 30.5q91 86 159.5 129t115.5 43q26 0 38.5 -11t12.5 -31 q0 -21 -7.5 -37t-23.5 -27q-25 -18 -54 -40q-16 -21 -39 -44.5t-54 -46.5q-10 -13 -17 -23q-5 -5 -19 -18t-37 -30q-10 -22 -43.5 -57t-89.5 -84q-7 -7 -25 -32t-47 -66l7 -9q22 7 46 24t53 45q34 31 55.5 50.5t30.5 25.5l14 8t16 10q46 55 86 81.5t74 26.5q21 0 32 -16.5 t13 -49.5q-2 -50 -2 -96q-1 -32 17.5 -57.5t48.5 -25.5q9 0 17.5 5t17.5 13q7 9 13.5 17t13.5 16q4 2 11.5 7t14.5 12q14 -30 23.5 -52.5t14.5 -39.5q-23 -21 -45.5 -43.5t-47.5 -42.5q-30 -23 -58 -34.5t-56 -11.5q-65 0 -100 37t-41 112q0 9 -2.5 18.5t-10.5 19.5 q-5 -5 -11 -10.5t-14 -14.5l-32.5 -25t-45.5 -36q-35 -36 -59 -59t-34 -33q-20 -17 -46.5 -34t-59.5 -35q-21 -11 -36 -17.5t-22 -6.5q-48 0 -71 23.5t-23 72.5zM292 848q0 6 5 14.5t14 19.5q4 6 7 14.5t7 14.5q6 7 14 12t13 11q9 12 15 24.5t14 22.5q11 14 23.5 27t21.5 24 q9 12 16 22t14 19q6 8 14.5 14.5t14.5 10.5q17 13 33.5 17t31.5 4q9 0 19 -3t17 -9t8 -21.5t6 -26.5q4 -9 19 -6.5t21 -6.5q18 -27 38.5 -58t50.5 -54q16 -13 24.5 -25t8.5 -20q0 -7 -3 -12.5t-12 -12.5q-11 -10 -16.5 -14t-10.5 -4q-26 13 -47 26q-14 8 -32.5 16.5 t-33.5 19.5q-9 6 -16 13.5t-17 13.5q-4 3 -14 3t-15 2q-6 1 -8 8t-6 9q-7 -5 -13 -10.5t-13 -10.5q-6 -3 -13.5 -7.5t-12.5 -8.5q-10 -8 -19 -18.5t-18 -18.5q-10 -9 -23 -18.5t-22 -18.5q-9 -8 -16 -15.5t-13 -12.5q-8 -7 -23 -15q-14 5 -21 10q-15 10 -23.5 19.5 t-8.5 15.5z" />
<glyph unicode="&#xe3;" horiz-adv-x="769" d="M-42 86q0 27 11.5 51.5t34.5 47.5q2 13 2 21q0 5 -2.5 10.5t-6.5 12.5l-13.5 31.5t-16.5 37.5q4 4 11.5 15.5t17.5 28.5l91 60q5 5 12 13.5t16 24.5q7 13 18.5 22t26.5 16q8 10 23 25t38 35q11 6 28 17.5t37 30.5q91 86 159.5 129t115.5 43q26 0 38.5 -11t12.5 -31 q0 -21 -7.5 -37t-23.5 -27q-25 -18 -54 -40q-16 -21 -39 -44.5t-54 -46.5q-10 -13 -17 -23q-5 -5 -19 -18t-37 -30q-10 -22 -43.5 -57t-89.5 -84q-7 -7 -25 -32t-47 -66l7 -9q22 7 46 24t53 45q34 31 55.5 50.5t30.5 25.5l14 8t16 10q46 55 86 81.5t74 26.5q21 0 32 -16.5 t13 -49.5q-2 -50 -2 -96q-1 -32 17.5 -57.5t48.5 -25.5q9 0 17.5 5t17.5 13q7 9 13.5 17t13.5 16q4 2 11.5 7t14.5 12q14 -30 23.5 -52.5t14.5 -39.5q-23 -21 -45.5 -43.5t-47.5 -42.5q-30 -23 -58 -34.5t-56 -11.5q-65 0 -100 37t-41 112q0 9 -2.5 18.5t-10.5 19.5 q-5 -5 -11 -10.5t-14 -14.5l-32.5 -25t-45.5 -36q-35 -36 -59 -59t-34 -33q-20 -17 -46.5 -34t-59.5 -35q-21 -11 -36 -17.5t-22 -6.5q-48 0 -71 23.5t-23 72.5zM292 897v13.5t3 14.5q3 6 8.5 12.5t8.5 12.5q4 8 14 14.5t16 14.5q3 4 10 21q6 6 13 11t13 11q9 7 18 16.5 t18 15.5t19.5 11.5t19.5 9.5q15 6 28.5 10.5t25.5 4.5q9 0 21 -5t24 -11q9 -6 20 -13.5t20 -13.5t15.5 -13.5t13.5 -12.5l6 -15l16 4q15 5 23 9q5 2 10.5 5t10.5 6q6 3 12.5 9.5t12.5 10.5q9 4 19 6t18 5q18 9 33 15.5t20 6.5q18 -13 23 -20q4 -7 10 -26q0 -5 -4 -12 t-10 -15q-7 -9 -19 -21t-25 -24q-11 -10 -23.5 -20.5t-24.5 -20.5q-14 -10 -29 -20t-28 -18q-16 -9 -29.5 -15.5t-19.5 -6.5q-20 -2 -26 1q-5 3 -7.5 10t-8.5 10q-16 2 -20 4q-7 5 -12.5 13t-11.5 12q-15 9 -28 16.5t-19 7.5q-9 0 -19.5 -2.5t-19.5 -5.5q-12 -4 -24.5 -11.5 t-22.5 -14.5q-8 -6 -16 -12.5t-14 -12.5q-13 -12 -32 -30q-7 0 -15.5 4t-14.5 11q-4 4 -9 10t-8 13q-3 5 -3 10z" />
<glyph unicode="&#xe4;" horiz-adv-x="769" d="M-42 86q0 27 11.5 51.5t34.5 47.5q2 13 2 21q0 5 -2.5 10.5t-6.5 12.5l-13.5 31.5t-16.5 37.5q4 4 11.5 15.5t17.5 28.5l91 60q5 5 12 13.5t16 24.5q7 13 18.5 22t26.5 16q8 10 23 25t38 35q11 6 28 17.5t37 30.5q91 86 159.5 129t115.5 43q26 0 38.5 -11t12.5 -31 q0 -21 -7.5 -37t-23.5 -27q-25 -18 -54 -40q-16 -21 -39 -44.5t-54 -46.5q-10 -13 -17 -23q-5 -5 -19 -18t-37 -30q-10 -22 -43.5 -57t-89.5 -84q-7 -7 -25 -32t-47 -66l7 -9q22 7 46 24t53 45q34 31 55.5 50.5t30.5 25.5l14 8t16 10q46 55 86 81.5t74 26.5q21 0 32 -16.5 t13 -49.5q-2 -50 -2 -96q-1 -32 17.5 -57.5t48.5 -25.5q9 0 17.5 5t17.5 13q7 9 13.5 17t13.5 16q4 2 11.5 7t14.5 12q14 -30 23.5 -52.5t14.5 -39.5q-23 -21 -45.5 -43.5t-47.5 -42.5q-30 -23 -58 -34.5t-56 -11.5q-65 0 -100 37t-41 112q0 9 -2.5 18.5t-10.5 19.5 q-5 -5 -11 -10.5t-14 -14.5l-32.5 -25t-45.5 -36q-35 -36 -59 -59t-34 -33q-20 -17 -46.5 -34t-59.5 -35q-21 -11 -36 -17.5t-22 -6.5q-48 0 -71 23.5t-23 72.5zM308 927q0 16 6.5 34t16.5 35q8 13 19.5 26.5t23.5 24.5q4 4 7 10.5t8 9.5q6 3 13.5 5t12.5 5q11 6 22 9.5 t19 3.5q12 0 22 -2t17 -5q12 -5 18 -15.5t6 -24.5q0 -5 -0.5 -11t-0.5 -11q0 -6 -5.5 -7t-7.5 -7q-3 -8 -2.5 -23.5t-2.5 -22.5q-3 -8 -8.5 -16.5t-11.5 -16.5t-13 -15t-14 -12q-9 -8 -20 -19.5t-23 -14.5q-10 -3 -22 0.5t-22 3.5q-14 0 -25 3t-18 9t-11 17.5t-4 26.5z M593 919q0 12 2.5 24t5.5 21q2 6 6 12.5t8 11.5q3 4 11 3.5t13 2.5q4 3 12 19q5 2 10.5 6t10.5 9l27.5 27.5t27.5 14.5q9 0 17.5 -1.5t14.5 -3.5q9 -3 16.5 -8.5t11.5 -12.5q5 -8 8 -18t3 -22q0 -7 -1 -15t-2 -15q-2 -12 -6.5 -24.5t-10.5 -22.5t-13 -20.5t-16 -18.5 q-10 -10 -22.5 -19t-25.5 -15q-9 -3 -19.5 -5.5t-20.5 -2.5q-7 0 -15 -1.5t-14 -0.5q-6 2 -20 19q-4 4 -8 11t-7 15q-2 6 -3 14t-1 16z" />
<glyph unicode="&#xe5;" horiz-adv-x="769" d="M-42 86q0 27 11.5 51.5t34.5 47.5q2 13 2 21q0 5 -2.5 10.5t-6.5 12.5l-13.5 31.5t-16.5 37.5q4 4 11.5 15.5t17.5 28.5l91 60q5 5 12 13.5t16 24.5q7 13 18.5 22t26.5 16q8 10 23 25t38 35q11 6 28 17.5t37 30.5q91 86 159.5 129t115.5 43q26 0 38.5 -11t12.5 -31 q0 -21 -7.5 -37t-23.5 -27q-25 -18 -54 -40q-16 -21 -39 -44.5t-54 -46.5q-10 -13 -17 -23q-5 -5 -19 -18t-37 -30q-10 -22 -43.5 -57t-89.5 -84q-7 -7 -25 -32t-47 -66l7 -9q22 7 46 24t53 45q34 31 55.5 50.5t30.5 25.5l14 8t16 10q46 55 86 81.5t74 26.5q21 0 32 -16.5 t13 -49.5q-2 -50 -2 -96q-1 -32 17.5 -57.5t48.5 -25.5q9 0 17.5 5t17.5 13q7 9 13.5 17t13.5 16q4 2 11.5 7t14.5 12q14 -30 23.5 -52.5t14.5 -39.5q-23 -21 -45.5 -43.5t-47.5 -42.5q-30 -23 -58 -34.5t-56 -11.5q-65 0 -100 37t-41 112q0 9 -2.5 18.5t-10.5 19.5 q-5 -5 -11 -10.5t-14 -14.5l-32.5 -25t-45.5 -36q-35 -36 -59 -59t-34 -33q-20 -17 -46.5 -34t-59.5 -35q-21 -11 -36 -17.5t-22 -6.5q-48 0 -71 23.5t-23 72.5zM385 914q0 10 1 21t1 21q0 7 1 15.5t1 14.5v21t3 21q1 6 6 12t5 11q2 6 3 14.5t3 14.5q2 5 1.5 14t2.5 15 q4 10 13 17t15 15q6 9 14 18t16 16q5 4 13 6t14 5q5 3 10 9.5t10 8.5q10 5 22 9t24 7q8 1 16.5 7.5t18.5 6.5q6 0 14 -3.5t14 -3.5q11 0 20 -4.5t17 -7.5q9 -5 21.5 -12t19.5 -17q5 -8 14.5 -19t11.5 -24q1 -9 -1.5 -21t-3.5 -24q0 -9 1 -19.5t1 -20.5q0 -12 1 -23.5 t-1 -22.5q-3 -20 -14 -39.5t-20 -37.5l-13 -26t-15 -26q-3 -6 -12 -7t-13 -5t-6.5 -12t-8.5 -11q-10 -6 -22 -10.5t-23 -7.5q-19 -6 -39.5 -12.5t-40.5 -6.5q-26 0 -47 9.5t-37 22.5q-8 7 -10 15.5t-5 17.5t-10 19t-7 19zM487 981q0 -41 11.5 -61.5t31.5 -20.5 q12 0 23.5 4.5t19.5 12.5l18 3l-2 20q9 20 14.5 51t5.5 71q0 33 -11 50.5t-32 17.5q-7 0 -14.5 -1.5t-13.5 -4.5q-7 -3 -14 -9.5t-12 -14.5q-5 -7 -9 -17t-7 -22q-2 -9 -2 -19.5t-1 -22.5q0 -9 -3 -18.5t-3 -18.5z" />
<glyph unicode="&#xe6;" horiz-adv-x="1052" d="M-42 87q0 29 12.5 58.5t33.5 60.5q-5 12 -12.5 30.5t-15.5 42.5q-2 6 -5 11t-7 8q4 3 6.5 7t2.5 10l8 6q9 16 22 28.5t33 24.5q23 13 37 23t19 17q14 14 36 35.5t51 53.5q36 24 66 51q34 29 88.5 71t126.5 98q7 5 16.5 10.5t20.5 11.5q16 1 32.5 4t31.5 6l43 -32 q3 -5 4 -8t1 -8q0 -20 -10 -36t-32 -31q-6 -3 -14.5 -8t-18.5 -12q-8 -11 -22.5 -27t-33.5 -34q-15 -18 -40.5 -41.5t-55.5 -56.5q-34 -31 -80 -79t-107 -113q-17 -23 -26.5 -38.5t-12.5 -25.5l9 -9q8 2 15.5 4.5t12.5 5.5q16 10 39.5 31t56.5 52q16 12 36 27.5t46 38.5 q47 55 79.5 82.5t50.5 27.5q6 0 12.5 -2t10.5 -5q9 -7 19 -14q6 -1 8.5 6l7.5 21q2 17 13 36.5t31 39.5q40 43 68.5 71.5t43.5 41.5q38 32 72 48.5t64 16.5q53 0 78.5 -31t25.5 -91q0 -12 -4 -26t-16 -33q-26 -43 -51 -77t-49 -60q-17 -17 -51 -44.5t-84 -61.5 q-15 -12 -22.5 -23.5t-7.5 -21.5q0 -51 30 -77t91 -26q41 0 97.5 36t128.5 109l40 -92q-30 -30 -61 -60.5t-62 -59.5q-39 -36 -77 -53t-75 -17h-33q-7 -2 -28 -5.5t-31 -3.5q-14 0 -32 6t-38 19q-16 11 -32.5 21t-31.5 20q-35 19 -52.5 55.5t-17.5 92.5q0 38 -4.5 58 t-11.5 20q-13 0 -34 -15t-51 -43q-5 -6 -16.5 -16t-31.5 -26q-29 -24 -65.5 -65t-201.5 -131q-20 -2 -33 -2q-33 0 -56 26.5t-23 59.5zM673 414q0 -7 3 -10t9 -3q22 14 38 29q12 11 24.5 20.5t24.5 20.5q13 13 20 26.5t7 28.5q0 8 -3.5 13t-9.5 5q-18 0 -65.5 -53.5 t-47.5 -76.5z" />
<glyph unicode="&#xe7;" horiz-adv-x="631" d="M-36 298l9 8q1 11 14 26t37 35q15 11 31.5 21t31.5 22q63 54 122 104q34 30 68 51.5t64 34.5q21 27 78.5 55t93.5 28q14 0 22.5 -8t10.5 -20v-55q0 -29 -16.5 -51.5t-49.5 -41.5q-22 -10 -44 -22t-44 -22q-8 -10 -42.5 -37.5t-93.5 -73.5q-27 -21 -45 -37.5t-25 -26.5 q-10 -19 -15.5 -42t-5.5 -53q0 -23 7 -39.5t21 -26.5q10 -7 27.5 -14t43.5 -14q15 6 39.5 11.5t54.5 14.5q34 20 69.5 42t70.5 45q5 3 12.5 6.5t15.5 10.5q10 13 27.5 30t42.5 39q40 -87 40 -92q-37 -30 -75 -61.5t-87 -51.5q-16 -13 -27 -24q-50 -50 -116.5 -75.5 t-151.5 -25.5q-19 0 -34 3t-25 8q-30 20 -51 35q-22 16 -37 30.5t-22 27.5q-9 14 -12.5 34t-3.5 49q0 8 5 26t5 25q-7 22 -17 45t-23 47zM51.5 -216q2.5 17 4.5 21q3 7 7.5 35t7.5 33q6 11 18 25.5t18 26.5q4 8 9.5 17.5t10.5 18.5q3 5 6 10.5t6 9.5q3 6 7 12.5t7 11.5 q9 15 25 31q5 0 11.5 -1.5t12.5 -3.5q15 -6 29 -15.5t14 -15.5q-5 -15 -9 -25q-3 -8 -8.5 -19.5t-11.5 -24.5q-4 -9 -9 -17.5t-10 -21.5q7 2 16 4t14 3q11 3 23 7.5t21 7.5q7 2 21 4.5t20 3.5q8 1 19.5 -3t17.5 -3q13 1 21 -4t15 -6q8 -1 12 -5.5t6 -9.5q3 -8 5.5 -25.5 t-2.5 -32.5q-4 -11 -4.5 -25.5t-9.5 -31.5q-2 -4 -8 -19t-11 -24q-7 -13 -17.5 -30.5t-18.5 -28.5q-9 -13 -23.5 -22t-25.5 -21q-6 -6 -13.5 -17.5t-14.5 -16.5q-9 -7 -12.5 -18t-23.5 -1q-7 4 -16 -7t-17 -16q-15 -9 -29.5 -18t-27.5 -14q-11 -4 -25.5 2.5t-20.5 10.5 q-4 3 -9 19.5t-8 24.5q-19 57 92.5 101.5t111.5 61.5l7 42q-57 -2 -69 -3q-7 -1 -16.5 -10.5t-21.5 -10.5q-5 0 -12.5 -5.5t-13.5 -6.5q-10 4 -15 3t-13 -5.5t-13 -7.5q-22 -5 -27 -1q-25 14 -27 19q-5 10 -2.5 27z" />
<glyph unicode="&#xe8;" horiz-adv-x="503" d="M-36 298q12 21 31 42.5t48 44.5q3 20 6 39.5t4 39.5q3 14 9.5 33t14.5 41q9 22 24.5 55t40.5 74q21 23 44 50.5t46 55.5q11 9 24 17t26 18q12 4 27 7t33 3q25 0 40.5 -5t25.5 -17q7 -8 13.5 -24t12.5 -39q3 -20 7 -44q0 6 -3.5 -5t-10.5 -35l-9 -32q-14 -48 -63 -111 t-132 -144q-7 -7 -12 -17.5t-5 -22.5q0 -21 7.5 -37t21.5 -24q8 -6 25.5 -12t41.5 -11q39 3 71 13t57 24q5 3 16 8.5t22 14.5q13 -29 23 -52t16 -40q-57 -56 -103.5 -84.5t-85.5 -28.5q-16 -10 -36.5 -14.5t-48.5 -4.5q-37 0 -65.5 11t-47.5 32q-10 10 -20 29.5t-21 46.5 q-9 22 -17 32.5t-18 10.5q-8 0 -18 -7.5t-22 -22.5q-4 15 -14 37t-26 55zM182 1112q0 6 6.5 12.5t8.5 12.5q3 7 12.5 15.5t13.5 15.5q7 12 15.5 16t17.5 4q6 0 15 0.5t13 -1.5q8 -5 9.5 -16t3.5 -23q16 0 22 -2q9 -15 12 -19q6 -9 12 -23t15 -28q9 -13 25.5 -25.5 t31.5 -28.5q12 -12 22.5 -28t24.5 -29q16 -14 29.5 -25t21.5 -22q8 -12 11.5 -24.5t3.5 -21.5q0 -15 -5 -22t-15 -7q-23 1 -35 9q-6 3 -12.5 12t-15.5 15q-12 9 -28.5 15t-31.5 15q-15 8 -29.5 20t-27.5 19q-13 6 -19 12t-20 12q-6 3 -14 3t-13 3q-10 5 -17.5 14t-13.5 15 q-9 8 -17 17t-12 18t-6.5 19.5t-2.5 19.5q0 6 -5.5 14.5t-5.5 16.5zM188 481q0 -6 2.5 -8.5t10.5 -2.5q11 0 18 11.5t13 21.5q11 10 21.5 21.5t20.5 22.5q12 14 18 28t6 28q0 9 -3.5 14.5t-10.5 5.5q-22 0 -59 -57.5t-37 -84.5z" />
<glyph unicode="&#xe9;" horiz-adv-x="503" d="M-36 298q12 21 31 42.5t48 44.5q3 20 6 39.5t4 39.5q3 14 9.5 33t14.5 41q9 22 24.5 55t40.5 74q21 23 44 50.5t46 55.5q11 9 24 17t26 18q12 4 27 7t33 3q25 0 40.5 -5t25.5 -17q7 -8 13.5 -24t12.5 -39q3 -20 7 -44q0 6 -3.5 -5t-10.5 -35l-9 -32q-14 -48 -63 -111 t-132 -144q-7 -7 -12 -17.5t-5 -22.5q0 -21 7.5 -37t21.5 -24q8 -6 25.5 -12t41.5 -11q39 3 71 13t57 24q5 3 16 8.5t22 14.5q13 -29 23 -52t16 -40q-57 -56 -103.5 -84.5t-85.5 -28.5q-16 -10 -36.5 -14.5t-48.5 -4.5q-37 0 -65.5 11t-47.5 32q-10 10 -20 29.5t-21 46.5 q-9 22 -17 32.5t-18 10.5q-8 0 -18 -7.5t-22 -22.5q-4 15 -14 37t-26 55zM188 481q0 -6 2.5 -8.5t10.5 -2.5q11 0 18 11.5t13 21.5q11 10 21.5 21.5t20.5 22.5q12 14 18 28t6 28q0 9 -3.5 14.5t-10.5 5.5q-22 0 -59 -57.5t-37 -84.5zM273 894q-2 8 3 17q3 7 15 16t21 18 q6 6 16 19.5t17 19.5q14 12 25 22.5t21 19.5q18 16 31.5 24.5t19.5 14.5q9 9 17.5 18.5t14.5 18.5q10 15 12.5 30.5t7.5 26.5q9 18 23 27t30 9q10 0 18 -5.5t15 -14.5q5 -7 10 -15t8 -15q6 -15 9.5 -30t3.5 -27t-3.5 -23.5t-9.5 -21.5q-6 -11 -17.5 -22.5t-26.5 -20.5 q-9 -6 -19 -11.5t-21 -9.5q-7 -3 -16.5 -14t-15.5 -14q-12 -7 -22.5 -8.5t-22.5 -9.5t-20.5 -16.5t-20.5 -16.5q-5 -4 -18.5 -7.5t-18.5 -6.5q-9 -6 -14.5 -17t-11.5 -14q-12 -7 -32 -11q-10 0 -18 10t-8 25q0 7 -2 15z" />
<glyph unicode="&#xea;" horiz-adv-x="503" d="M-36 298q12 21 31 42.5t48 44.5q3 20 6 39.5t4 39.5q3 14 9.5 33t14.5 41q9 22 24.5 55t40.5 74q21 23 44 50.5t46 55.5q11 9 24 17t26 18q12 4 27 7t33 3q25 0 40.5 -5t25.5 -17q7 -8 13.5 -24t12.5 -39q3 -20 7 -44q0 6 -3.5 -5t-10.5 -35l-9 -32q-14 -48 -63 -111 t-132 -144q-7 -7 -12 -17.5t-5 -22.5q0 -21 7.5 -37t21.5 -24q8 -6 25.5 -12t41.5 -11q39 3 71 13t57 24q5 3 16 8.5t22 14.5q13 -29 23 -52t16 -40q-57 -56 -103.5 -84.5t-85.5 -28.5q-16 -10 -36.5 -14.5t-48.5 -4.5q-37 0 -65.5 11t-47.5 32q-10 10 -20 29.5t-21 46.5 q-9 22 -17 32.5t-18 10.5q-8 0 -18 -7.5t-22 -22.5q-4 15 -14 37t-26 55zM101 872q0 6 5 14.5t14 19.5q4 6 7 14.5t7 14.5q6 7 14 12t13 11q9 12 15 24.5t14 22.5q11 14 23.5 27t21.5 24q9 12 16 22t14 19q6 8 14.5 14.5t14.5 10.5q17 13 33.5 17t31.5 4q9 0 19 -3t17 -9 t8 -21.5t6 -26.5q4 -9 19 -6.5t21 -6.5q18 -27 38.5 -58t50.5 -54q16 -13 24.5 -25t8.5 -20q0 -7 -3 -12.5t-12 -12.5q-11 -10 -16.5 -14t-10.5 -4q-26 13 -47 26q-14 8 -32.5 16.5t-33.5 19.5q-9 6 -16 13.5t-17 13.5q-4 3 -14 3t-15 2q-6 1 -8 8t-6 9q-7 -5 -13 -10.5 t-13 -10.5q-6 -3 -13.5 -7.5t-12.5 -8.5q-10 -8 -19 -18.5t-18 -18.5q-10 -9 -23 -18.5t-22 -18.5q-9 -8 -16 -15.5t-13 -12.5q-8 -7 -23 -15q-14 5 -21 10q-15 10 -23.5 19.5t-8.5 15.5zM188 481q0 -6 2.5 -8.5t10.5 -2.5q11 0 18 11.5t13 21.5q11 10 21.5 21.5t20.5 22.5 q12 14 18 28t6 28q0 9 -3.5 14.5t-10.5 5.5q-22 0 -59 -57.5t-37 -84.5z" />
<glyph unicode="&#xeb;" horiz-adv-x="503" d="M-36 298q12 21 31 42.5t48 44.5q3 20 6 39.5t4 39.5q3 14 9.5 33t14.5 41q9 22 24.5 55t40.5 74q21 23 44 50.5t46 55.5q11 9 24 17t26 18q12 4 27 7t33 3q25 0 40.5 -5t25.5 -17q7 -8 13.5 -24t12.5 -39q3 -20 7 -44q0 6 -3.5 -5t-10.5 -35l-9 -32q-14 -48 -63 -111 t-132 -144q-7 -7 -12 -17.5t-5 -22.5q0 -21 7.5 -37t21.5 -24q8 -6 25.5 -12t41.5 -11q39 3 71 13t57 24q5 3 16 8.5t22 14.5q13 -29 23 -52t16 -40q-57 -56 -103.5 -84.5t-85.5 -28.5q-16 -10 -36.5 -14.5t-48.5 -4.5q-37 0 -65.5 11t-47.5 32q-10 10 -20 29.5t-21 46.5 q-9 22 -17 32.5t-18 10.5q-8 0 -18 -7.5t-22 -22.5q-4 15 -14 37t-26 55zM156 939q0 16 6.5 34t16.5 35q8 13 19.5 26.5t23.5 24.5q4 4 7 10.5t8 9.5q6 3 13.5 5t12.5 5q11 6 22 9.5t19 3.5q12 0 22 -2t17 -5q12 -5 18 -15.5t6 -24.5q0 -5 -0.5 -11t-0.5 -11q0 -6 -5.5 -7 t-7.5 -7q-3 -8 -2.5 -23.5t-2.5 -22.5q-3 -8 -8.5 -16.5t-11.5 -16.5t-13 -15t-14 -12q-9 -8 -20 -19.5t-23 -14.5q-10 -3 -22 0.5t-22 3.5q-14 0 -25 3t-18 9t-11 17.5t-4 26.5zM188 481q0 -6 2.5 -8.5t10.5 -2.5q11 0 18 11.5t13 21.5q11 10 21.5 21.5t20.5 22.5 q12 14 18 28t6 28q0 9 -3.5 14.5t-10.5 5.5q-22 0 -59 -57.5t-37 -84.5zM441 931q0 12 2.5 24t5.5 21q2 6 6 12.5t8 11.5q3 4 11 3.5t13 2.5q4 3 12 19q5 2 10.5 6t10.5 9l27.5 27.5t27.5 14.5q9 0 17.5 -1.5t14.5 -3.5q9 -3 16.5 -8.5t11.5 -12.5q5 -8 8 -18t3 -22 q0 -7 -1 -15t-2 -15q-2 -12 -6.5 -24.5t-10.5 -22.5t-13 -20.5t-16 -18.5q-10 -10 -22.5 -19t-25.5 -15q-9 -3 -19.5 -5.5t-20.5 -2.5q-7 0 -15 -1.5t-14 -0.5q-6 2 -20 19q-4 4 -8 11t-7 15q-2 6 -3 14t-1 16z" />
<glyph unicode="&#xec;" horiz-adv-x="572" d="M-36 298l6 7l3 10q27 37 95 96.5t94 96.5q10 16 23 23t26 7q35 0 59 -17.5t32 -52.5q7 -31 13 -62.5t10 -63.5q7 -20 17 -60.5t15 -46.5q5 -10 15 -14.5t25 -4.5q18 0 37 6.5t39 22.5q15 13 31.5 26.5t32.5 26.5l40 -92q-16 -16 -42.5 -36.5t-63.5 -47.5 q-41 -30 -70 -44.5t-44 -14.5q-91 0 -118 21t-60 117q-4 8 -12 19t-18 26q-12 23 -21 34.5t-15 11.5q-16 0 -43 -21.5t-66 -64.5q-5 13 -12.5 31t-15.5 42q-2 6 -5 11t-7 8zM130 955q0 6 6.5 12.5t8.5 12.5q3 7 12.5 15.5t13.5 15.5q7 12 15.5 16t17.5 4q6 0 15 0.5t13 -1.5 q8 -5 9.5 -16t3.5 -23q16 0 22 -2q9 -15 12 -19q6 -9 12 -23t15 -28q9 -13 25.5 -25.5t31.5 -28.5q12 -12 22.5 -28t24.5 -29q16 -14 29.5 -25t21.5 -22q8 -12 11.5 -24.5t3.5 -21.5q0 -15 -5 -22t-15 -7q-23 1 -35 9q-6 3 -12.5 12t-15.5 15q-12 9 -28.5 15t-31.5 15 q-15 8 -29.5 20t-27.5 19q-13 6 -19 12t-20 12q-6 3 -14 3t-13 3q-10 5 -17.5 14t-13.5 15q-9 8 -17 17t-12 18t-6.5 19.5t-2.5 19.5q0 6 -5.5 14.5t-5.5 16.5z" />
<glyph unicode="&#xed;" horiz-adv-x="572" d="M-36 298l6 7l3 10q27 37 95 96.5t94 96.5q10 16 23 23t26 7q35 0 59 -17.5t32 -52.5q7 -31 13 -62.5t10 -63.5q7 -20 17 -60.5t15 -46.5q5 -10 15 -14.5t25 -4.5q18 0 37 6.5t39 22.5q15 13 31.5 26.5t32.5 26.5l40 -92q-16 -16 -42.5 -36.5t-63.5 -47.5 q-41 -30 -70 -44.5t-44 -14.5q-91 0 -118 21t-60 117q-4 8 -12 19t-18 26q-12 23 -21 34.5t-15 11.5q-16 0 -43 -21.5t-66 -64.5q-5 13 -12.5 31t-15.5 42q-2 6 -5 11t-7 8zM213 747q-2 8 3 17q3 7 15 16t21 18q6 6 16 19.5t17 19.5q14 12 25 22.5t21 19.5q18 16 31.5 24.5 t19.5 14.5q9 9 17.5 18.5t14.5 18.5q10 15 12.5 30.5t7.5 26.5q9 18 23 27t30 9q10 0 18 -5.5t15 -14.5q5 -7 10 -15t8 -15q6 -15 9.5 -30t3.5 -27t-3.5 -23.5t-9.5 -21.5q-6 -11 -17.5 -22.5t-26.5 -20.5q-9 -6 -19 -11.5t-21 -9.5q-7 -3 -16.5 -14t-15.5 -14 q-12 -7 -22.5 -8.5t-22.5 -9.5t-20.5 -16.5t-20.5 -16.5q-5 -4 -18.5 -7.5t-18.5 -6.5q-9 -6 -14.5 -17t-11.5 -14q-12 -7 -32 -11q-10 0 -18 10t-8 25q0 7 -2 15z" />
</font>
</defs>
</svg>
